<svg width="57" height="57" viewBox="0 0 57 57" fill="none" xmlns="http://www.w3.org/2000/svg">
<path d="M52.9219 25H49.1057C48.3733 20.709 46.3268 16.7512 43.2487 13.6731C40.1707 10.5951 36.2129 8.54856 31.9219 7.81622V4H24.9219V7.81622C20.6309 8.54856 16.6731 10.5951 13.595 13.6731C10.5169 16.7512 8.47044 20.709 7.7381 25H3.92188V32H7.7381C8.47044 36.291 10.5169 40.2488 13.595 43.3269C16.6731 46.4049 20.6309 48.4514 24.9219 49.1838V53H31.9219V49.1838C36.2129 48.4514 40.1707 46.4049 43.2487 43.3269C46.3268 40.2488 48.3733 36.291 49.1057 32H52.9219V25ZM28.4219 46C24.9607 46 21.5773 44.9736 18.6994 43.0507C15.8215 41.1278 13.5785 38.3947 12.254 35.197C10.9295 31.9993 10.5829 28.4806 11.2581 25.0859C11.9334 21.6913 13.6001 18.5731 16.0475 16.1256C18.4949 13.6782 21.6131 12.0115 25.0078 11.3363C28.4025 10.661 31.9211 11.0076 35.1188 12.3321C38.3165 13.6566 41.0497 15.8997 42.9726 18.7775C44.8955 21.6554 45.9219 25.0388 45.9219 28.5C45.9166 33.1397 44.0712 37.5878 40.7904 40.8685C37.5097 44.1493 33.0615 45.9947 28.4219 46Z" fill="#454545"/>
</svg>
