<svg width="616" height="453" viewBox="0 0 616 453" fill="none" xmlns="http://www.w3.org/2000/svg">
<g clip-path="url(#clip0_5881_92689)">
<g clip-path="url(#clip1_5881_92689)">
<path d="M180 11C180 6.58172 183.582 3 188 3H428C432.418 3 436 6.58172 436 11V47H180V11Z" fill="white"/>
<g clip-path="url(#clip2_5881_92689)">
<g filter="url(#filter0_i_5881_92689)">
<rect x="186" y="8" width="34" height="34" rx="8" fill="#FBFBFB"/>
<rect x="186.5" y="8.5" width="33" height="33" rx="7.5" stroke="#F5F5F5"/>
<path d="M211.25 25C211.25 29.5563 207.556 33.25 203 33.25C198.444 33.25 194.75 29.5563 194.75 25C194.75 20.4437 198.444 16.75 203 16.75C207.556 16.75 211.25 20.4437 211.25 25Z" stroke="#028375" stroke-width="1.5"/>
</g>
<path d="M231.719 22.5653C231.673 22.1619 231.486 21.8494 231.156 21.6278C230.827 21.4034 230.412 21.2912 229.912 21.2912C229.554 21.2912 229.244 21.348 228.983 21.4616C228.722 21.5724 228.518 21.7259 228.374 21.9219C228.232 22.1151 228.161 22.3352 228.161 22.5824C228.161 22.7898 228.209 22.9687 228.305 23.1193C228.405 23.2699 228.534 23.3963 228.693 23.4986C228.855 23.598 229.028 23.6818 229.213 23.75C229.398 23.8153 229.575 23.8693 229.746 23.9119L230.598 24.1335C230.876 24.2017 231.162 24.294 231.455 24.4105C231.747 24.527 232.018 24.6804 232.268 24.8707C232.518 25.0611 232.72 25.2969 232.874 25.5781C233.03 25.8594 233.108 26.196 233.108 26.5881C233.108 27.0824 232.98 27.5213 232.724 27.9048C232.472 28.2884 232.104 28.5909 231.621 28.8125C231.141 29.0341 230.56 29.1449 229.878 29.1449C229.224 29.1449 228.659 29.0412 228.182 28.8338C227.705 28.6264 227.331 28.3324 227.061 27.9517C226.791 27.5682 226.642 27.1136 226.614 26.5881H227.935C227.96 26.9034 228.063 27.1662 228.241 27.3764C228.423 27.5838 228.655 27.7386 228.936 27.8409C229.22 27.9403 229.531 27.9901 229.869 27.9901C230.241 27.9901 230.572 27.9318 230.862 27.8153C231.155 27.696 231.385 27.5312 231.553 27.321C231.72 27.108 231.804 26.8594 231.804 26.5753C231.804 26.3168 231.73 26.1051 231.582 25.9403C231.438 25.7756 231.24 25.6392 230.99 25.5312C230.743 25.4233 230.463 25.3281 230.151 25.2457L229.119 24.9645C228.42 24.7741 227.866 24.4943 227.457 24.125C227.051 23.7557 226.848 23.267 226.848 22.6591C226.848 22.1562 226.984 21.7173 227.257 21.3423C227.53 20.9673 227.899 20.6761 228.365 20.4688C228.831 20.2585 229.357 20.1534 229.942 20.1534C230.533 20.1534 231.054 20.2571 231.506 20.4645C231.96 20.6719 232.318 20.9574 232.58 21.321C232.841 21.6818 232.977 22.0966 232.989 22.5653H231.719ZM237.216 29.1321C236.583 29.1321 236.037 28.9886 235.58 28.7017C235.125 28.4119 234.776 28.0128 234.532 27.5043C234.287 26.9957 234.165 26.4134 234.165 25.7571C234.165 25.0923 234.29 24.5057 234.54 23.9972C234.79 23.4858 235.142 23.0866 235.597 22.7997C236.052 22.5128 236.587 22.3693 237.204 22.3693C237.701 22.3693 238.144 22.4616 238.533 22.6463C238.922 22.8281 239.236 23.0838 239.475 23.4134C239.716 23.7429 239.86 24.1278 239.905 24.5682H238.665C238.597 24.2614 238.441 23.9972 238.196 23.7756C237.955 23.554 237.631 23.4432 237.225 23.4432C236.87 23.4432 236.559 23.5369 236.292 23.7244C236.027 23.9091 235.821 24.1733 235.674 24.517C235.526 24.858 235.452 25.2614 235.452 25.7273C235.452 26.2045 235.525 26.6165 235.669 26.9631C235.814 27.3097 236.019 27.5781 236.283 27.7685C236.55 27.9588 236.864 28.054 237.225 28.054C237.466 28.054 237.685 28.0099 237.881 27.9219C238.08 27.831 238.246 27.7017 238.38 27.5341C238.516 27.3665 238.611 27.1648 238.665 26.929H239.905C239.86 27.3523 239.722 27.7301 239.492 28.0625C239.262 28.3949 238.954 28.6562 238.567 28.8466C238.184 29.0369 237.733 29.1321 237.216 29.1321ZM242.422 25.1136V29H241.148V20.2727H242.405V23.5199H242.486C242.639 23.1676 242.874 22.8878 243.189 22.6804C243.504 22.473 243.916 22.3693 244.425 22.3693C244.874 22.3693 245.266 22.4616 245.601 22.6463C245.939 22.831 246.2 23.1065 246.385 23.473C246.573 23.8366 246.666 24.2912 246.666 24.8366V29H245.392V24.9901C245.392 24.5099 245.269 24.1378 245.021 23.8736C244.774 23.6065 244.43 23.473 243.99 23.473C243.689 23.473 243.419 23.5369 243.18 23.6648C242.945 23.7926 242.759 23.9801 242.622 24.2273C242.489 24.4716 242.422 24.767 242.422 25.1136ZM251.068 29.1321C250.423 29.1321 249.867 28.9943 249.401 28.7188C248.938 28.4403 248.58 28.0497 248.327 27.5469C248.077 27.0412 247.952 26.4489 247.952 25.7699C247.952 25.0994 248.077 24.5085 248.327 23.9972C248.58 23.4858 248.933 23.0866 249.384 22.7997C249.839 22.5128 250.37 22.3693 250.978 22.3693C251.347 22.3693 251.705 22.4304 252.052 22.5526C252.399 22.6747 252.71 22.8665 252.985 23.1278C253.261 23.3892 253.478 23.7287 253.637 24.1463C253.796 24.5611 253.876 25.0653 253.876 25.6591V26.1108H248.673V25.1562H252.627C252.627 24.821 252.559 24.5241 252.423 24.2656C252.286 24.0043 252.095 23.7983 251.847 23.6477C251.603 23.4972 251.316 23.4219 250.987 23.4219C250.629 23.4219 250.316 23.5099 250.049 23.6861C249.785 23.8594 249.58 24.0866 249.435 24.3679C249.293 24.6463 249.222 24.9489 249.222 25.2756V26.0213C249.222 26.4588 249.299 26.831 249.452 27.1378C249.609 27.4446 249.826 27.679 250.104 27.8409C250.383 28 250.708 28.0795 251.08 28.0795C251.322 28.0795 251.542 28.0455 251.741 27.9773C251.94 27.9062 252.112 27.8011 252.256 27.6619C252.401 27.5227 252.512 27.3509 252.589 27.1463L253.795 27.3636C253.698 27.7187 253.525 28.0298 253.275 28.2969C253.028 28.5611 252.717 28.767 252.342 28.9148C251.97 29.0597 251.545 29.1321 251.068 29.1321ZM257.62 29.1278C257.091 29.1278 256.62 28.9929 256.205 28.723C255.793 28.4503 255.469 28.0625 255.233 27.5597C255 27.054 254.884 26.4474 254.884 25.7401C254.884 25.0327 255.002 24.4276 255.238 23.9247C255.476 23.4219 255.803 23.0369 256.218 22.7699C256.633 22.5028 257.103 22.3693 257.628 22.3693C258.035 22.3693 258.361 22.4375 258.608 22.5739C258.858 22.7074 259.052 22.8636 259.188 23.0426C259.327 23.2216 259.435 23.3793 259.512 23.5156H259.589V20.2727H260.863V29H259.618V27.9815H259.512C259.435 28.1207 259.324 28.2798 259.179 28.4588C259.037 28.6378 258.841 28.794 258.591 28.9276C258.341 29.0611 258.018 29.1278 257.62 29.1278ZM257.901 28.0412C258.268 28.0412 258.577 27.9446 258.83 27.7514C259.086 27.5554 259.279 27.2841 259.41 26.9375C259.543 26.5909 259.61 26.1875 259.61 25.7273C259.61 25.2727 259.545 24.875 259.414 24.5341C259.283 24.1932 259.091 23.9276 258.839 23.7372C258.586 23.5469 258.273 23.4517 257.901 23.4517C257.518 23.4517 257.198 23.5511 256.942 23.75C256.687 23.9489 256.493 24.2202 256.363 24.5639C256.235 24.9077 256.171 25.2955 256.171 25.7273C256.171 26.1648 256.236 26.5582 256.367 26.9077C256.498 27.2571 256.691 27.5341 256.946 27.7386C257.205 27.9403 257.523 28.0412 257.901 28.0412ZM266.708 26.2855V22.4545H267.986V29H266.733V27.8665H266.665C266.514 28.2159 266.273 28.5071 265.94 28.7401C265.611 28.9702 265.2 29.0852 264.709 29.0852C264.288 29.0852 263.916 28.9929 263.592 28.8082C263.271 28.6207 263.019 28.3438 262.834 27.9773C262.652 27.6108 262.561 27.1577 262.561 26.6179V22.4545H263.835V26.4645C263.835 26.9105 263.959 27.2656 264.206 27.5298C264.453 27.794 264.774 27.9261 265.169 27.9261C265.408 27.9261 265.645 27.8665 265.881 27.7472C266.119 27.6278 266.317 27.4474 266.473 27.206C266.632 26.9645 266.71 26.6577 266.708 26.2855ZM270.852 20.2727V29H269.578V20.2727H270.852ZM275.267 29.1321C274.622 29.1321 274.067 28.9943 273.601 28.7188C273.138 28.4403 272.78 28.0497 272.527 27.5469C272.277 27.0412 272.152 26.4489 272.152 25.7699C272.152 25.0994 272.277 24.5085 272.527 23.9972C272.78 23.4858 273.132 23.0866 273.584 22.7997C274.039 22.5128 274.57 22.3693 275.178 22.3693C275.547 22.3693 275.905 22.4304 276.252 22.5526C276.598 22.6747 276.909 22.8665 277.185 23.1278C277.46 23.3892 277.678 23.7287 277.837 24.1463C277.996 24.5611 278.075 25.0653 278.075 25.6591V26.1108H272.872V25.1562H276.827C276.827 24.821 276.759 24.5241 276.622 24.2656C276.486 24.0043 276.294 23.7983 276.047 23.6477C275.803 23.4972 275.516 23.4219 275.186 23.4219C274.828 23.4219 274.516 23.5099 274.249 23.6861C273.985 23.8594 273.78 24.0866 273.635 24.3679C273.493 24.6463 273.422 24.9489 273.422 25.2756V26.0213C273.422 26.4588 273.499 26.831 273.652 27.1378C273.808 27.4446 274.026 27.679 274.304 27.8409C274.583 28 274.908 28.0795 275.28 28.0795C275.522 28.0795 275.742 28.0455 275.941 27.9773C276.139 27.9062 276.311 27.8011 276.456 27.6619C276.601 27.5227 276.712 27.3509 276.789 27.1463L277.995 27.3636C277.898 27.7187 277.725 28.0298 277.475 28.2969C277.227 28.5611 276.916 28.767 276.541 28.9148C276.169 29.0597 275.745 29.1321 275.267 29.1321Z" fill="#454545"/>
</g>
<g filter="url(#filter1_i_5881_92689)">
<rect x="373" y="9" width="56" height="32" rx="6" fill="#FBFBFB"/>
<rect x="373.5" y="9.5" width="55" height="31" rx="5.5" stroke="#F5F5F5"/>
<path d="M381.58 21.2102V20.2727H388.125V21.2102H385.381V29H384.324V21.2102H381.58ZM388.82 29V22.4545H389.792V23.4432H389.86C389.979 23.1193 390.195 22.8565 390.507 22.6548C390.82 22.4531 391.172 22.3523 391.564 22.3523C391.638 22.3523 391.73 22.3537 391.841 22.3565C391.952 22.3594 392.036 22.3636 392.093 22.3693V23.392C392.059 23.3835 391.98 23.3707 391.858 23.3537C391.739 23.3338 391.613 23.3239 391.479 23.3239C391.161 23.3239 390.877 23.3906 390.627 23.5241C390.38 23.6548 390.184 23.8366 390.039 24.0696C389.897 24.2997 389.826 24.5625 389.826 24.858V29H388.82ZM393.165 29V22.4545H394.171V29H393.165ZM393.676 21.3636C393.48 21.3636 393.311 21.2969 393.169 21.1634C393.03 21.0298 392.96 20.8693 392.96 20.6818C392.96 20.4943 393.03 20.3338 393.169 20.2003C393.311 20.0668 393.48 20 393.676 20C393.872 20 394.04 20.0668 394.179 20.2003C394.321 20.3338 394.392 20.4943 394.392 20.6818C394.392 20.8693 394.321 21.0298 394.179 21.1634C394.04 21.2969 393.872 21.3636 393.676 21.3636ZM398.535 31.5909C398.049 31.5909 397.631 31.5284 397.282 31.4034C396.932 31.2812 396.641 31.1193 396.408 30.9176C396.178 30.7188 395.995 30.5057 395.858 30.2784L396.66 29.7159C396.75 29.8352 396.865 29.9716 397.005 30.125C397.144 30.2812 397.334 30.4162 397.576 30.5298C397.82 30.6463 398.14 30.7045 398.535 30.7045C399.063 30.7045 399.499 30.5767 399.843 30.321C400.187 30.0653 400.358 29.6648 400.358 29.1193V27.7898H400.273C400.199 27.9091 400.094 28.0568 399.958 28.233C399.824 28.4062 399.631 28.5611 399.378 28.6974C399.128 28.831 398.79 28.8977 398.364 28.8977C397.836 28.8977 397.361 28.7727 396.941 28.5227C396.523 28.2727 396.192 27.9091 395.948 27.4318C395.706 26.9545 395.586 26.375 395.586 25.6932C395.586 25.0227 395.704 24.4389 395.939 23.9418C396.175 23.4418 396.503 23.0554 396.924 22.7827C397.344 22.5071 397.83 22.3693 398.381 22.3693C398.807 22.3693 399.145 22.4403 399.395 22.5824C399.648 22.7216 399.841 22.8807 399.975 23.0597C400.111 23.2358 400.216 23.3807 400.29 23.4943H400.392V22.4545H401.364V29.1875C401.364 29.75 401.236 30.2074 400.981 30.5597C400.728 30.9148 400.387 31.1747 399.958 31.3395C399.532 31.5071 399.057 31.5909 398.535 31.5909ZM398.5 27.9943C398.904 27.9943 399.245 27.902 399.523 27.7173C399.802 27.5327 400.013 27.267 400.158 26.9205C400.303 26.5739 400.375 26.1591 400.375 25.6761C400.375 25.2045 400.304 24.7884 400.162 24.4276C400.02 24.0668 399.81 23.7841 399.532 23.5795C399.253 23.375 398.91 23.2727 398.5 23.2727C398.074 23.2727 397.719 23.3807 397.435 23.5966C397.154 23.8125 396.942 24.1023 396.8 24.4659C396.661 24.8295 396.591 25.233 396.591 25.6761C396.591 26.1307 396.662 26.5327 396.804 26.8821C396.949 27.2287 397.162 27.5014 397.444 27.7003C397.728 27.8963 398.08 27.9943 398.5 27.9943ZM405.727 31.5909C405.241 31.5909 404.824 31.5284 404.474 31.4034C404.125 31.2812 403.834 31.1193 403.601 30.9176C403.37 30.7188 403.187 30.5057 403.051 30.2784L403.852 29.7159C403.943 29.8352 404.058 29.9716 404.197 30.125C404.336 30.2812 404.527 30.4162 404.768 30.5298C405.013 30.6463 405.332 30.7045 405.727 30.7045C406.255 30.7045 406.692 30.5767 407.035 30.321C407.379 30.0653 407.551 29.6648 407.551 29.1193V27.7898H407.466C407.392 27.9091 407.287 28.0568 407.15 28.233C407.017 28.4062 406.824 28.5611 406.571 28.6974C406.321 28.831 405.983 28.8977 405.557 28.8977C405.028 28.8977 404.554 28.7727 404.133 28.5227C403.716 28.2727 403.385 27.9091 403.14 27.4318C402.899 26.9545 402.778 26.375 402.778 25.6932C402.778 25.0227 402.896 24.4389 403.132 23.9418C403.368 23.4418 403.696 23.0554 404.116 22.7827C404.537 22.5071 405.022 22.3693 405.574 22.3693C406 22.3693 406.338 22.4403 406.588 22.5824C406.841 22.7216 407.034 22.8807 407.167 23.0597C407.304 23.2358 407.409 23.3807 407.483 23.4943H407.585V22.4545H408.557V29.1875C408.557 29.75 408.429 30.2074 408.173 30.5597C407.92 30.9148 407.579 31.1747 407.15 31.3395C406.724 31.5071 406.25 31.5909 405.727 31.5909ZM405.693 27.9943C406.096 27.9943 406.437 27.902 406.716 27.7173C406.994 27.5327 407.206 27.267 407.351 26.9205C407.495 26.5739 407.568 26.1591 407.568 25.6761C407.568 25.2045 407.497 24.7884 407.355 24.4276C407.213 24.0668 407.003 23.7841 406.724 23.5795C406.446 23.375 406.102 23.2727 405.693 23.2727C405.267 23.2727 404.912 23.3807 404.628 23.5966C404.346 23.8125 404.135 24.1023 403.993 24.4659C403.853 24.8295 403.784 25.233 403.784 25.6761C403.784 26.1307 403.855 26.5327 403.997 26.8821C404.142 27.2287 404.355 27.5014 404.636 27.7003C404.92 27.8963 405.272 27.9943 405.693 27.9943ZM413.022 29.1364C412.391 29.1364 411.847 28.9972 411.39 28.7188C410.935 28.4375 410.584 28.0455 410.337 27.5426C410.093 27.0369 409.971 26.4489 409.971 25.7784C409.971 25.108 410.093 24.517 410.337 24.0057C410.584 23.4915 410.928 23.0909 411.368 22.804C411.812 22.5142 412.329 22.3693 412.92 22.3693C413.26 22.3693 413.597 22.4261 413.929 22.5398C414.262 22.6534 414.564 22.8381 414.837 23.0938C415.11 23.3466 415.327 23.6818 415.489 24.0994C415.651 24.517 415.732 25.0312 415.732 25.642V26.0682H410.687V25.1989H414.709C414.709 24.8295 414.635 24.5 414.488 24.2102C414.343 23.9205 414.135 23.6918 413.866 23.5241C413.599 23.3565 413.283 23.2727 412.92 23.2727C412.519 23.2727 412.172 23.3722 411.88 23.571C411.59 23.767 411.367 24.0227 411.211 24.3381C411.054 24.6534 410.976 24.9915 410.976 25.3523V25.9318C410.976 26.4261 411.062 26.8452 411.232 27.1889C411.405 27.5298 411.645 27.7898 411.952 27.9688C412.259 28.1449 412.616 28.233 413.022 28.233C413.286 28.233 413.525 28.196 413.738 28.1222C413.954 28.0455 414.14 27.9318 414.296 27.7812C414.452 27.6278 414.573 27.4375 414.658 27.2102L415.63 27.483C415.527 27.8125 415.356 28.1023 415.114 28.3523C414.873 28.5994 414.574 28.7926 414.219 28.9318C413.864 29.0682 413.465 29.1364 413.022 29.1364ZM417.142 29V22.4545H418.113V23.4432H418.182C418.301 23.1193 418.517 22.8565 418.829 22.6548C419.142 22.4531 419.494 22.3523 419.886 22.3523C419.96 22.3523 420.052 22.3537 420.163 22.3565C420.274 22.3594 420.358 22.3636 420.415 22.3693V23.392C420.38 23.3835 420.302 23.3707 420.18 23.3537C420.061 23.3338 419.934 23.3239 419.801 23.3239C419.483 23.3239 419.199 23.3906 418.949 23.5241C418.702 23.6548 418.505 23.8366 418.361 24.0696C418.219 24.2997 418.148 24.5625 418.148 24.858V29H417.142Z" fill="#008375"/>
</g>
</g>
<path d="M180.5 11C180.5 6.85786 183.858 3.5 188 3.5H428C432.142 3.5 435.5 6.85786 435.5 11V46.5H180.5V11Z" stroke="#F5F5F5"/>
<path d="M180 47H436V89C436 91.2091 434.209 93 432 93H184C181.791 93 180 91.2091 180 89V47Z" fill="white"/>
<path d="M188.881 66V58.7273H191.338C191.906 58.7273 192.373 58.8243 192.737 59.0185C193.102 59.2102 193.372 59.4742 193.547 59.8104C193.722 60.1465 193.81 60.5289 193.81 60.9574C193.81 61.3859 193.722 61.7659 193.547 62.0973C193.372 62.4287 193.103 62.6892 192.741 62.8786C192.379 63.0656 191.916 63.1591 191.352 63.1591H189.364V62.3636H191.324C191.712 62.3636 192.025 62.3068 192.261 62.1932C192.5 62.0795 192.673 61.9186 192.78 61.7102C192.889 61.4995 192.943 61.2486 192.943 60.9574C192.943 60.6662 192.889 60.4117 192.78 60.1939C192.671 59.9761 192.497 59.808 192.258 59.6896C192.019 59.5689 191.703 59.5085 191.31 59.5085H189.761V66H188.881ZM192.304 62.733L194.094 66H193.071L191.31 62.733H192.304ZM198.601 63.7699V60.5455H199.439V66H198.601V65.0767H198.544C198.416 65.3537 198.218 65.5893 197.948 65.7834C197.678 65.9751 197.337 66.071 196.925 66.071C196.584 66.071 196.281 65.9964 196.016 65.8473C195.751 65.6958 195.542 65.4685 195.391 65.1655C195.239 64.8601 195.164 64.4754 195.164 64.0114V60.5455H196.002V63.9545C196.002 64.3523 196.113 64.6695 196.335 64.9062C196.56 65.143 196.847 65.2614 197.195 65.2614C197.403 65.2614 197.615 65.2081 197.83 65.1016C198.048 64.995 198.231 64.8317 198.377 64.6115C198.526 64.3913 198.601 64.1108 198.601 63.7699ZM201.812 62.7188V66H200.974V60.5455H201.784V61.3977H201.855C201.983 61.1207 202.177 60.8982 202.437 60.7301C202.698 60.5597 203.034 60.4744 203.446 60.4744C203.815 60.4744 204.138 60.5502 204.415 60.7017C204.692 60.8509 204.908 61.0781 205.061 61.3835C205.215 61.6866 205.292 62.0701 205.292 62.5341V66H204.454V62.5909C204.454 62.1624 204.343 61.8286 204.12 61.5895C203.898 61.348 203.592 61.2273 203.204 61.2273C202.937 61.2273 202.698 61.2853 202.487 61.4013C202.279 61.5173 202.114 61.6866 201.993 61.9091C201.873 62.1316 201.812 62.4015 201.812 62.7188ZM212.008 60.5455V61.2557H209.182V60.5455H212.008ZM210.006 59.2386H210.844V64.4375C210.844 64.6742 210.878 64.8518 210.947 64.9702C211.018 65.0862 211.108 65.1643 211.216 65.2045C211.328 65.2424 211.445 65.2614 211.568 65.2614C211.66 65.2614 211.736 65.2566 211.795 65.2472C211.854 65.2353 211.902 65.2259 211.937 65.2188L212.108 65.9716C212.051 65.9929 211.972 66.0142 211.87 66.0355C211.768 66.0592 211.639 66.071 211.483 66.071C211.246 66.071 211.014 66.0201 210.787 65.9183C210.562 65.8165 210.375 65.6615 210.226 65.4531C210.079 65.2448 210.006 64.982 210.006 64.6648V59.2386ZM214.224 62.7188V66H213.386V58.7273H214.224V61.3977H214.295C214.423 61.116 214.615 60.8923 214.871 60.7266C215.129 60.5585 215.472 60.4744 215.9 60.4744C216.272 60.4744 216.598 60.549 216.877 60.6982C217.156 60.8449 217.373 61.071 217.527 61.3764C217.683 61.6795 217.761 62.0653 217.761 62.5341V66H216.923V62.5909C216.923 62.1577 216.811 61.8227 216.586 61.5859C216.363 61.3468 216.054 61.2273 215.659 61.2273C215.384 61.2273 215.138 61.2853 214.92 61.4013C214.705 61.5173 214.534 61.6866 214.409 61.9091C214.286 62.1316 214.224 62.4015 214.224 62.7188ZM221.581 66.1136C221.056 66.1136 220.602 65.9976 220.221 65.7656C219.842 65.5312 219.55 65.2045 219.344 64.7855C219.141 64.3641 219.039 63.8741 219.039 63.3153C219.039 62.7566 219.141 62.2642 219.344 61.8381C219.55 61.4096 219.837 61.0758 220.203 60.8366C220.573 60.5952 221.004 60.4744 221.496 60.4744C221.78 60.4744 222.061 60.5218 222.338 60.6165C222.615 60.7112 222.867 60.8651 223.094 61.0781C223.321 61.2888 223.502 61.5682 223.637 61.9162C223.772 62.2642 223.84 62.6927 223.84 63.2017V63.5568H219.635V62.8324H222.988C222.988 62.5246 222.926 62.25 222.803 62.0085C222.682 61.767 222.509 61.5765 222.284 61.4368C222.062 61.2971 221.799 61.2273 221.496 61.2273C221.162 61.2273 220.873 61.3101 220.63 61.4759C220.388 61.6392 220.202 61.8523 220.072 62.1151C219.942 62.3778 219.877 62.6596 219.877 62.9602V63.4432C219.877 63.8551 219.948 64.2043 220.09 64.4908C220.234 64.7749 220.434 64.9915 220.69 65.1406C220.946 65.2874 221.243 65.3608 221.581 65.3608C221.801 65.3608 222 65.33 222.178 65.2685C222.358 65.2045 222.513 65.1098 222.643 64.9844C222.773 64.8565 222.874 64.6979 222.945 64.5085L223.755 64.7358C223.669 65.0104 223.526 65.2519 223.325 65.4602C223.124 65.6662 222.875 65.8272 222.579 65.9432C222.283 66.0568 221.951 66.1136 221.581 66.1136ZM229.163 66L227.501 60.5455H228.382L229.561 64.7216H229.618L230.782 60.5455H231.677L232.828 64.7074H232.885L234.064 60.5455H234.944L233.282 66H232.458L231.265 61.8097H231.18L229.987 66H229.163ZM238.083 66.1136C237.59 66.1136 237.158 65.9964 236.786 65.7621C236.417 65.5277 236.128 65.1998 235.92 64.7784C235.714 64.357 235.611 63.8646 235.611 63.3011C235.611 62.733 235.714 62.237 235.92 61.8132C236.128 61.3894 236.417 61.0604 236.786 60.826C237.158 60.5916 237.59 60.4744 238.083 60.4744C238.575 60.4744 239.006 60.5916 239.375 60.826C239.747 61.0604 240.036 61.3894 240.242 61.8132C240.45 62.237 240.554 62.733 240.554 63.3011C240.554 63.8646 240.45 64.357 240.242 64.7784C240.036 65.1998 239.747 65.5277 239.375 65.7621C239.006 65.9964 238.575 66.1136 238.083 66.1136ZM238.083 65.3608C238.457 65.3608 238.764 65.2649 239.006 65.0732C239.247 64.8814 239.426 64.6293 239.542 64.3168C239.658 64.0043 239.716 63.6657 239.716 63.3011C239.716 62.9366 239.658 62.5968 239.542 62.282C239.426 61.9671 239.247 61.7126 239.006 61.5185C238.764 61.3243 238.457 61.2273 238.083 61.2273C237.709 61.2273 237.401 61.3243 237.159 61.5185C236.918 61.7126 236.739 61.9671 236.623 62.282C236.507 62.5968 236.449 62.9366 236.449 63.3011C236.449 63.6657 236.507 64.0043 236.623 64.3168C236.739 64.6293 236.918 64.8814 237.159 65.0732C237.401 65.2649 237.709 65.3608 238.083 65.3608ZM241.833 66V60.5455H242.643V61.3693H242.7C242.799 61.0994 242.979 60.8804 243.24 60.7124C243.5 60.5443 243.794 60.4602 244.12 60.4602C244.182 60.4602 244.259 60.4614 244.351 60.4638C244.444 60.4661 244.513 60.4697 244.561 60.4744V61.3267C244.532 61.3196 244.467 61.3089 244.365 61.2947C244.266 61.2782 244.161 61.2699 244.049 61.2699C243.784 61.2699 243.547 61.3255 243.339 61.4368C243.133 61.5457 242.97 61.6972 242.849 61.8913C242.731 62.0831 242.672 62.3021 242.672 62.5483V66H241.833ZM246.335 64.0114L246.321 62.9744H246.492L248.878 60.5455H249.915L247.372 63.1165H247.301L246.335 64.0114ZM245.554 66V58.7273H246.392V66H245.554ZM249.02 66L246.889 63.3011L247.486 62.7188L250.085 66H249.02ZM253.423 60.5455V61.2557H250.482V60.5455H253.423ZM251.363 66V59.7926C251.363 59.4801 251.436 59.2197 251.583 59.0114C251.73 58.803 251.92 58.6468 252.155 58.5426C252.389 58.4384 252.637 58.3864 252.897 58.3864C253.103 58.3864 253.271 58.4029 253.401 58.4361C253.531 58.4692 253.629 58.5 253.692 58.5284L253.451 59.2528C253.408 59.2386 253.349 59.2209 253.273 59.1996C253.2 59.1783 253.103 59.1676 252.982 59.1676C252.705 59.1676 252.505 59.2375 252.382 59.3771C252.261 59.5168 252.201 59.7216 252.201 59.9915V66H251.363ZM255.435 58.7273V66H254.597V58.7273H255.435ZM259.186 66.1136C258.694 66.1136 258.262 65.9964 257.89 65.7621C257.521 65.5277 257.232 65.1998 257.023 64.7784C256.817 64.357 256.714 63.8646 256.714 63.3011C256.714 62.733 256.817 62.237 257.023 61.8132C257.232 61.3894 257.521 61.0604 257.89 60.826C258.262 60.5916 258.694 60.4744 259.186 60.4744C259.679 60.4744 260.109 60.5916 260.479 60.826C260.85 61.0604 261.139 61.3894 261.345 61.8132C261.554 62.237 261.658 62.733 261.658 63.3011C261.658 63.8646 261.554 64.357 261.345 64.7784C261.139 65.1998 260.85 65.5277 260.479 65.7621C260.109 65.9964 259.679 66.1136 259.186 66.1136ZM259.186 65.3608C259.56 65.3608 259.868 65.2649 260.109 65.0732C260.351 64.8814 260.53 64.6293 260.646 64.3168C260.762 64.0043 260.82 63.6657 260.82 63.3011C260.82 62.9366 260.762 62.5968 260.646 62.282C260.53 61.9671 260.351 61.7126 260.109 61.5185C259.868 61.3243 259.56 61.2273 259.186 61.2273C258.812 61.2273 258.504 61.3243 258.263 61.5185C258.021 61.7126 257.843 61.9671 257.727 62.282C257.611 62.5968 257.553 62.9366 257.553 63.3011C257.553 63.6657 257.611 64.0043 257.727 64.3168C257.843 64.6293 258.021 64.8814 258.263 65.0732C258.504 65.2649 258.812 65.3608 259.186 65.3608ZM263.987 66L262.325 60.5455H263.206L264.385 64.7216H264.442L265.607 60.5455H266.501L267.652 64.7074H267.709L268.888 60.5455H269.768L268.107 66H267.283L266.089 61.8097H266.004L264.811 66H263.987ZM275.976 66.1136C275.45 66.1136 274.997 65.9976 274.616 65.7656C274.237 65.5312 273.945 65.2045 273.739 64.7855C273.535 64.3641 273.433 63.8741 273.433 63.3153C273.433 62.7566 273.535 62.2642 273.739 61.8381C273.945 61.4096 274.231 61.0758 274.598 60.8366C274.967 60.5952 275.398 60.4744 275.891 60.4744C276.175 60.4744 276.455 60.5218 276.732 60.6165C277.009 60.7112 277.261 60.8651 277.489 61.0781C277.716 61.2888 277.897 61.5682 278.032 61.9162C278.167 62.2642 278.234 62.6927 278.234 63.2017V63.5568H274.03V62.8324H277.382C277.382 62.5246 277.321 62.25 277.197 62.0085C277.077 61.767 276.904 61.5765 276.679 61.4368C276.456 61.2971 276.194 61.2273 275.891 61.2273C275.557 61.2273 275.268 61.3101 275.024 61.4759C274.783 61.6392 274.597 61.8523 274.467 62.1151C274.336 62.3778 274.271 62.6596 274.271 62.9602V63.4432C274.271 63.8551 274.342 64.2043 274.484 64.4908C274.629 64.7749 274.829 64.9915 275.085 65.1406C275.34 65.2874 275.637 65.3608 275.976 65.3608C276.196 65.3608 276.395 65.33 276.572 65.2685C276.752 65.2045 276.907 65.1098 277.038 64.9844C277.168 64.8565 277.268 64.6979 277.339 64.5085L278.149 64.7358C278.064 65.0104 277.921 65.2519 277.719 65.4602C277.518 65.6662 277.27 65.8272 276.974 65.9432C276.678 66.0568 276.345 66.1136 275.976 66.1136ZM283.803 60.5455L281.786 66H280.934L278.917 60.5455H279.826L281.332 64.892H281.389L282.894 60.5455H283.803ZM287.001 66.1136C286.476 66.1136 286.022 65.9976 285.641 65.7656C285.262 65.5312 284.97 65.2045 284.764 64.7855C284.56 64.3641 284.459 63.8741 284.459 63.3153C284.459 62.7566 284.56 62.2642 284.764 61.8381C284.97 61.4096 285.256 61.0758 285.623 60.8366C285.993 60.5952 286.424 60.4744 286.916 60.4744C287.2 60.4744 287.481 60.5218 287.758 60.6165C288.035 60.7112 288.287 60.8651 288.514 61.0781C288.741 61.2888 288.922 61.5682 289.057 61.9162C289.192 62.2642 289.26 62.6927 289.26 63.2017V63.5568H285.055V62.8324H288.407C288.407 62.5246 288.346 62.25 288.223 62.0085C288.102 61.767 287.929 61.5765 287.704 61.4368C287.482 61.2971 287.219 61.2273 286.916 61.2273C286.582 61.2273 286.293 61.3101 286.05 61.4759C285.808 61.6392 285.622 61.8523 285.492 62.1151C285.362 62.3778 285.297 62.6596 285.297 62.9602V63.4432C285.297 63.8551 285.368 64.2043 285.51 64.4908C285.654 64.7749 285.854 64.9915 286.11 65.1406C286.366 65.2874 286.663 65.3608 287.001 65.3608C287.221 65.3608 287.42 65.33 287.598 65.2685C287.778 65.2045 287.933 65.1098 288.063 64.9844C288.193 64.8565 288.294 64.6979 288.365 64.5085L289.175 64.7358C289.089 65.0104 288.946 65.2519 288.745 65.4602C288.544 65.6662 288.295 65.8272 287.999 65.9432C287.703 66.0568 287.371 66.1136 287.001 66.1136ZM290.535 66V60.5455H291.344V61.3693H291.401C291.501 61.0994 291.68 60.8804 291.941 60.7124C292.201 60.5443 292.495 60.4602 292.822 60.4602C292.883 60.4602 292.96 60.4614 293.052 60.4638C293.145 60.4661 293.215 60.4697 293.262 60.4744V61.3267C293.233 61.3196 293.168 61.3089 293.067 61.2947C292.967 61.2782 292.862 61.2699 292.751 61.2699C292.485 61.2699 292.249 61.3255 292.04 61.4368C291.834 61.5457 291.671 61.6972 291.55 61.8913C291.432 62.0831 291.373 62.3021 291.373 62.5483V66H290.535ZM294.961 68.0455C294.819 68.0455 294.692 68.0336 294.581 68.0099C294.47 67.9886 294.393 67.9673 294.35 67.946L294.563 67.2074C294.767 67.2595 294.947 67.2784 295.103 67.2642C295.259 67.25 295.398 67.1802 295.519 67.0547C295.642 66.9316 295.754 66.7315 295.856 66.4545L296.012 66.0284L293.995 60.5455H294.904L296.41 64.892H296.467L297.972 60.5455H298.882L296.566 66.7955C296.462 67.0772 296.333 67.3104 296.179 67.495C296.025 67.6821 295.847 67.8205 295.643 67.9105C295.442 68.0005 295.214 68.0455 294.961 68.0455ZM303.638 62.7188V66H302.8V58.7273H303.638V61.3977H303.709C303.837 61.116 304.029 60.8923 304.285 60.7266C304.543 60.5585 304.886 60.4744 305.314 60.4744C305.686 60.4744 306.012 60.549 306.291 60.6982C306.57 60.8449 306.787 61.071 306.941 61.3764C307.097 61.6795 307.175 62.0653 307.175 62.5341V66H306.337V62.5909C306.337 62.1577 306.225 61.8227 306 61.5859C305.777 61.3468 305.468 61.2273 305.073 61.2273C304.798 61.2273 304.552 61.2853 304.334 61.4013C304.119 61.5173 303.948 61.6866 303.823 61.9091C303.7 62.1316 303.638 62.4015 303.638 62.7188ZM310.924 66.1136C310.432 66.1136 310 65.9964 309.628 65.7621C309.259 65.5277 308.97 65.1998 308.762 64.7784C308.556 64.357 308.453 63.8646 308.453 63.3011C308.453 62.733 308.556 62.237 308.762 61.8132C308.97 61.3894 309.259 61.0604 309.628 60.826C310 60.5916 310.432 60.4744 310.924 60.4744C311.417 60.4744 311.848 60.5916 312.217 60.826C312.589 61.0604 312.877 61.3894 313.083 61.8132C313.292 62.237 313.396 62.733 313.396 63.3011C313.396 63.8646 313.292 64.357 313.083 64.7784C312.877 65.1998 312.589 65.5277 312.217 65.7621C311.848 65.9964 311.417 66.1136 310.924 66.1136ZM310.924 65.3608C311.298 65.3608 311.606 65.2649 311.848 65.0732C312.089 64.8814 312.268 64.6293 312.384 64.3168C312.5 64.0043 312.558 63.6657 312.558 63.3011C312.558 62.9366 312.5 62.5968 312.384 62.282C312.268 61.9671 312.089 61.7126 311.848 61.5185C311.606 61.3243 311.298 61.2273 310.924 61.2273C310.55 61.2273 310.243 61.3243 310.001 61.5185C309.76 61.7126 309.581 61.9671 309.465 62.282C309.349 62.5968 309.291 62.9366 309.291 63.3011C309.291 63.6657 309.349 64.0043 309.465 64.3168C309.581 64.6293 309.76 64.8814 310.001 65.0732C310.243 65.2649 310.55 65.3608 310.924 65.3608ZM318.113 63.7699V60.5455H318.951V66H318.113V65.0767H318.056C317.928 65.3537 317.729 65.5893 317.459 65.7834C317.189 65.9751 316.849 66.071 316.437 66.071C316.096 66.071 315.793 65.9964 315.528 65.8473C315.262 65.6958 315.054 65.4685 314.903 65.1655C314.751 64.8601 314.675 64.4754 314.675 64.0114V60.5455H315.513V63.9545C315.513 64.3523 315.625 64.6695 315.847 64.9062C316.072 65.143 316.358 65.2614 316.706 65.2614C316.915 65.2614 317.127 65.2081 317.342 65.1016C317.56 64.995 317.742 64.8317 317.889 64.6115C318.038 64.3913 318.113 64.1108 318.113 63.7699ZM320.486 66V60.5455H321.295V61.3693H321.352C321.452 61.0994 321.632 60.8804 321.892 60.7124C322.152 60.5443 322.446 60.4602 322.773 60.4602C322.834 60.4602 322.911 60.4614 323.004 60.4638C323.096 60.4661 323.166 60.4697 323.213 60.4744V61.3267C323.185 61.3196 323.12 61.3089 323.018 61.2947C322.918 61.2782 322.813 61.2699 322.702 61.2699C322.437 61.2699 322.2 61.3255 321.991 61.4368C321.786 61.5457 321.622 61.6972 321.501 61.8913C321.383 62.0831 321.324 62.3021 321.324 62.5483V66H320.486Z" fill="#454545"/>
</g>
<rect x="180.5" y="3.5" width="255" height="89" rx="11.5" stroke="#F5F5F5"/>
<rect x="302.5" y="97.5" width="11" height="11" rx="5.5" transform="rotate(-90 302.5 97.5)" fill="white" stroke="#0070F3"/>
<g clip-path="url(#clip3_5881_92689)">
<g clip-path="url(#clip4_5881_92689)">
<g clip-path="url(#clip5_5881_92689)">
<rect x="180" y="357" width="256" height="44" fill="white"/>
<g clip-path="url(#clip6_5881_92689)">
<g filter="url(#filter2_i_5881_92689)">
<rect x="186" y="363" width="32" height="32" rx="8" fill="#FBFBFB"/>
<rect x="186.5" y="363.5" width="31" height="31" rx="7.5" stroke="#F5F5F5"/>
<path d="M198 375.5H196C195.735 375.5 195.48 375.605 195.293 375.793C195.105 375.98 195 376.235 195 376.5V382.5H196V380H198V382.5H199V376.5C199 376.235 198.895 375.98 198.707 375.793C198.52 375.605 198.265 375.5 198 375.5ZM196 379V376.5H198V379H196Z" fill="#9341D5"/>
<path d="M205 376.5H206.5V381.5H205V382.5H209V381.5H207.5V376.5H209V375.5H205V376.5Z" fill="#9341D5"/>
<path d="M201 382.5H200V375.5H203C203.265 375.5 203.52 375.605 203.707 375.793C203.895 375.98 204 376.235 204 376.5V379C204 379.265 203.895 379.52 203.707 379.707C203.52 379.895 203.265 380 203 380H201V382.5ZM201 379H203V376.5H201V379Z" fill="#9341D5"/>
</g>
<path d="M225.696 383H224.298L227.439 374.273H228.96L232.101 383H230.703L228.236 375.858H228.168L225.696 383ZM225.93 379.582H230.464V380.69H225.93V379.582ZM233.241 383V374.273H236.352C237.031 374.273 237.593 374.396 238.039 374.643C238.485 374.891 238.819 375.229 239.041 375.658C239.262 376.084 239.373 376.564 239.373 377.098C239.373 377.635 239.261 378.118 239.037 378.547C238.815 378.973 238.48 379.311 238.031 379.561C237.585 379.808 237.024 379.932 236.348 379.932H234.208V378.815H236.228C236.657 378.815 237.005 378.741 237.272 378.594C237.539 378.443 237.735 378.239 237.86 377.98C237.985 377.722 238.048 377.428 238.048 377.098C238.048 376.768 237.985 376.476 237.86 376.22C237.735 375.964 237.538 375.764 237.268 375.619C237.001 375.474 236.649 375.402 236.211 375.402H234.558V383H233.241ZM242.114 374.273V383H240.797V374.273H242.114Z" fill="#454545"/>
</g>
<g filter="url(#filter3_i_5881_92689)">
<rect x="383" y="363" width="46" height="32" rx="8" fill="#FBFBFB"/>
<rect x="383.5" y="363.5" width="45" height="31" rx="7.5" stroke="#F5F5F5"/>
<path d="M393.642 383L391.256 374.273H392.33L394.153 381.381H394.239L396.097 374.273H397.29L399.148 381.381H399.233L401.057 374.273H402.131L399.744 383H398.653L396.727 376.045H396.659L394.733 383H393.642ZM402.781 383V376.455H403.753V377.443H403.821C403.94 377.119 404.156 376.857 404.468 376.655C404.781 376.453 405.133 376.352 405.525 376.352C405.599 376.352 405.691 376.354 405.802 376.357C405.913 376.359 405.997 376.364 406.054 376.369V377.392C406.02 377.384 405.941 377.371 405.819 377.354C405.7 377.334 405.574 377.324 405.44 377.324C405.122 377.324 404.838 377.391 404.588 377.524C404.341 377.655 404.145 377.837 404 378.07C403.858 378.3 403.787 378.562 403.787 378.858V383H402.781ZM407.126 383V376.455H408.131V383H407.126ZM407.637 375.364C407.441 375.364 407.272 375.297 407.13 375.163C406.991 375.03 406.921 374.869 406.921 374.682C406.921 374.494 406.991 374.334 407.13 374.2C407.272 374.067 407.441 374 407.637 374C407.833 374 408.001 374.067 408.14 374.2C408.282 374.334 408.353 374.494 408.353 374.682C408.353 374.869 408.282 375.03 408.14 375.163C408.001 375.297 407.833 375.364 407.637 375.364ZM412.7 376.455V377.307H409.308V376.455H412.7ZM410.297 374.886H411.302V381.125C411.302 381.409 411.343 381.622 411.426 381.764C411.511 381.903 411.619 381.997 411.75 382.045C411.883 382.091 412.024 382.114 412.172 382.114C412.282 382.114 412.373 382.108 412.444 382.097C412.515 382.082 412.572 382.071 412.615 382.062L412.819 382.966C412.751 382.991 412.656 383.017 412.534 383.043C412.412 383.071 412.257 383.085 412.069 383.085C411.785 383.085 411.507 383.024 411.234 382.902C410.964 382.78 410.74 382.594 410.561 382.344C410.385 382.094 410.297 381.778 410.297 381.398V374.886ZM416.767 383.136C416.136 383.136 415.592 382.997 415.135 382.719C414.68 382.438 414.329 382.045 414.082 381.543C413.838 381.037 413.716 380.449 413.716 379.778C413.716 379.108 413.838 378.517 414.082 378.006C414.329 377.491 414.673 377.091 415.113 376.804C415.557 376.514 416.074 376.369 416.665 376.369C417.005 376.369 417.342 376.426 417.674 376.54C418.007 376.653 418.309 376.838 418.582 377.094C418.855 377.347 419.072 377.682 419.234 378.099C419.396 378.517 419.477 379.031 419.477 379.642V380.068H414.432V379.199H418.454C418.454 378.83 418.38 378.5 418.233 378.21C418.088 377.92 417.88 377.692 417.611 377.524C417.344 377.357 417.028 377.273 416.665 377.273C416.264 377.273 415.917 377.372 415.625 377.571C415.335 377.767 415.112 378.023 414.956 378.338C414.799 378.653 414.721 378.991 414.721 379.352V379.932C414.721 380.426 414.807 380.845 414.977 381.189C415.15 381.53 415.39 381.79 415.697 381.969C416.004 382.145 416.361 382.233 416.767 382.233C417.031 382.233 417.27 382.196 417.483 382.122C417.699 382.045 417.885 381.932 418.041 381.781C418.197 381.628 418.318 381.437 418.403 381.21L419.375 381.483C419.272 381.812 419.101 382.102 418.859 382.352C418.618 382.599 418.319 382.793 417.964 382.932C417.609 383.068 417.21 383.136 416.767 383.136Z" fill="#9341D5"/>
</g>
</g>
<rect x="180.5" y="357.5" width="255" height="43" stroke="#F5F5F5"/>
<path d="M180 401H436V443C436 445.209 434.209 447 432 447H184C181.791 447 180 445.209 180 443V401Z" fill="white"/>
<path d="M190.202 420L188.213 412.727H189.108L190.628 418.651H190.699L192.247 412.727H193.241L194.79 418.651H194.861L196.381 412.727H197.276L195.287 420H194.378L192.773 414.205H192.716L191.111 420H190.202ZM197.917 420V414.545H198.727V415.369H198.784C198.883 415.099 199.063 414.88 199.324 414.712C199.584 414.544 199.878 414.46 200.204 414.46C200.266 414.46 200.343 414.461 200.435 414.464C200.528 414.466 200.597 414.47 200.645 414.474V415.327C200.616 415.32 200.551 415.309 200.449 415.295C200.35 415.278 200.245 415.27 200.133 415.27C199.868 415.27 199.631 415.326 199.423 415.437C199.217 415.546 199.054 415.697 198.933 415.891C198.815 416.083 198.756 416.302 198.756 416.548V420H197.917ZM201.638 420V414.545H202.476V420H201.638ZM202.064 413.636C201.901 413.636 201.76 413.581 201.642 413.469C201.526 413.358 201.468 413.224 201.468 413.068C201.468 412.912 201.526 412.778 201.642 412.667C201.76 412.556 201.901 412.5 202.064 412.5C202.228 412.5 202.367 412.556 202.483 412.667C202.602 412.778 202.661 412.912 202.661 413.068C202.661 413.224 202.602 413.358 202.483 413.469C202.367 413.581 202.228 413.636 202.064 413.636ZM206.383 414.545V415.256H203.557V414.545H206.383ZM204.381 413.239H205.219V418.438C205.219 418.674 205.253 418.852 205.322 418.97C205.393 419.086 205.483 419.164 205.591 419.205C205.703 419.242 205.82 419.261 205.943 419.261C206.035 419.261 206.111 419.257 206.17 419.247C206.229 419.235 206.277 419.226 206.312 419.219L206.483 419.972C206.426 419.993 206.347 420.014 206.245 420.036C206.143 420.059 206.014 420.071 205.858 420.071C205.621 420.071 205.389 420.02 205.162 419.918C204.937 419.817 204.75 419.661 204.601 419.453C204.454 419.245 204.381 418.982 204.381 418.665V413.239ZM209.872 420.114C209.347 420.114 208.893 419.998 208.512 419.766C208.133 419.531 207.841 419.205 207.635 418.786C207.432 418.364 207.33 417.874 207.33 417.315C207.33 416.757 207.432 416.264 207.635 415.838C207.841 415.41 208.128 415.076 208.494 414.837C208.864 414.595 209.295 414.474 209.787 414.474C210.071 414.474 210.352 414.522 210.629 414.616C210.906 414.711 211.158 414.865 211.385 415.078C211.612 415.289 211.794 415.568 211.928 415.916C212.063 416.264 212.131 416.693 212.131 417.202V417.557H207.926V416.832H211.279C211.279 416.525 211.217 416.25 211.094 416.009C210.973 415.767 210.8 415.576 210.575 415.437C210.353 415.297 210.09 415.227 209.787 415.227C209.453 415.227 209.164 415.31 208.921 415.476C208.679 415.639 208.493 415.852 208.363 416.115C208.233 416.378 208.168 416.66 208.168 416.96V417.443C208.168 417.855 208.239 418.204 208.381 418.491C208.525 418.775 208.725 418.991 208.981 419.141C209.237 419.287 209.534 419.361 209.872 419.361C210.093 419.361 210.291 419.33 210.469 419.268C210.649 419.205 210.804 419.11 210.934 418.984C211.064 418.857 211.165 418.698 211.236 418.509L212.046 418.736C211.96 419.01 211.817 419.252 211.616 419.46C211.415 419.666 211.166 419.827 210.87 419.943C210.574 420.057 210.242 420.114 209.872 420.114ZM216.332 420V412.727H220.721V413.509H217.213V415.966H220.494V416.747H217.213V419.219H220.778V420H216.332ZM221.911 413.509V412.727H227.365V413.509H225.078V420H224.198V413.509H221.911ZM228.724 420V412.727H229.605V415.966H233.483V412.727H234.364V420H233.483V416.747H229.605V420H228.724ZM238.826 422.045V414.545H239.635V415.412H239.735C239.796 415.317 239.882 415.196 239.99 415.05C240.102 414.901 240.26 414.768 240.466 414.652C240.675 414.534 240.956 414.474 241.311 414.474C241.771 414.474 242.176 414.589 242.526 414.819C242.876 415.049 243.15 415.374 243.346 415.795C243.543 416.217 243.641 416.714 243.641 417.287C243.641 417.865 243.543 418.365 243.346 418.789C243.15 419.21 242.877 419.537 242.529 419.769C242.181 419.999 241.78 420.114 241.326 420.114C240.975 420.114 240.695 420.056 240.484 419.94C240.273 419.821 240.111 419.687 239.998 419.538C239.884 419.387 239.796 419.261 239.735 419.162H239.664V422.045H238.826ZM239.65 417.273C239.65 417.685 239.71 418.048 239.831 418.363C239.951 418.675 240.128 418.92 240.36 419.098C240.592 419.273 240.876 419.361 241.212 419.361C241.562 419.361 241.855 419.268 242.089 419.084C242.326 418.897 242.503 418.646 242.622 418.331C242.743 418.014 242.803 417.661 242.803 417.273C242.803 416.889 242.744 416.544 242.625 416.236C242.509 415.926 242.333 415.681 242.096 415.501C241.862 415.318 241.567 415.227 241.212 415.227C240.871 415.227 240.585 415.314 240.353 415.487C240.121 415.657 239.945 415.896 239.827 416.204C239.709 416.509 239.65 416.866 239.65 417.273ZM244.919 420V414.545H245.729V415.369H245.786C245.885 415.099 246.065 414.88 246.326 414.712C246.586 414.544 246.88 414.46 247.206 414.46C247.268 414.46 247.345 414.461 247.437 414.464C247.529 414.466 247.599 414.47 247.647 414.474V415.327C247.618 415.32 247.553 415.309 247.451 415.295C247.352 415.278 247.247 415.27 247.135 415.27C246.87 415.27 246.633 415.326 246.425 415.437C246.219 415.546 246.056 415.697 245.935 415.891C245.817 416.083 245.757 416.302 245.757 416.548V420H244.919ZM248.64 420V414.545H249.478V420H248.64ZM249.066 413.636C248.903 413.636 248.762 413.581 248.644 413.469C248.528 413.358 248.47 413.224 248.47 413.068C248.47 412.912 248.528 412.778 248.644 412.667C248.762 412.556 248.903 412.5 249.066 412.5C249.23 412.5 249.369 412.556 249.485 412.667C249.604 412.778 249.663 412.912 249.663 413.068C249.663 413.224 249.604 413.358 249.485 413.469C249.369 413.581 249.23 413.636 249.066 413.636ZM253.229 420.114C252.718 420.114 252.277 419.993 251.908 419.751C251.539 419.51 251.255 419.177 251.056 418.754C250.857 418.33 250.757 417.846 250.757 417.301C250.757 416.747 250.859 416.258 251.063 415.835C251.269 415.408 251.555 415.076 251.922 414.837C252.292 414.595 252.722 414.474 253.215 414.474C253.598 414.474 253.944 414.545 254.252 414.688C254.56 414.83 254.812 415.028 255.008 415.284C255.205 415.54 255.327 415.838 255.374 416.179H254.536C254.472 415.93 254.33 415.71 254.11 415.518C253.892 415.324 253.598 415.227 253.229 415.227C252.902 415.227 252.616 415.312 252.37 415.483C252.126 415.651 251.935 415.889 251.798 416.197C251.663 416.502 251.596 416.861 251.596 417.273C251.596 417.694 251.662 418.061 251.794 418.374C251.929 418.686 252.119 418.929 252.363 419.102C252.609 419.274 252.898 419.361 253.229 419.361C253.447 419.361 253.645 419.323 253.822 419.247C254 419.171 254.15 419.062 254.273 418.92C254.396 418.778 254.484 418.608 254.536 418.409H255.374C255.327 418.731 255.209 419.021 255.022 419.279C254.838 419.535 254.593 419.738 254.287 419.89C253.984 420.039 253.632 420.114 253.229 420.114ZM258.886 420.114C258.36 420.114 257.907 419.998 257.526 419.766C257.147 419.531 256.855 419.205 256.649 418.786C256.445 418.364 256.343 417.874 256.343 417.315C256.343 416.757 256.445 416.264 256.649 415.838C256.855 415.41 257.141 415.076 257.508 414.837C257.877 414.595 258.308 414.474 258.801 414.474C259.085 414.474 259.365 414.522 259.642 414.616C259.919 414.711 260.172 414.865 260.399 415.078C260.626 415.289 260.807 415.568 260.942 415.916C261.077 416.264 261.145 416.693 261.145 417.202V417.557H256.94V416.832H260.292C260.292 416.525 260.231 416.25 260.108 416.009C259.987 415.767 259.814 415.576 259.589 415.437C259.367 415.297 259.104 415.227 258.801 415.227C258.467 415.227 258.178 415.31 257.934 415.476C257.693 415.639 257.507 415.852 257.377 416.115C257.247 416.378 257.181 416.66 257.181 416.96V417.443C257.181 417.855 257.252 418.204 257.395 418.491C257.539 418.775 257.739 418.991 257.995 419.141C258.25 419.287 258.547 419.361 258.886 419.361C259.106 419.361 259.305 419.33 259.483 419.268C259.663 419.205 259.818 419.11 259.948 418.984C260.078 418.857 260.179 418.698 260.25 418.509L261.059 418.736C260.974 419.01 260.831 419.252 260.63 419.46C260.428 419.666 260.18 419.827 259.884 419.943C259.588 420.057 259.255 420.114 258.886 420.114ZM267.292 420.114C266.837 420.114 266.436 419.999 266.088 419.769C265.74 419.537 265.467 419.21 265.271 418.789C265.074 418.365 264.976 417.865 264.976 417.287C264.976 416.714 265.074 416.217 265.271 415.795C265.467 415.374 265.741 415.049 266.091 414.819C266.442 414.589 266.846 414.474 267.306 414.474C267.661 414.474 267.941 414.534 268.147 414.652C268.356 414.768 268.514 414.901 268.623 415.05C268.734 415.196 268.821 415.317 268.882 415.412H268.953V412.727H269.792V420H268.982V419.162H268.882C268.821 419.261 268.733 419.387 268.62 419.538C268.506 419.687 268.344 419.821 268.133 419.94C267.922 420.056 267.642 420.114 267.292 420.114ZM267.405 419.361C267.741 419.361 268.025 419.273 268.257 419.098C268.489 418.92 268.666 418.675 268.787 418.363C268.907 418.048 268.968 417.685 268.968 417.273C268.968 416.866 268.908 416.509 268.79 416.204C268.672 415.896 268.497 415.657 268.265 415.487C268.033 415.314 267.746 415.227 267.405 415.227C267.05 415.227 266.754 415.318 266.517 415.501C266.283 415.681 266.107 415.926 265.988 416.236C265.872 416.544 265.814 416.889 265.814 417.273C265.814 417.661 265.873 418.014 265.992 418.331C266.113 418.646 266.29 418.897 266.525 419.084C266.761 419.268 267.055 419.361 267.405 419.361ZM273.048 420.128C272.702 420.128 272.389 420.063 272.107 419.933C271.825 419.8 271.601 419.609 271.436 419.361C271.27 419.11 271.187 418.807 271.187 418.452C271.187 418.139 271.249 417.886 271.372 417.692C271.495 417.495 271.659 417.341 271.865 417.23C272.071 417.119 272.299 417.036 272.547 416.982C272.798 416.925 273.05 416.88 273.304 416.847C273.635 416.804 273.904 416.772 274.11 416.751C274.318 416.727 274.47 416.688 274.564 416.634C274.661 416.579 274.71 416.484 274.71 416.349V416.321C274.71 415.971 274.614 415.698 274.422 415.504C274.233 415.31 273.945 415.213 273.559 415.213C273.159 415.213 272.846 415.301 272.618 415.476C272.391 415.651 272.231 415.838 272.139 416.037L271.343 415.753C271.485 415.421 271.675 415.163 271.912 414.979C272.151 414.792 272.411 414.661 272.693 414.588C272.977 414.512 273.256 414.474 273.531 414.474C273.706 414.474 273.907 414.496 274.135 414.538C274.364 414.579 274.586 414.663 274.799 414.79C275.014 414.918 275.193 415.111 275.335 415.369C275.477 415.627 275.548 415.973 275.548 416.406V420H274.71V419.261H274.667C274.61 419.38 274.516 419.506 274.383 419.641C274.251 419.776 274.074 419.891 273.854 419.986C273.634 420.08 273.365 420.128 273.048 420.128ZM273.176 419.375C273.507 419.375 273.787 419.31 274.014 419.18C274.243 419.049 274.416 418.881 274.532 418.675C274.651 418.469 274.71 418.253 274.71 418.026V417.259C274.674 417.301 274.596 417.34 274.475 417.376C274.357 417.409 274.22 417.438 274.064 417.464C273.91 417.488 273.759 417.509 273.613 417.528C273.468 417.545 273.351 417.559 273.261 417.571C273.043 417.599 272.84 417.646 272.65 417.71C272.463 417.771 272.312 417.865 272.196 417.99C272.082 418.113 272.025 418.281 272.025 418.494C272.025 418.786 272.133 419.006 272.348 419.155C272.566 419.302 272.842 419.375 273.176 419.375ZM279.45 414.545V415.256H276.623V414.545H279.45ZM277.447 413.239H278.285V418.438C278.285 418.674 278.319 418.852 278.388 418.97C278.459 419.086 278.549 419.164 278.658 419.205C278.769 419.242 278.886 419.261 279.009 419.261C279.102 419.261 279.177 419.257 279.237 419.247C279.296 419.235 279.343 419.226 279.379 419.219L279.549 419.972C279.492 419.993 279.413 420.014 279.311 420.036C279.209 420.059 279.08 420.071 278.924 420.071C278.687 420.071 278.455 420.02 278.228 419.918C278.003 419.817 277.816 419.661 277.667 419.453C277.52 419.245 277.447 418.982 277.447 418.665V413.239ZM282.316 420.128C281.97 420.128 281.656 420.063 281.374 419.933C281.093 419.8 280.869 419.609 280.703 419.361C280.538 419.11 280.455 418.807 280.455 418.452C280.455 418.139 280.516 417.886 280.639 417.692C280.762 417.495 280.927 417.341 281.133 417.23C281.339 417.119 281.566 417.036 281.815 416.982C282.066 416.925 282.318 416.88 282.571 416.847C282.903 416.804 283.171 416.772 283.377 416.751C283.586 416.727 283.737 416.688 283.832 416.634C283.929 416.579 283.977 416.484 283.977 416.349V416.321C283.977 415.971 283.882 415.698 283.69 415.504C283.5 415.31 283.213 415.213 282.827 415.213C282.427 415.213 282.113 415.301 281.886 415.476C281.659 415.651 281.499 415.838 281.406 416.037L280.611 415.753C280.753 415.421 280.942 415.163 281.179 414.979C281.418 414.792 281.679 414.661 281.96 414.588C282.244 414.512 282.524 414.474 282.798 414.474C282.974 414.474 283.175 414.496 283.402 414.538C283.632 414.579 283.853 414.663 284.066 414.79C284.282 414.918 284.46 415.111 284.602 415.369C284.744 415.627 284.816 415.973 284.816 416.406V420H283.977V419.261H283.935C283.878 419.38 283.783 419.506 283.651 419.641C283.518 419.776 283.342 419.891 283.122 419.986C282.901 420.08 282.633 420.128 282.316 420.128ZM282.443 419.375C282.775 419.375 283.054 419.31 283.281 419.18C283.511 419.049 283.684 418.881 283.8 418.675C283.918 418.469 283.977 418.253 283.977 418.026V417.259C283.942 417.301 283.864 417.34 283.743 417.376C283.625 417.409 283.487 417.438 283.331 417.464C283.177 417.488 283.027 417.509 282.88 417.528C282.736 417.545 282.619 417.559 282.529 417.571C282.311 417.599 282.107 417.646 281.918 417.71C281.731 417.771 281.579 417.865 281.463 417.99C281.35 418.113 281.293 418.281 281.293 418.494C281.293 418.786 281.401 419.006 281.616 419.155C281.834 419.302 282.11 419.375 282.443 419.375ZM291.53 414.545V415.256H288.703V414.545H291.53ZM289.527 413.239H290.365V418.438C290.365 418.674 290.399 418.852 290.468 418.97C290.539 419.086 290.629 419.164 290.738 419.205C290.849 419.242 290.966 419.261 291.089 419.261C291.182 419.261 291.258 419.257 291.317 419.247C291.376 419.235 291.423 419.226 291.459 419.219L291.629 419.972C291.572 419.993 291.493 420.014 291.391 420.036C291.29 420.059 291.161 420.071 291.004 420.071C290.768 420.071 290.536 420.02 290.308 419.918C290.083 419.817 289.896 419.661 289.747 419.453C289.6 419.245 289.527 418.982 289.527 418.665V413.239ZM294.948 420.114C294.455 420.114 294.023 419.996 293.652 419.762C293.282 419.528 292.993 419.2 292.785 418.778C292.579 418.357 292.476 417.865 292.476 417.301C292.476 416.733 292.579 416.237 292.785 415.813C292.993 415.389 293.282 415.06 293.652 414.826C294.023 414.592 294.455 414.474 294.948 414.474C295.44 414.474 295.871 414.592 296.24 414.826C296.612 415.06 296.901 415.389 297.107 415.813C297.315 416.237 297.419 416.733 297.419 417.301C297.419 417.865 297.315 418.357 297.107 418.778C296.901 419.2 296.612 419.528 296.24 419.762C295.871 419.996 295.44 420.114 294.948 420.114ZM294.948 419.361C295.322 419.361 295.63 419.265 295.871 419.073C296.113 418.881 296.291 418.629 296.407 418.317C296.523 418.004 296.581 417.666 296.581 417.301C296.581 416.937 296.523 416.597 296.407 416.282C296.291 415.967 296.113 415.713 295.871 415.518C295.63 415.324 295.322 415.227 294.948 415.227C294.574 415.227 294.266 415.324 294.025 415.518C293.783 415.713 293.604 415.967 293.488 416.282C293.372 416.597 293.314 416.937 293.314 417.301C293.314 417.666 293.372 418.004 293.488 418.317C293.604 418.629 293.783 418.881 294.025 419.073C294.266 419.265 294.574 419.361 294.948 419.361ZM301.511 420V414.545H302.321V415.398H302.392C302.506 415.107 302.689 414.88 302.942 414.719C303.196 414.556 303.5 414.474 303.855 414.474C304.215 414.474 304.514 414.556 304.753 414.719C304.995 414.88 305.183 415.107 305.318 415.398H305.375C305.515 415.116 305.724 414.892 306.003 414.727C306.283 414.558 306.618 414.474 307.008 414.474C307.496 414.474 307.895 414.627 308.205 414.933C308.515 415.236 308.67 415.708 308.67 416.349V420H307.832V416.349C307.832 415.947 307.722 415.659 307.502 415.487C307.282 415.314 307.023 415.227 306.724 415.227C306.341 415.227 306.044 415.343 305.833 415.575C305.622 415.805 305.517 416.096 305.517 416.449V420H304.665V416.264C304.665 415.954 304.564 415.704 304.363 415.515C304.162 415.323 303.902 415.227 303.585 415.227C303.367 415.227 303.164 415.285 302.974 415.401C302.787 415.517 302.636 415.678 302.52 415.884C302.406 416.088 302.349 416.323 302.349 416.591V420H301.511ZM310.547 422.045C310.405 422.045 310.278 422.034 310.167 422.01C310.056 421.989 309.979 421.967 309.936 421.946L310.149 421.207C310.353 421.259 310.533 421.278 310.689 421.264C310.845 421.25 310.984 421.18 311.105 421.055C311.228 420.932 311.34 420.732 311.442 420.455L311.598 420.028L309.581 414.545H310.49L311.996 418.892H312.053L313.558 414.545H314.468L312.152 420.795C312.048 421.077 311.919 421.31 311.765 421.495C311.611 421.682 311.432 421.821 311.229 421.911C311.028 422 310.8 422.045 310.547 422.045ZM318.386 420V414.545H319.224V420H318.386ZM318.812 413.636C318.649 413.636 318.508 413.581 318.39 413.469C318.274 413.358 318.216 413.224 318.216 413.068C318.216 412.912 318.274 412.778 318.39 412.667C318.508 412.556 318.649 412.5 318.812 412.5C318.976 412.5 319.115 412.556 319.231 412.667C319.35 412.778 319.409 412.912 319.409 413.068C319.409 413.224 319.35 413.358 319.231 413.469C319.115 413.581 318.976 413.636 318.812 413.636ZM321.597 416.719V420H320.759V414.545H321.569V415.398H321.64C321.768 415.121 321.962 414.898 322.222 414.73C322.483 414.56 322.819 414.474 323.231 414.474C323.6 414.474 323.923 414.55 324.2 414.702C324.477 414.851 324.693 415.078 324.847 415.384C325 415.687 325.077 416.07 325.077 416.534V420H324.239V416.591C324.239 416.162 324.128 415.829 323.906 415.589C323.683 415.348 323.378 415.227 322.989 415.227C322.722 415.227 322.483 415.285 322.272 415.401C322.064 415.517 321.899 415.687 321.778 415.909C321.658 416.132 321.597 416.402 321.597 416.719ZM328.981 414.545V415.256H326.154V414.545H328.981ZM326.978 413.239H327.816V418.438C327.816 418.674 327.851 418.852 327.919 418.97C327.99 419.086 328.08 419.164 328.189 419.205C328.3 419.242 328.418 419.261 328.541 419.261C328.633 419.261 328.709 419.257 328.768 419.247C328.827 419.235 328.874 419.226 328.91 419.219L329.08 419.972C329.024 419.993 328.944 420.014 328.843 420.036C328.741 420.059 328.612 420.071 328.455 420.071C328.219 420.071 327.987 420.02 327.759 419.918C327.535 419.817 327.347 419.661 327.198 419.453C327.052 419.245 326.978 418.982 326.978 418.665V413.239ZM332.47 420.114C331.944 420.114 331.491 419.998 331.11 419.766C330.731 419.531 330.439 419.205 330.233 418.786C330.029 418.364 329.927 417.874 329.927 417.315C329.927 416.757 330.029 416.264 330.233 415.838C330.439 415.41 330.725 415.076 331.092 414.837C331.461 414.595 331.892 414.474 332.385 414.474C332.669 414.474 332.949 414.522 333.226 414.616C333.503 414.711 333.756 414.865 333.983 415.078C334.21 415.289 334.391 415.568 334.526 415.916C334.661 416.264 334.729 416.693 334.729 417.202V417.557H330.524V416.832H333.876C333.876 416.525 333.815 416.25 333.692 416.009C333.571 415.767 333.398 415.576 333.173 415.437C332.951 415.297 332.688 415.227 332.385 415.227C332.051 415.227 331.762 415.31 331.518 415.476C331.277 415.639 331.091 415.852 330.961 416.115C330.831 416.378 330.765 416.66 330.765 416.96V417.443C330.765 417.855 330.836 418.204 330.979 418.491C331.123 418.775 331.323 418.991 331.579 419.141C331.834 419.287 332.131 419.361 332.47 419.361C332.69 419.361 332.889 419.33 333.067 419.268C333.247 419.205 333.402 419.11 333.532 418.984C333.662 418.857 333.763 418.698 333.834 418.509L334.643 418.736C334.558 419.01 334.415 419.252 334.214 419.46C334.012 419.666 333.764 419.827 333.468 419.943C333.172 420.057 332.839 420.114 332.47 420.114ZM336.003 420V414.545H336.813V415.369H336.87C336.969 415.099 337.149 414.88 337.41 414.712C337.67 414.544 337.964 414.46 338.29 414.46C338.352 414.46 338.429 414.461 338.521 414.464C338.613 414.466 338.683 414.47 338.731 414.474V415.327C338.702 415.32 338.637 415.309 338.535 415.295C338.436 415.278 338.331 415.27 338.219 415.27C337.954 415.27 337.717 415.326 337.509 415.437C337.303 415.546 337.14 415.697 337.019 415.891C336.901 416.083 336.841 416.302 336.841 416.548V420H336.003ZM340.562 416.719V420H339.724V414.545H340.534V415.398H340.605C340.733 415.121 340.927 414.898 341.187 414.73C341.448 414.56 341.784 414.474 342.196 414.474C342.565 414.474 342.888 414.55 343.165 414.702C343.442 414.851 343.658 415.078 343.811 415.384C343.965 415.687 344.042 416.07 344.042 416.534V420H343.204V416.591C343.204 416.162 343.093 415.829 342.87 415.589C342.648 415.348 342.342 415.227 341.954 415.227C341.687 415.227 341.448 415.285 341.237 415.401C341.029 415.517 340.864 415.687 340.743 415.909C340.623 416.132 340.562 416.402 340.562 416.719ZM347.179 420.128C346.833 420.128 346.519 420.063 346.238 419.933C345.956 419.8 345.732 419.609 345.567 419.361C345.401 419.11 345.318 418.807 345.318 418.452C345.318 418.139 345.38 417.886 345.503 417.692C345.626 417.495 345.79 417.341 345.996 417.23C346.202 417.119 346.43 417.036 346.678 416.982C346.929 416.925 347.181 416.88 347.434 416.847C347.766 416.804 348.035 416.772 348.241 416.751C348.449 416.727 348.6 416.688 348.695 416.634C348.792 416.579 348.841 416.484 348.841 416.349V416.321C348.841 415.971 348.745 415.698 348.553 415.504C348.364 415.31 348.076 415.213 347.69 415.213C347.29 415.213 346.976 415.301 346.749 415.476C346.522 415.651 346.362 415.838 346.27 416.037L345.474 415.753C345.616 415.421 345.806 415.163 346.042 414.979C346.282 414.792 346.542 414.661 346.824 414.588C347.108 414.512 347.387 414.474 347.662 414.474C347.837 414.474 348.038 414.496 348.265 414.538C348.495 414.579 348.716 414.663 348.93 414.79C349.145 414.918 349.324 415.111 349.466 415.369C349.608 415.627 349.679 415.973 349.679 416.406V420H348.841V419.261H348.798C348.741 419.38 348.647 419.506 348.514 419.641C348.381 419.776 348.205 419.891 347.985 419.986C347.765 420.08 347.496 420.128 347.179 420.128ZM347.307 419.375C347.638 419.375 347.917 419.31 348.145 419.18C348.374 419.049 348.547 418.881 348.663 418.675C348.782 418.469 348.841 418.253 348.841 418.026V417.259C348.805 417.301 348.727 417.34 348.606 417.376C348.488 417.409 348.351 417.438 348.194 417.464C348.041 417.488 347.89 417.509 347.743 417.528C347.599 417.545 347.482 417.559 347.392 417.571C347.174 417.599 346.97 417.646 346.781 417.71C346.594 417.771 346.443 417.865 346.327 417.99C346.213 418.113 346.156 418.281 346.156 418.494C346.156 418.786 346.264 419.006 346.479 419.155C346.697 419.302 346.973 419.375 347.307 419.375ZM352.047 412.727V420H351.208V412.727H352.047ZM356.806 420H355.883L358.553 412.727H359.462L362.133 420H361.209L359.036 413.878H358.979L356.806 420ZM357.147 417.159H360.868V417.94H357.147V417.159ZM363.265 420V412.727H365.723C366.293 412.727 366.76 412.83 367.122 413.036C367.487 413.24 367.756 413.516 367.932 413.864C368.107 414.212 368.194 414.6 368.194 415.028C368.194 415.457 368.107 415.846 367.932 416.197C367.759 416.547 367.491 416.826 367.129 417.035C366.767 417.241 366.303 417.344 365.737 417.344H363.976V416.562H365.709C366.099 416.562 366.413 416.495 366.65 416.36C366.886 416.225 367.058 416.043 367.165 415.813C367.273 415.581 367.328 415.32 367.328 415.028C367.328 414.737 367.273 414.477 367.165 414.247C367.058 414.018 366.885 413.838 366.646 413.707C366.407 413.575 366.09 413.509 365.694 413.509H364.146V420H363.265ZM370.494 412.727V420H369.613V412.727H370.494Z" fill="#454545"/>
</g>
<rect x="180.5" y="357.5" width="255" height="89" rx="11.5" stroke="#007AFF"/>
</g>
<g clip-path="url(#clip7_5881_92689)">
<g clip-path="url(#clip8_5881_92689)">
<rect x="180" y="177" width="256" height="44" fill="white"/>
<g clip-path="url(#clip9_5881_92689)">
<g filter="url(#filter4_i_5881_92689)">
<rect x="186" y="183" width="32" height="32" rx="8" fill="#FBFBFB"/>
<rect x="186.5" y="183.5" width="31" height="31" rx="7.5" stroke="#F5F5F5"/>
<path d="M207 196H206V194H205V196H204V202H205V204H206V202H207V196ZM206 201H205V197H206V201Z" fill="#0070F3"/>
<path d="M201 195H200V193H199V195H198V200H199V202H200V200H201V195ZM200 199H199V196H200V199Z" fill="#0070F3"/>
<path d="M209 206H196C195.735 206 195.48 205.895 195.293 205.707C195.105 205.52 195 205.265 195 205V192H196V205H209V206Z" fill="#0070F3"/>
</g>
<path d="M224.959 194.273H226.557L229.335 201.057H229.438L232.216 194.273H233.814V203H232.561V196.685H232.48L229.906 202.987H228.866L226.293 196.68H226.212V203H224.959V194.273ZM237.411 203.145C236.996 203.145 236.621 203.068 236.286 202.915C235.951 202.759 235.685 202.533 235.489 202.237C235.296 201.942 235.199 201.58 235.199 201.151C235.199 200.781 235.27 200.477 235.412 200.239C235.554 200 235.746 199.811 235.988 199.672C236.229 199.533 236.499 199.428 236.797 199.357C237.096 199.286 237.4 199.232 237.709 199.195C238.101 199.149 238.419 199.112 238.664 199.084C238.908 199.053 239.086 199.003 239.196 198.935C239.307 198.866 239.363 198.756 239.363 198.602V198.572C239.363 198.2 239.257 197.912 239.047 197.707C238.84 197.503 238.53 197.401 238.118 197.401C237.689 197.401 237.351 197.496 237.104 197.686C236.86 197.874 236.691 198.082 236.597 198.312L235.4 198.04C235.542 197.642 235.749 197.321 236.022 197.077C236.297 196.83 236.614 196.651 236.972 196.54C237.33 196.426 237.706 196.369 238.101 196.369C238.363 196.369 238.64 196.401 238.932 196.463C239.228 196.523 239.503 196.634 239.759 196.795C240.017 196.957 240.229 197.189 240.394 197.49C240.559 197.788 240.641 198.176 240.641 198.653V203H239.397V202.105H239.346C239.263 202.27 239.14 202.432 238.975 202.591C238.81 202.75 238.598 202.882 238.34 202.987C238.081 203.092 237.772 203.145 237.411 203.145ZM237.688 202.122C238.04 202.122 238.341 202.053 238.591 201.913C238.844 201.774 239.036 201.592 239.167 201.368C239.3 201.141 239.367 200.898 239.367 200.639V199.795C239.321 199.841 239.233 199.884 239.103 199.923C238.975 199.96 238.829 199.993 238.664 200.021C238.499 200.047 238.338 200.071 238.182 200.094C238.026 200.114 237.895 200.131 237.79 200.145C237.543 200.176 237.317 200.229 237.113 200.303C236.911 200.376 236.749 200.483 236.627 200.622C236.507 200.759 236.448 200.94 236.448 201.168C236.448 201.483 236.564 201.722 236.797 201.884C237.03 202.043 237.327 202.122 237.688 202.122ZM242.218 203V196.455H243.45V197.494H243.518C243.637 197.142 243.847 196.865 244.148 196.663C244.452 196.459 244.796 196.357 245.18 196.357C245.259 196.357 245.353 196.359 245.461 196.365C245.572 196.371 245.658 196.378 245.721 196.386V197.605C245.67 197.591 245.579 197.575 245.448 197.558C245.318 197.538 245.187 197.528 245.056 197.528C244.755 197.528 244.487 197.592 244.251 197.72C244.018 197.845 243.833 198.02 243.697 198.244C243.56 198.466 243.492 198.719 243.492 199.003V203H242.218ZM247.875 200.78L247.867 199.224H248.089L250.696 196.455H252.222L249.248 199.608H249.047L247.875 200.78ZM246.704 203V194.273H247.978V203H246.704ZM250.837 203L248.493 199.889L249.371 198.999L252.401 203H250.837ZM255.815 203.132C255.17 203.132 254.614 202.994 254.149 202.719C253.685 202.44 253.328 202.05 253.075 201.547C252.825 201.041 252.7 200.449 252.7 199.77C252.7 199.099 252.825 198.509 253.075 197.997C253.328 197.486 253.68 197.087 254.132 196.8C254.586 196.513 255.117 196.369 255.725 196.369C256.095 196.369 256.453 196.43 256.799 196.553C257.146 196.675 257.457 196.866 257.732 197.128C258.008 197.389 258.225 197.729 258.384 198.146C258.543 198.561 258.623 199.065 258.623 199.659V200.111H253.42V199.156H257.374C257.374 198.821 257.306 198.524 257.17 198.266C257.033 198.004 256.842 197.798 256.595 197.648C256.35 197.497 256.063 197.422 255.734 197.422C255.376 197.422 255.063 197.51 254.796 197.686C254.532 197.859 254.328 198.087 254.183 198.368C254.041 198.646 253.97 198.949 253.97 199.276V200.021C253.97 200.459 254.046 200.831 254.2 201.138C254.356 201.445 254.573 201.679 254.852 201.841C255.13 202 255.455 202.08 255.828 202.08C256.069 202.08 256.289 202.045 256.488 201.977C256.687 201.906 256.859 201.801 257.004 201.662C257.149 201.523 257.259 201.351 257.336 201.146L258.542 201.364C258.445 201.719 258.272 202.03 258.022 202.297C257.775 202.561 257.464 202.767 257.089 202.915C256.717 203.06 256.292 203.132 255.815 203.132ZM262.972 196.455V197.477H259.397V196.455H262.972ZM260.356 194.886H261.63V201.078C261.63 201.325 261.667 201.511 261.741 201.636C261.814 201.759 261.91 201.842 262.026 201.888C262.145 201.93 262.275 201.952 262.414 201.952C262.516 201.952 262.606 201.945 262.682 201.93C262.759 201.916 262.819 201.905 262.861 201.896L263.091 202.949C263.018 202.977 262.912 203.006 262.776 203.034C262.64 203.065 262.469 203.082 262.265 203.085C261.929 203.091 261.617 203.031 261.327 202.906C261.037 202.781 260.803 202.588 260.624 202.327C260.445 202.065 260.356 201.737 260.356 201.342V194.886ZM270.245 203H267.42V194.273H270.334C271.189 194.273 271.924 194.447 272.537 194.797C273.151 195.143 273.621 195.642 273.948 196.293C274.278 196.94 274.442 197.717 274.442 198.624C274.442 199.533 274.276 200.314 273.944 200.967C273.614 201.621 273.137 202.124 272.512 202.476C271.887 202.825 271.131 203 270.245 203ZM268.736 201.849H270.172C270.837 201.849 271.39 201.724 271.83 201.474C272.27 201.222 272.6 200.857 272.819 200.379C273.037 199.899 273.147 199.314 273.147 198.624C273.147 197.939 273.037 197.358 272.819 196.881C272.603 196.403 272.28 196.041 271.851 195.794C271.422 195.547 270.89 195.423 270.253 195.423H268.736V201.849ZM277.762 203.145C277.348 203.145 276.973 203.068 276.637 202.915C276.302 202.759 276.036 202.533 275.84 202.237C275.647 201.942 275.551 201.58 275.551 201.151C275.551 200.781 275.622 200.477 275.764 200.239C275.906 200 276.098 199.811 276.339 199.672C276.58 199.533 276.85 199.428 277.149 199.357C277.447 199.286 277.751 199.232 278.061 199.195C278.453 199.149 278.771 199.112 279.015 199.084C279.259 199.053 279.437 199.003 279.548 198.935C279.659 198.866 279.714 198.756 279.714 198.602V198.572C279.714 198.2 279.609 197.912 279.399 197.707C279.191 197.503 278.882 197.401 278.47 197.401C278.041 197.401 277.703 197.496 277.455 197.686C277.211 197.874 277.042 198.082 276.948 198.312L275.751 198.04C275.893 197.642 276.1 197.321 276.373 197.077C276.649 196.83 276.965 196.651 277.323 196.54C277.681 196.426 278.058 196.369 278.453 196.369C278.714 196.369 278.991 196.401 279.284 196.463C279.579 196.523 279.855 196.634 280.11 196.795C280.369 196.957 280.58 197.189 280.745 197.49C280.91 197.788 280.992 198.176 280.992 198.653V203H279.748V202.105H279.697C279.615 202.27 279.491 202.432 279.326 202.591C279.161 202.75 278.95 202.882 278.691 202.987C278.433 203.092 278.123 203.145 277.762 203.145ZM278.039 202.122C278.392 202.122 278.693 202.053 278.943 201.913C279.196 201.774 279.387 201.592 279.518 201.368C279.652 201.141 279.718 200.898 279.718 200.639V199.795C279.673 199.841 279.585 199.884 279.454 199.923C279.326 199.96 279.18 199.993 279.015 200.021C278.85 200.047 278.69 200.071 278.534 200.094C278.377 200.114 278.247 200.131 278.142 200.145C277.894 200.176 277.669 200.229 277.464 200.303C277.262 200.376 277.1 200.483 276.978 200.622C276.859 200.759 276.799 200.94 276.799 201.168C276.799 201.483 276.916 201.722 277.149 201.884C277.382 202.043 277.678 202.122 278.039 202.122ZM285.625 196.455V197.477H282.05V196.455H285.625ZM283.008 194.886H284.283V201.078C284.283 201.325 284.32 201.511 284.393 201.636C284.467 201.759 284.562 201.842 284.679 201.888C284.798 201.93 284.927 201.952 285.067 201.952C285.169 201.952 285.258 201.945 285.335 201.93C285.412 201.916 285.471 201.905 285.514 201.896L285.744 202.949C285.67 202.977 285.565 203.006 285.429 203.034C285.293 203.065 285.122 203.082 284.918 203.085C284.582 203.091 284.27 203.031 283.98 202.906C283.69 202.781 283.456 202.588 283.277 202.327C283.098 202.065 283.008 201.737 283.008 201.342V194.886ZM288.819 203.145C288.404 203.145 288.029 203.068 287.694 202.915C287.359 202.759 287.093 202.533 286.897 202.237C286.704 201.942 286.608 201.58 286.608 201.151C286.608 200.781 286.679 200.477 286.821 200.239C286.963 200 287.154 199.811 287.396 199.672C287.637 199.533 287.907 199.428 288.206 199.357C288.504 199.286 288.808 199.232 289.117 199.195C289.51 199.149 289.828 199.112 290.072 199.084C290.316 199.053 290.494 199.003 290.605 198.935C290.715 198.866 290.771 198.756 290.771 198.602V198.572C290.771 198.2 290.666 197.912 290.456 197.707C290.248 197.503 289.938 197.401 289.527 197.401C289.098 197.401 288.76 197.496 288.512 197.686C288.268 197.874 288.099 198.082 288.005 198.312L286.808 198.04C286.95 197.642 287.157 197.321 287.43 197.077C287.706 196.83 288.022 196.651 288.38 196.54C288.738 196.426 289.115 196.369 289.51 196.369C289.771 196.369 290.048 196.401 290.34 196.463C290.636 196.523 290.912 196.634 291.167 196.795C291.426 196.957 291.637 197.189 291.802 197.49C291.967 197.788 292.049 198.176 292.049 198.653V203H290.805V202.105H290.754C290.671 202.27 290.548 202.432 290.383 202.591C290.218 202.75 290.007 202.882 289.748 202.987C289.49 203.092 289.18 203.145 288.819 203.145ZM289.096 202.122C289.448 202.122 289.75 202.053 290 201.913C290.252 201.774 290.444 201.592 290.575 201.368C290.708 201.141 290.775 200.898 290.775 200.639V199.795C290.73 199.841 290.642 199.884 290.511 199.923C290.383 199.96 290.237 199.993 290.072 200.021C289.907 200.047 289.747 200.071 289.59 200.094C289.434 200.114 289.304 200.131 289.198 200.145C288.951 200.176 288.725 200.229 288.521 200.303C288.319 200.376 288.157 200.483 288.035 200.622C287.916 200.759 287.856 200.94 287.856 201.168C287.856 201.483 287.973 201.722 288.206 201.884C288.438 202.043 288.735 202.122 289.096 202.122Z" fill="#454545"/>
</g>
<g filter="url(#filter5_i_5881_92689)">
<rect x="386" y="183" width="45" height="32" rx="8" fill="#FBFBFB"/>
<rect x="386.5" y="183.5" width="44" height="31" rx="7.5" stroke="#F5F5F5"/>
<path d="M395.057 203V194.273H398.006C398.688 194.273 399.247 194.389 399.685 194.622C400.122 194.852 400.446 195.169 400.656 195.572C400.866 195.976 400.972 196.435 400.972 196.949C400.972 197.463 400.866 197.919 400.656 198.317C400.446 198.714 400.124 199.027 399.689 199.254C399.254 199.479 398.699 199.591 398.023 199.591H395.636V198.636H397.989C398.455 198.636 398.83 198.568 399.114 198.432C399.401 198.295 399.608 198.102 399.736 197.852C399.866 197.599 399.932 197.298 399.932 196.949C399.932 196.599 399.866 196.294 399.736 196.033C399.605 195.771 399.396 195.57 399.109 195.428C398.822 195.283 398.443 195.21 397.972 195.21H396.114V203H395.057ZM399.165 199.08L401.312 203H400.085L397.972 199.08H399.165ZM405.15 203.136C404.52 203.136 403.976 202.997 403.518 202.719C403.064 202.438 402.713 202.045 402.466 201.543C402.221 201.037 402.099 200.449 402.099 199.778C402.099 199.108 402.221 198.517 402.466 198.006C402.713 197.491 403.056 197.091 403.497 196.804C403.94 196.514 404.457 196.369 405.048 196.369C405.389 196.369 405.726 196.426 406.058 196.54C406.39 196.653 406.693 196.838 406.966 197.094C407.238 197.347 407.456 197.682 407.618 198.099C407.78 198.517 407.86 199.031 407.86 199.642V200.068H402.815V199.199H406.838C406.838 198.83 406.764 198.5 406.616 198.21C406.471 197.92 406.264 197.692 405.994 197.524C405.727 197.357 405.412 197.273 405.048 197.273C404.647 197.273 404.301 197.372 404.008 197.571C403.718 197.767 403.495 198.023 403.339 198.338C403.183 198.653 403.105 198.991 403.105 199.352V199.932C403.105 200.426 403.19 200.845 403.36 201.189C403.534 201.53 403.774 201.79 404.081 201.969C404.387 202.145 404.744 202.233 405.15 202.233C405.414 202.233 405.653 202.196 405.866 202.122C406.082 202.045 406.268 201.932 406.424 201.781C406.581 201.628 406.701 201.437 406.787 201.21L407.758 201.483C407.656 201.812 407.484 202.102 407.243 202.352C407.001 202.599 406.703 202.793 406.348 202.932C405.993 203.068 405.593 203.136 405.15 203.136ZM411.196 203.153C410.782 203.153 410.405 203.075 410.067 202.919C409.729 202.76 409.461 202.531 409.262 202.233C409.063 201.932 408.963 201.568 408.963 201.142C408.963 200.767 409.037 200.463 409.185 200.23C409.333 199.994 409.53 199.81 409.777 199.676C410.025 199.543 410.297 199.443 410.596 199.378C410.897 199.31 411.199 199.256 411.503 199.216C411.901 199.165 412.223 199.126 412.471 199.101C412.721 199.072 412.902 199.026 413.016 198.96C413.133 198.895 413.191 198.781 413.191 198.619V198.585C413.191 198.165 413.076 197.838 412.846 197.605C412.618 197.372 412.273 197.256 411.81 197.256C411.33 197.256 410.954 197.361 410.681 197.571C410.408 197.781 410.216 198.006 410.106 198.244L409.151 197.903C409.321 197.506 409.549 197.196 409.833 196.974C410.12 196.75 410.432 196.594 410.77 196.506C411.111 196.415 411.446 196.369 411.776 196.369C411.986 196.369 412.228 196.395 412.5 196.446C412.776 196.494 413.042 196.595 413.297 196.749C413.556 196.902 413.77 197.134 413.941 197.443C414.111 197.753 414.196 198.168 414.196 198.688V203H413.191V202.114H413.14C413.071 202.256 412.958 202.408 412.799 202.57C412.64 202.732 412.428 202.869 412.164 202.983C411.9 203.097 411.577 203.153 411.196 203.153ZM411.35 202.25C411.748 202.25 412.083 202.172 412.356 202.016C412.631 201.859 412.838 201.658 412.978 201.411C413.12 201.163 413.191 200.903 413.191 200.631V199.71C413.148 199.761 413.054 199.808 412.91 199.851C412.767 199.891 412.603 199.926 412.415 199.957C412.231 199.986 412.05 200.011 411.874 200.034C411.701 200.054 411.56 200.071 411.452 200.085C411.191 200.119 410.946 200.175 410.719 200.251C410.495 200.325 410.313 200.437 410.174 200.588C410.037 200.736 409.969 200.937 409.969 201.193C409.969 201.543 410.098 201.807 410.357 201.986C410.618 202.162 410.949 202.25 411.35 202.25ZM418.384 203.136C417.838 203.136 417.357 202.999 416.939 202.723C416.521 202.445 416.195 202.053 415.959 201.547C415.723 201.038 415.605 200.438 415.605 199.744C415.605 199.057 415.723 198.46 415.959 197.955C416.195 197.449 416.523 197.058 416.943 196.783C417.364 196.507 417.85 196.369 418.401 196.369C418.827 196.369 419.163 196.44 419.411 196.582C419.661 196.722 419.851 196.881 419.982 197.06C420.115 197.236 420.219 197.381 420.293 197.494H420.378V194.273H421.384V203H420.412V201.994H420.293C420.219 202.114 420.114 202.264 419.977 202.446C419.841 202.625 419.646 202.786 419.394 202.928C419.141 203.067 418.804 203.136 418.384 203.136ZM418.52 202.233C418.923 202.233 419.264 202.128 419.543 201.918C419.821 201.705 420.033 201.411 420.178 201.036C420.323 200.658 420.395 200.222 420.395 199.727C420.395 199.239 420.324 198.811 420.182 198.445C420.04 198.075 419.83 197.788 419.551 197.584C419.273 197.376 418.929 197.273 418.52 197.273C418.094 197.273 417.739 197.382 417.455 197.601C417.173 197.817 416.962 198.111 416.82 198.483C416.68 198.852 416.611 199.267 416.611 199.727C416.611 200.193 416.682 200.616 416.824 200.997C416.969 201.375 417.182 201.676 417.463 201.901C417.747 202.122 418.1 202.233 418.52 202.233Z" fill="#0070F3"/>
</g>
</g>
<rect x="180.5" y="177.5" width="255" height="43" stroke="#F5F5F5"/>
<path d="M180 221H436V263C436 265.209 434.209 267 432 267H184C181.791 267 180 265.209 180 263V221Z" fill="white"/>
<path d="M188.881 240V232.727H191.338C191.906 232.727 192.373 232.824 192.737 233.018C193.102 233.21 193.372 233.474 193.547 233.81C193.722 234.147 193.81 234.529 193.81 234.957C193.81 235.386 193.722 235.766 193.547 236.097C193.372 236.429 193.103 236.689 192.741 236.879C192.379 237.066 191.916 237.159 191.352 237.159H189.364V236.364H191.324C191.712 236.364 192.025 236.307 192.261 236.193C192.5 236.08 192.673 235.919 192.78 235.71C192.889 235.5 192.943 235.249 192.943 234.957C192.943 234.666 192.889 234.412 192.78 234.194C192.671 233.976 192.497 233.808 192.258 233.69C192.019 233.569 191.703 233.509 191.31 233.509H189.761V240H188.881ZM192.304 236.733L194.094 240H193.071L191.31 236.733H192.304ZM197.392 240.114C196.866 240.114 196.413 239.998 196.032 239.766C195.653 239.531 195.361 239.205 195.155 238.786C194.951 238.364 194.849 237.874 194.849 237.315C194.849 236.757 194.951 236.264 195.155 235.838C195.361 235.41 195.647 235.076 196.014 234.837C196.383 234.595 196.814 234.474 197.307 234.474C197.591 234.474 197.871 234.522 198.148 234.616C198.425 234.711 198.677 234.865 198.905 235.078C199.132 235.289 199.313 235.568 199.448 235.916C199.583 236.264 199.65 236.693 199.65 237.202V237.557H195.446V236.832H198.798C198.798 236.525 198.737 236.25 198.613 236.009C198.493 235.767 198.32 235.576 198.095 235.437C197.872 235.297 197.61 235.227 197.307 235.227C196.973 235.227 196.684 235.31 196.44 235.476C196.199 235.639 196.013 235.852 195.883 236.115C195.752 236.378 195.687 236.66 195.687 236.96V237.443C195.687 237.855 195.758 238.204 195.9 238.491C196.045 238.775 196.245 238.991 196.501 239.141C196.756 239.287 197.053 239.361 197.392 239.361C197.612 239.361 197.811 239.33 197.988 239.268C198.168 239.205 198.323 239.11 198.454 238.984C198.584 238.857 198.684 238.698 198.756 238.509L199.565 238.736C199.48 239.01 199.337 239.252 199.135 239.46C198.934 239.666 198.686 239.827 198.39 239.943C198.094 240.057 197.761 240.114 197.392 240.114ZM202.53 240.128C202.185 240.128 201.871 240.063 201.589 239.933C201.308 239.8 201.084 239.609 200.918 239.361C200.752 239.11 200.67 238.807 200.67 238.452C200.67 238.139 200.731 237.886 200.854 237.692C200.977 237.495 201.142 237.341 201.348 237.23C201.554 237.119 201.781 237.036 202.03 236.982C202.281 236.925 202.533 236.88 202.786 236.847C203.117 236.804 203.386 236.772 203.592 236.751C203.8 236.727 203.952 236.688 204.047 236.634C204.144 236.579 204.192 236.484 204.192 236.349V236.321C204.192 235.971 204.096 235.698 203.905 235.504C203.715 235.31 203.428 235.213 203.042 235.213C202.642 235.213 202.328 235.301 202.101 235.476C201.873 235.651 201.714 235.838 201.621 236.037L200.826 235.753C200.968 235.421 201.157 235.163 201.394 234.979C201.633 234.792 201.894 234.661 202.175 234.588C202.459 234.512 202.739 234.474 203.013 234.474C203.189 234.474 203.39 234.496 203.617 234.538C203.847 234.579 204.068 234.663 204.281 234.79C204.497 234.918 204.675 235.111 204.817 235.369C204.959 235.627 205.03 235.973 205.03 236.406V240H204.192V239.261H204.15C204.093 239.38 203.998 239.506 203.866 239.641C203.733 239.776 203.557 239.891 203.336 239.986C203.116 240.08 202.848 240.128 202.53 240.128ZM202.658 239.375C202.99 239.375 203.269 239.31 203.496 239.18C203.726 239.049 203.899 238.881 204.015 238.675C204.133 238.469 204.192 238.253 204.192 238.026V237.259C204.157 237.301 204.079 237.34 203.958 237.376C203.84 237.409 203.702 237.438 203.546 237.464C203.392 237.488 203.242 237.509 203.095 237.528C202.951 237.545 202.833 237.559 202.743 237.571C202.526 237.599 202.322 237.646 202.133 237.71C201.946 237.771 201.794 237.865 201.678 237.99C201.564 238.113 201.508 238.281 201.508 238.494C201.508 238.786 201.615 239.006 201.831 239.155C202.049 239.302 202.324 239.375 202.658 239.375ZM208.62 240.114C208.165 240.114 207.764 239.999 207.416 239.769C207.068 239.537 206.796 239.21 206.599 238.789C206.403 238.365 206.304 237.865 206.304 237.287C206.304 236.714 206.403 236.217 206.599 235.795C206.796 235.374 207.069 235.049 207.419 234.819C207.77 234.589 208.175 234.474 208.634 234.474C208.989 234.474 209.27 234.534 209.475 234.652C209.684 234.768 209.842 234.901 209.951 235.05C210.063 235.196 210.149 235.317 210.211 235.412H210.282V232.727H211.12V240H210.31V239.162H210.211C210.149 239.261 210.061 239.387 209.948 239.538C209.834 239.687 209.672 239.821 209.461 239.94C209.251 240.056 208.97 240.114 208.62 240.114ZM208.733 239.361C209.069 239.361 209.354 239.273 209.586 239.098C209.818 238.92 209.994 238.675 210.115 238.363C210.235 238.048 210.296 237.685 210.296 237.273C210.296 236.866 210.237 236.509 210.118 236.204C210 235.896 209.825 235.657 209.593 235.487C209.361 235.314 209.074 235.227 208.733 235.227C208.378 235.227 208.082 235.318 207.846 235.501C207.611 235.681 207.435 235.926 207.316 236.236C207.2 236.544 207.142 236.889 207.142 237.273C207.142 237.661 207.202 238.014 207.32 238.331C207.441 238.646 207.618 238.897 207.853 239.084C208.089 239.268 208.383 239.361 208.733 239.361ZM215.697 240V232.727H218.24C218.746 232.727 219.164 232.815 219.493 232.99C219.822 233.163 220.067 233.396 220.228 233.69C220.389 233.981 220.47 234.304 220.47 234.659C220.47 234.972 220.414 235.23 220.303 235.433C220.194 235.637 220.05 235.798 219.87 235.916C219.692 236.035 219.499 236.122 219.291 236.179V236.25C219.513 236.264 219.737 236.342 219.962 236.484C220.187 236.626 220.375 236.83 220.527 237.095C220.678 237.36 220.754 237.685 220.754 238.068C220.754 238.433 220.671 238.761 220.505 239.052C220.34 239.343 220.078 239.574 219.721 239.744C219.363 239.915 218.898 240 218.325 240H215.697ZM216.578 239.219H218.325C218.9 239.219 219.309 239.107 219.55 238.885C219.794 238.66 219.916 238.388 219.916 238.068C219.916 237.822 219.853 237.595 219.728 237.386C219.602 237.176 219.423 237.008 219.191 236.882C218.959 236.754 218.685 236.69 218.368 236.69H216.578V239.219ZM216.578 235.923H218.211C218.476 235.923 218.716 235.871 218.929 235.767C219.144 235.663 219.315 235.516 219.44 235.327C219.568 235.137 219.632 234.915 219.632 234.659C219.632 234.339 219.52 234.068 219.298 233.846C219.075 233.621 218.723 233.509 218.24 233.509H216.578V235.923ZM221.803 233.509V232.727H227.258V233.509H224.971V240H224.09V233.509H221.803ZM234.167 235H233.286C233.234 234.747 233.143 234.524 233.012 234.332C232.885 234.141 232.728 233.98 232.544 233.849C232.361 233.717 232.159 233.617 231.936 233.551C231.714 233.485 231.482 233.452 231.24 233.452C230.8 233.452 230.401 233.563 230.044 233.786C229.689 234.008 229.406 234.336 229.195 234.769C228.987 235.202 228.882 235.734 228.882 236.364C228.882 236.993 228.987 237.525 229.195 237.958C229.406 238.391 229.689 238.719 230.044 238.942C230.401 239.164 230.8 239.276 231.24 239.276C231.482 239.276 231.714 239.242 231.936 239.176C232.159 239.11 232.361 239.012 232.544 238.881C232.728 238.749 232.885 238.587 233.012 238.395C233.143 238.201 233.234 237.978 233.286 237.727H234.167C234.1 238.099 233.98 238.432 233.804 238.725C233.629 239.019 233.411 239.268 233.151 239.474C232.891 239.678 232.598 239.833 232.274 239.94C231.952 240.046 231.607 240.099 231.24 240.099C230.62 240.099 230.069 239.948 229.586 239.645C229.103 239.342 228.723 238.911 228.446 238.352C228.169 237.794 228.03 237.131 228.03 236.364C228.03 235.597 228.169 234.934 228.446 234.375C228.723 233.816 229.103 233.385 229.586 233.082C230.069 232.779 230.62 232.628 231.24 232.628C231.607 232.628 231.952 232.681 232.274 232.788C232.598 232.894 232.891 233.05 233.151 233.256C233.411 233.46 233.629 233.709 233.804 234.002C233.98 234.293 234.1 234.626 234.167 235ZM238.289 242.045V234.545H239.098V235.412H239.198C239.259 235.317 239.344 235.196 239.453 235.05C239.565 234.901 239.723 234.768 239.929 234.652C240.137 234.534 240.419 234.474 240.774 234.474C241.234 234.474 241.638 234.589 241.989 234.819C242.339 235.049 242.613 235.374 242.809 235.795C243.006 236.217 243.104 236.714 243.104 237.287C243.104 237.865 243.006 238.365 242.809 238.789C242.613 239.21 242.34 239.537 241.992 239.769C241.644 239.999 241.243 240.114 240.789 240.114C240.438 240.114 240.158 240.056 239.947 239.94C239.736 239.821 239.574 239.687 239.46 239.538C239.347 239.387 239.259 239.261 239.198 239.162H239.127V242.045H238.289ZM239.112 237.273C239.112 237.685 239.173 238.048 239.294 238.363C239.414 238.675 239.591 238.92 239.823 239.098C240.055 239.273 240.339 239.361 240.675 239.361C241.025 239.361 241.318 239.268 241.552 239.084C241.789 238.897 241.966 238.646 242.085 238.331C242.205 238.014 242.266 237.661 242.266 237.273C242.266 236.889 242.207 236.544 242.088 236.236C241.972 235.926 241.796 235.681 241.559 235.501C241.325 235.318 241.03 235.227 240.675 235.227C240.334 235.227 240.048 235.314 239.816 235.487C239.584 235.657 239.408 235.896 239.29 236.204C239.172 236.509 239.112 236.866 239.112 237.273ZM244.382 240V234.545H245.192V235.369H245.249C245.348 235.099 245.528 234.88 245.789 234.712C246.049 234.544 246.343 234.46 246.669 234.46C246.731 234.46 246.808 234.461 246.9 234.464C246.992 234.466 247.062 234.47 247.11 234.474V235.327C247.081 235.32 247.016 235.309 246.914 235.295C246.815 235.278 246.709 235.27 246.598 235.27C246.333 235.27 246.096 235.326 245.888 235.437C245.682 235.546 245.519 235.697 245.398 235.891C245.28 236.083 245.22 236.302 245.22 236.548V240H244.382ZM248.103 240V234.545H248.941V240H248.103ZM248.529 233.636C248.366 233.636 248.225 233.581 248.107 233.469C247.991 233.358 247.933 233.224 247.933 233.068C247.933 232.912 247.991 232.778 248.107 232.667C248.225 232.556 248.366 232.5 248.529 232.5C248.692 232.5 248.832 232.556 248.948 232.667C249.067 232.778 249.126 232.912 249.126 233.068C249.126 233.224 249.067 233.358 248.948 233.469C248.832 233.581 248.692 233.636 248.529 233.636ZM252.692 240.114C252.181 240.114 251.74 239.993 251.371 239.751C251.002 239.51 250.718 239.177 250.519 238.754C250.32 238.33 250.22 237.846 250.22 237.301C250.22 236.747 250.322 236.258 250.526 235.835C250.732 235.408 251.018 235.076 251.385 234.837C251.754 234.595 252.185 234.474 252.678 234.474C253.061 234.474 253.407 234.545 253.715 234.688C254.022 234.83 254.275 235.028 254.471 235.284C254.668 235.54 254.789 235.838 254.837 236.179H253.999C253.935 235.93 253.793 235.71 253.573 235.518C253.355 235.324 253.061 235.227 252.692 235.227C252.365 235.227 252.079 235.312 251.833 235.483C251.589 235.651 251.398 235.889 251.261 236.197C251.126 236.502 251.058 236.861 251.058 237.273C251.058 237.694 251.125 238.061 251.257 238.374C251.392 238.686 251.582 238.929 251.825 239.102C252.072 239.274 252.36 239.361 252.692 239.361C252.91 239.361 253.107 239.323 253.285 239.247C253.463 239.171 253.613 239.062 253.736 238.92C253.859 238.778 253.947 238.608 253.999 238.409H254.837C254.789 238.731 254.672 239.021 254.485 239.279C254.301 239.535 254.056 239.738 253.75 239.89C253.447 240.039 253.094 240.114 252.692 240.114ZM258.349 240.114C257.823 240.114 257.37 239.998 256.989 239.766C256.61 239.531 256.318 239.205 256.112 238.786C255.908 238.364 255.806 237.874 255.806 237.315C255.806 236.757 255.908 236.264 256.112 235.838C256.318 235.41 256.604 235.076 256.971 234.837C257.34 234.595 257.771 234.474 258.264 234.474C258.548 234.474 258.828 234.522 259.105 234.616C259.382 234.711 259.634 234.865 259.862 235.078C260.089 235.289 260.27 235.568 260.405 235.916C260.54 236.264 260.607 236.693 260.607 237.202V237.557H256.403V236.832H259.755C259.755 236.525 259.694 236.25 259.57 236.009C259.45 235.767 259.277 235.576 259.052 235.437C258.829 235.297 258.567 235.227 258.264 235.227C257.93 235.227 257.641 235.31 257.397 235.476C257.156 235.639 256.97 235.852 256.84 236.115C256.709 236.378 256.644 236.66 256.644 236.96V237.443C256.644 237.855 256.715 238.204 256.857 238.491C257.002 238.775 257.202 238.991 257.458 239.141C257.713 239.287 258.01 239.361 258.349 239.361C258.569 239.361 258.768 239.33 258.945 239.268C259.125 239.205 259.28 239.11 259.411 238.984C259.541 238.857 259.642 238.698 259.713 238.509L260.522 238.736C260.437 239.01 260.294 239.252 260.093 239.46C259.891 239.666 259.643 239.827 259.347 239.943C259.051 240.057 258.718 240.114 258.349 240.114Z" fill="#454545"/>
</g>
<rect x="180.5" y="177.5" width="255" height="89" rx="11.5" stroke="#F5F5F5"/>
<rect x="302.5" y="272.5" width="11" height="11" rx="5.5" transform="rotate(-90 302.5 272.5)" fill="white" stroke="#0070F3"/>
<path d="M306.89 351.75C306.752 351.75 306.654 351.919 306.723 352.039L307.833 353.961C307.902 354.081 308.098 354.081 308.167 353.961L309.277 352.039C309.346 351.919 309.248 351.75 309.11 351.75H306.89ZM306.667 273C306.667 273.736 307.264 274.333 308 274.333C308.736 274.333 309.333 273.736 309.333 273C309.333 272.264 308.736 271.667 308 271.667C307.264 271.667 306.667 272.264 306.667 273ZM308.25 352V273H307.75V352H308.25Z" fill="#4886D0"/>
<path d="M306.89 171.75C306.752 171.75 306.654 171.919 306.723 172.039L307.833 173.961C307.902 174.081 308.098 174.081 308.167 173.961L309.277 172.039C309.346 171.919 309.248 171.75 309.11 171.75H306.89ZM306.667 98C306.667 98.7364 307.264 99.3333 308 99.3333C308.736 99.3333 309.333 98.7364 309.333 98C309.333 97.2636 308.736 96.6667 308 96.6667C307.264 96.6667 306.667 97.2636 306.667 98ZM308.25 172V98H307.75V172H308.25Z" fill="#4886D0"/>
<defs>
<filter id="filter0_i_5881_92689" x="186" y="8" width="34" height="34" filterUnits="userSpaceOnUse" color-interpolation-filters="sRGB">
<feFlood flood-opacity="0" result="BackgroundImageFix"/>
<feBlend mode="normal" in="SourceGraphic" in2="BackgroundImageFix" result="shape"/>
<feColorMatrix in="SourceAlpha" type="matrix" values="0 0 0 0 0 0 0 0 0 0 0 0 0 0 0 0 0 0 127 0" result="hardAlpha"/>
<feMorphology radius="1" operator="erode" in="SourceAlpha" result="effect1_innerShadow_5881_92689"/>
<feOffset/>
<feComposite in2="hardAlpha" operator="arithmetic" k2="-1" k3="1"/>
<feColorMatrix type="matrix" values="0 0 0 0 0.901961 0 0 0 0 0.905882 0 0 0 0 0.917647 0 0 0 1 0"/>
<feBlend mode="normal" in2="shape" result="effect1_innerShadow_5881_92689"/>
</filter>
<filter id="filter1_i_5881_92689" x="373" y="9" width="56" height="32" filterUnits="userSpaceOnUse" color-interpolation-filters="sRGB">
<feFlood flood-opacity="0" result="BackgroundImageFix"/>
<feBlend mode="normal" in="SourceGraphic" in2="BackgroundImageFix" result="shape"/>
<feColorMatrix in="SourceAlpha" type="matrix" values="0 0 0 0 0 0 0 0 0 0 0 0 0 0 0 0 0 0 127 0" result="hardAlpha"/>
<feMorphology radius="1" operator="erode" in="SourceAlpha" result="effect1_innerShadow_5881_92689"/>
<feOffset/>
<feComposite in2="hardAlpha" operator="arithmetic" k2="-1" k3="1"/>
<feColorMatrix type="matrix" values="0 0 0 0 0.901961 0 0 0 0 0.905882 0 0 0 0 0.917647 0 0 0 1 0"/>
<feBlend mode="normal" in2="shape" result="effect1_innerShadow_5881_92689"/>
</filter>
<filter id="filter2_i_5881_92689" x="186" y="363" width="32" height="32" filterUnits="userSpaceOnUse" color-interpolation-filters="sRGB">
<feFlood flood-opacity="0" result="BackgroundImageFix"/>
<feBlend mode="normal" in="SourceGraphic" in2="BackgroundImageFix" result="shape"/>
<feColorMatrix in="SourceAlpha" type="matrix" values="0 0 0 0 0 0 0 0 0 0 0 0 0 0 0 0 0 0 127 0" result="hardAlpha"/>
<feMorphology radius="1" operator="erode" in="SourceAlpha" result="effect1_innerShadow_5881_92689"/>
<feOffset/>
<feComposite in2="hardAlpha" operator="arithmetic" k2="-1" k3="1"/>
<feColorMatrix type="matrix" values="0 0 0 0 0.901961 0 0 0 0 0.905882 0 0 0 0 0.917647 0 0 0 1 0"/>
<feBlend mode="normal" in2="shape" result="effect1_innerShadow_5881_92689"/>
</filter>
<filter id="filter3_i_5881_92689" x="383" y="363" width="46" height="32" filterUnits="userSpaceOnUse" color-interpolation-filters="sRGB">
<feFlood flood-opacity="0" result="BackgroundImageFix"/>
<feBlend mode="normal" in="SourceGraphic" in2="BackgroundImageFix" result="shape"/>
<feColorMatrix in="SourceAlpha" type="matrix" values="0 0 0 0 0 0 0 0 0 0 0 0 0 0 0 0 0 0 127 0" result="hardAlpha"/>
<feMorphology radius="1" operator="erode" in="SourceAlpha" result="effect1_innerShadow_5881_92689"/>
<feOffset/>
<feComposite in2="hardAlpha" operator="arithmetic" k2="-1" k3="1"/>
<feColorMatrix type="matrix" values="0 0 0 0 0.901961 0 0 0 0 0.905882 0 0 0 0 0.917647 0 0 0 1 0"/>
<feBlend mode="normal" in2="shape" result="effect1_innerShadow_5881_92689"/>
</filter>
<filter id="filter4_i_5881_92689" x="186" y="183" width="32" height="32" filterUnits="userSpaceOnUse" color-interpolation-filters="sRGB">
<feFlood flood-opacity="0" result="BackgroundImageFix"/>
<feBlend mode="normal" in="SourceGraphic" in2="BackgroundImageFix" result="shape"/>
<feColorMatrix in="SourceAlpha" type="matrix" values="0 0 0 0 0 0 0 0 0 0 0 0 0 0 0 0 0 0 127 0" result="hardAlpha"/>
<feMorphology radius="1" operator="erode" in="SourceAlpha" result="effect1_innerShadow_5881_92689"/>
<feOffset/>
<feComposite in2="hardAlpha" operator="arithmetic" k2="-1" k3="1"/>
<feColorMatrix type="matrix" values="0 0 0 0 0.901961 0 0 0 0 0.905882 0 0 0 0 0.917647 0 0 0 1 0"/>
<feBlend mode="normal" in2="shape" result="effect1_innerShadow_5881_92689"/>
</filter>
<filter id="filter5_i_5881_92689" x="386" y="183" width="45" height="32" filterUnits="userSpaceOnUse" color-interpolation-filters="sRGB">
<feFlood flood-opacity="0" result="BackgroundImageFix"/>
<feBlend mode="normal" in="SourceGraphic" in2="BackgroundImageFix" result="shape"/>
<feColorMatrix in="SourceAlpha" type="matrix" values="0 0 0 0 0 0 0 0 0 0 0 0 0 0 0 0 0 0 127 0" result="hardAlpha"/>
<feMorphology radius="1" operator="erode" in="SourceAlpha" result="effect1_innerShadow_5881_92689"/>
<feOffset/>
<feComposite in2="hardAlpha" operator="arithmetic" k2="-1" k3="1"/>
<feColorMatrix type="matrix" values="0 0 0 0 0.901961 0 0 0 0 0.905882 0 0 0 0 0.917647 0 0 0 1 0"/>
<feBlend mode="normal" in2="shape" result="effect1_innerShadow_5881_92689"/>
</filter>
<clipPath id="clip0_5881_92689">
<rect x="180" y="3" width="256" height="90" rx="12" fill="white"/>
</clipPath>
<clipPath id="clip1_5881_92689">
<path d="M180 11C180 6.58172 183.582 3 188 3H428C432.418 3 436 6.58172 436 11V47H180V11Z" fill="white"/>
</clipPath>
<clipPath id="clip2_5881_92689">
<rect width="238" height="34" fill="white" transform="translate(186 8)"/>
</clipPath>
<clipPath id="clip3_5881_92689">
<rect x="180" y="357" width="256" height="90" rx="8" fill="white"/>
</clipPath>
<clipPath id="clip4_5881_92689">
<rect x="180" y="357" width="256" height="90" rx="12" fill="white"/>
</clipPath>
<clipPath id="clip5_5881_92689">
<rect x="180" y="357" width="256" height="44" fill="white"/>
</clipPath>
<clipPath id="clip6_5881_92689">
<rect width="238" height="32" fill="white" transform="translate(186 363)"/>
</clipPath>
<clipPath id="clip7_5881_92689">
<rect x="180" y="177" width="256" height="90" rx="12" fill="white"/>
</clipPath>
<clipPath id="clip8_5881_92689">
<rect x="180" y="177" width="256" height="44" fill="white"/>
</clipPath>
<clipPath id="clip9_5881_92689">
<rect width="238" height="32" fill="white" transform="translate(186 183)"/>
</clipPath>
</defs>
</svg>
