<svg viewBox="0 0 1260 504" fill="none" xmlns="http://www.w3.org/2000/svg">
  <g clip-path="url(#a)" fill="#000" transform="translate(-240, -250)">
    <path d="m262.866 639.844-1.196-10.005c16.022-6.39 18.833-15.201 20.028-32.822 1.195-13.199 1.195-30.82 1.195-44.827V445.786c0-14.006 0-31.627-1.195-44.827-1.195-17.621-4.006-26.399-20.028-32.821l1.196-10.005c15.634 1.194 26.423 1.194 36.437 1.194h73.682c16.409 0 28.846 0 44.448-1.194 2.81 20.396 4.393 35.21 5.621 57.22l-11.629 2.001c-5.201-14.814-9.626-23.204-15.635-29.627-6.008-6.422-15.214-9.617-22.838-10.811-10.013-1.614-18.832-2.001-34.434-2.001-18.832 0-21.223 3.195-22.418 19.202-1.195 12.393-1.195 26.819-1.195 41.213v51.217c13.632 0 41.67-.807 54.462-2.001 18.025-2.001 23.645-8.391 29.654-26.819l9.626 2.001c-1.196 15.62-1.196 24.399-1.196 34.403 0 10.005 0 19.203 1.196 34.823l-9.626 2.001c-6.009-18.396-11.629-24.399-29.654-26.819-12.824-1.614-41.25-2.001-54.462-2.001v54.025c0 14.006.807 35.629 1.195 43.633.808 19.622 7.623 23.204 25.648 23.204s31.657-.387 42.446-2.001c14.019-2.001 20.415-7.616 26.423-16.007 4.813-7.617 8.819-16.008 14.019-30.821l10.822 2.001c-2.003 24.011-5.201 43.633-9.626 64.417-29.234-1.614-65.671-2.001-116.968-2.001-19.64 0-30.429 0-46.063 1.194zm226.1-125.246c5.621-15.201 6.816-22.817 6.816-26.819 0-2.389-1.195-3.615-3.198-3.615-4.006 0-12.017 6.39-30.429 28.013l-7.623-6.81c22.837-33.208 39.247-48.409 52.459-48.409 8.398 0 16.022 7.616 16.022 19.622 0 12.812-6.396 30.401-12.404 46.828l-26.036 73.615c-4.393 12.005-5.201 15.2-5.201 16.814 0 2.001 1.615 4.002 4.006 4.002 4.393 0 12.404-4.389 32.044-32.402l8.011 5.615c-21.223 41.213-39.668 52.411-53.687 52.411-9.206 0-17.217-8.003-17.217-18.395 0-9.198 2.81-18.008 12.404-44.02l24.033-66.418zm30.849-167.659c12.016 0 21.223 9.198 21.223 21.204s-9.207 21.203-21.223 21.203c-12.017 0-21.223-9.198-21.223-21.203 0-12.006 9.206-21.204 21.223-21.204m150.802 139.258c9.626 10.812 13.211 24.399 13.211 39.212 0 39.212-28.846 67.225-64.088 67.225-18.025 0-31.236-5.196-42.865-14.814-12.404 9.618-15.215 18.815-15.215 28.013 0 11.619 9.207 19.203 27.231 20.009l48.454 1.614c38.86 1.194 57.66 24.398 57.66 54.412 0 36.017-35.662 67.612-91.319 67.612-45.256 0-68.094-20.009-68.094-47.215 0-18.815 9.206-33.629 32.044-49.216-17.217-6.003-28.846-19.203-28.846-38.018 0-15.62 7.204-31.627 27.651-47.215-9.206-12.393-13.631-25.205-13.631-42.407 0-37.63 30.041-67.225 65.283-67.225 23.225 0 29.233 8.004 52.071 8.004 10.014 0 24.033-.387 38.053-1.613l3.198 6.809-3.198 14.813h-37.665zm-40.443 171.66c-18.025 0-32.432 0-48.874-1.194-14.019 13.2-19.64 26.399-19.64 38.825 0 17.201 14.827 31.627 48.454 31.627 46.063 0 62.893-19.622 62.893-38.405s-12.824-30.82-42.865-30.82zm-46.451-134.868c0 35.209 13.632 53.637 36.049 53.637 20.836 0 33.66-14.006 33.66-49.216 0-33.209-14.02-53.218-36.05-53.218-19.64 0-33.659 15.2-33.659 48.829zm217.162 39.628c38.44 0 67.706 28.401 67.706 66.838 0 3.195 0 6.002-.807 9.197H744.421c-.808 4.809-.808 9.198-.808 15.201 0 41.213 24.841 69.225 56.885 69.225 25.648 0 41.25-8.81 57.66-32.402l9.626 6.003c-12.017 30.014-35.662 54.832-71.292 54.832-50.069 0-83.308-42.407-83.308-91.236 0-55.638 38.052-97.625 87.701-97.625zm32.432 60.028c-.388-27.206-18.832-42.019-41.25-42.019-24.421 0-40.055 18.395-44.868 42.019zm202.213 46.024c0 12.393 0 26.398.81 38.823 1.19 16.395 3.62 22.817 18.41 28.82l-1.2 9.198c-14.01-1.194-22.83-1.194-32.04-1.194s-18.02 0-32.043 1.194l-1.195-9.198c14.828-6.003 16.828-12.393 18.028-28.82 1.19-12.393 1.19-26.398 1.19-38.823v-42.408c0-22.397-13.629-37.63-34.852-37.63-27.651 0-44.869 18.815-44.869 44.408v35.63c0 12.393.001 26.398.809 38.823 1.195 16.395 3.618 22.817 18.412 28.82l-1.196 9.198c-14.019-1.194-22.838-1.194-32.044-1.194s-18.025 0-32.044 1.194l-1.195-9.198c14.826-6.003 16.829-12.393 18.024-28.82 1.196-12.393 1.197-26.398 1.197-38.823v-10.005c0-12.393-.001-25.205-1.197-37.63-1.195-16.395-5.2-20.01-19.639-22.818v-8.39c18.412-8.811 28.426-15.201 42.445-28.014l8.399 3.196c-1.196 12.812-2.003 23.623-2.391 33.628l.388.387c10.821-20.397 29.653-36.403 53.686-36.403 19.637 0 36.047 9.198 45.677 24.818 5.2 9.197 8.4 19.201 8.4 35.209v46.022zM794.989 446.58c0 14.006.387 35.629 1.195 43.633 2.003 19.622 7.623 23.204 25.648 23.204s29.234 0 40.863-2.001c14.407-2.808 22.03-9.198 28.038-18.396 5.201-7.616 9.626-16.814 14.827-32.402l11.629 2.001c-2.003 25.625-5.621 46.022-10.014 68.419-31.656-1.614-66.898-2.001-118.162-2.001-19.64 0-30.429 0-46.063 1.194l-1.196-10.004c16.022-6.39 18.833-15.201 20.028-32.822 1.195-13.2 1.195-30.821 1.195-44.827V336.142c0-14.007 0-31.628-1.195-44.828-1.195-17.621-4.006-26.399-20.028-32.821l1.196-10.005c15.634 1.194 26.423 1.194 35.662 1.194 10.013 0 20.835 0 36.437-1.194l1.195 10.005c-16.022 6.39-18.832 15.2-20.028 32.821-1.195 13.2-1.195 30.821-1.195 44.828V446.58zm152.567-69.649c7.623-14.006 27.651-28.82 51.264-28.82 19.64 0 34.86 6.81 44.45 20.817 6.4 9.197 12.02 25.205 12.02 43.213v38.405c0 12.393 0 24.011.8 36.404.81 13.199 7.21 23.204 20.03 29.207l-5.2 16.007c-27.65-1.194-38.05-13.199-41.67-31.208h-.81c-10.82 24.399-28.42 34.403-46.45 34.403-25.648 0-41.67-16.814-41.67-38.017 0-18.816 9.626-30.014 25.229-40.019 14.826-9.617 41.251-19.202 61.661-24.398v-19.622c0-12.393-3.19-22.01-8.39-28.82-6.01-8.004-16.41-11.199-25.233-11.199-13.632 0-24.841 5.616-38.44 16.395l-7.623-12.812zm79.694 70.033c-8.4 2.807-15.64 6.002-23.23 9.197-27.23 11.619-35.241 23.624-35.241 34.403s6.008 20.397 20.027 20.397c16.414 0 38.444-14.394 38.444-42.02v-22.01z"/>
    <path d="m1152.67 490.99 26.42-62.028c10.82-25.206 12.41-34.403 12.41-42.02 0-8.391-2.01-14.813-14.02-21.203l1.61-9.198c11.63 1.194 18.41 1.194 27.23 1.194s14.41 0 26.04-1.194l1.19 9.198c-7.2 6.39-11.63 13.619-19.22 28.82-6 12.005-10.82 24.011-15.63 34.822l-70.9 160.074c-7.63 17.202-15.22 29.627-23.23 38.018-6.82 6.809-17.64 12.812-30.43 12.812-10.82 0-18.83-7.197-18.83-16.814 0-8.811 6.01-16.395 15.21-16.395 7.63 0 10.4 2.001 17.64 2.001 8.4 0 14.41-6.39 20.42-19.202l28.84-62.416-39.67-98.046c-4.39-11.198-9.62-26.012-16.02-40.405-6.01-13.2-8.82-16.815-18.41-23.205l1.61-9.197c11.63.806 23.65 1.194 32.44 1.194 8.78 0 16.02-.388 27.65-1.194l1.19 9.197c-8.82 4.002-12.01 9.618-12.01 16.008 0 9.198 1.61 16.814 13.63 46.828l24.84 62.416zm165.86-143.648c38.44 0 67.68 28.4 67.68 66.837 0 3.195 0 6.003-.81 9.198h-123.36c-.81 4.809-.81 9.198-.81 15.201 0 41.212 24.84 69.225 56.88 69.225 25.65 0 41.25-8.81 57.66-32.402l9.63 6.003c-12.02 30.014-35.66 54.832-71.29 54.832-50.07 0-83.31-42.407-83.31-91.236 0-55.639 38.05-97.626 87.7-97.626zm32.43 60.028c-.38-27.206-18.83-42.02-41.25-42.02-24.42 0-40.05 18.396-44.86 42.02zm130.12-33.211c-18.83 0-34.43 22.01-34.43 60.415v18.815c0 12.393 0 26.399.81 38.824 1.19 16.395 4.81 23.624 22.41 28.82l-1.19 9.198c-14.02-1.194-26.84-1.194-36.05-1.194s-18.03 0-32.04 1.194l-1.2-9.198c14.83-6.003 16.83-12.393 18.03-28.82 1.19-12.392 1.19-26.399 1.19-38.824v-10.005c0-12.392 0-25.205-1.19-37.63-1.2-16.394-5.21-20.009-19.64-22.817v-8.391c18.41-8.81 28.42-15.2 42.44-28.013l8.4 3.195c-1.2 12.813-2 28.82-2.39 38.825l.39.387c10.82-26.399 29.23-41.632 48.06-41.632 16.41 0 25.65 9.198 25.65 20.009s-6.01 14.007-14.41 14.007c-10.4 0-15.21-7.197-24.84-7.197z"/>
  </g>
 
</svg>
