<svg width="57" height="57" viewBox="0 0 57 57" fill="none" xmlns="http://www.w3.org/2000/svg">
<path d="M45.9219 28.5C45.922 25.6843 45.2379 22.9108 43.9283 20.4182L41.3101 23.0363C42.0457 24.7639 42.4239 26.6224 42.4219 28.5H45.9219Z" fill="#454545"/>
<path d="M41.3966 18L38.9219 15.5253L30.6712 23.7761C29.9704 23.434 29.2016 23.2542 28.4219 23.25C27.3835 23.25 26.3685 23.5579 25.5051 24.1348C24.6418 24.7117 23.9689 25.5316 23.5715 26.4909C23.1742 27.4502 23.0702 28.5058 23.2728 29.5242C23.4753 30.5426 23.9754 31.4781 24.7096 32.2123C25.4438 32.9466 26.3793 33.4466 27.3977 33.6491C28.4161 33.8517 29.4717 33.7477 30.431 33.3504C31.3903 32.953 32.2102 32.2801 32.7871 31.4168C33.364 30.5534 33.6719 29.5384 33.6719 28.5C33.6677 27.7203 33.4879 26.9515 33.1458 26.2507L41.3966 18ZM28.4219 30.25C28.0758 30.25 27.7374 30.1474 27.4496 29.9551C27.1619 29.7628 26.9376 29.4895 26.8051 29.1697C26.6726 28.8499 26.638 28.4981 26.7055 28.1586C26.773 27.8191 26.9397 27.5073 27.1845 27.2626C27.4292 27.0178 27.741 26.8512 28.0805 26.7836C28.4199 26.7161 28.7718 26.7508 29.0916 26.8832C29.4114 27.0157 29.6847 27.24 29.877 27.5278C30.0693 27.8156 30.1719 28.1539 30.1719 28.5C30.1713 28.964 29.9867 29.4087 29.6587 29.7368C29.3306 30.0648 28.8858 30.2494 28.4219 30.25Z" fill="#454545"/>
<path d="M28.4219 14.5C30.2996 14.4982 32.1582 14.8763 33.8859 15.6118L36.5041 12.9936C33.8387 11.5981 30.8582 10.9144 27.8511 11.0085C24.844 11.1027 21.9121 11.9716 19.3393 13.5311C16.7664 15.0906 14.6397 17.2879 13.1651 19.9103C11.6905 22.5327 10.9178 25.4914 10.9219 28.5H14.4219C14.4261 24.7883 15.9025 21.2298 18.5271 18.6052C21.1517 15.9806 24.7102 14.5043 28.4219 14.5Z" fill="#454545"/>
<path d="M28.4219 53C23.5762 53 18.8394 51.5631 14.8104 48.871C10.7814 46.1789 7.64118 42.3526 5.78684 37.8758C3.93249 33.399 3.44731 28.4728 4.39265 23.7203C5.33798 18.9678 7.67138 14.6023 11.0978 11.1759C14.5242 7.74951 18.8896 5.41611 23.6422 4.47077C28.3947 3.52543 33.3208 4.01062 37.7976 5.86496C42.2744 7.71931 46.1008 10.8595 48.7929 14.8885C51.485 18.9175 52.9219 23.6544 52.9219 28.5C52.9146 34.9956 50.331 41.223 45.7379 45.816C41.1449 50.4091 34.9174 52.9927 28.4219 53ZM28.4219 7.50001C24.2685 7.50001 20.2083 8.73164 16.7549 11.0391C13.3015 13.3467 10.6099 16.6264 9.02042 20.4637C7.43098 24.3009 7.01511 28.5233 7.8254 32.5969C8.63569 36.6705 10.6357 40.4124 13.5726 43.3493C16.5095 46.2862 20.2514 48.2862 24.325 49.0965C28.3986 49.9068 32.621 49.4909 36.4582 47.9015C40.2955 46.312 43.5752 43.6204 45.8828 40.167C48.1903 36.7136 49.4219 32.6534 49.4219 28.5C49.4155 22.9324 47.201 17.5947 43.2641 13.6578C39.3272 9.72089 33.9895 7.50636 28.4219 7.50001Z" fill="#454545"/>
</svg>
