<svg width="57" height="57" viewBox="0 0 57 57" fill="none" xmlns="http://www.w3.org/2000/svg">
<path d="M27.6745 27.2656L13.6791 41.2611L16.154 43.7359L30.1494 29.7405L27.6745 27.2656Z" fill="#454545"/>
<path d="M30.675 53.0001C30.4533 53.0006 30.2336 52.9591 30.0275 52.8776C29.7408 52.7633 29.4894 52.5752 29.2989 52.3324C29.1083 52.0896 28.9854 51.8008 28.9425 51.4951L27.1925 39.2451L30.6925 38.7551L32.005 47.9776L37.675 43.4101V30.2501C37.6736 30.0198 37.7178 29.7915 37.8049 29.5783C37.892 29.3651 38.0203 29.1711 38.1825 29.0076L45.305 21.8851C46.7726 20.4274 47.9366 18.6932 48.7296 16.7828C49.5226 14.8723 49.9289 12.8236 49.925 10.7551V7.50011H46.67C44.6015 7.49618 42.5527 7.90247 40.6423 8.69549C38.7319 9.4885 36.9976 10.6525 35.54 12.1201L28.4175 19.2426C28.254 19.4048 28.06 19.5331 27.8468 19.6202C27.6336 19.7073 27.4053 19.7514 27.175 19.7501H14.015L9.44748 25.4551L18.67 26.7676L18.18 30.2676L5.92998 28.5176C5.62433 28.4747 5.33545 28.3518 5.09265 28.1612C4.84986 27.9707 4.66177 27.7193 4.54748 27.4326C4.43177 27.1439 4.3951 26.8296 4.44124 26.522C4.48738 26.2144 4.61466 25.9247 4.80998 25.6826L11.81 16.9326C11.9712 16.7232 12.1778 16.5529 12.4142 16.4347C12.6506 16.3165 12.9107 16.2534 13.175 16.2501H26.4575L33.055 9.63511C34.8385 7.84154 36.9604 6.41989 39.2975 5.45259C41.6347 4.48529 44.1406 3.99159 46.67 4.00011H49.925C50.8532 4.00011 51.7435 4.36886 52.3999 5.02523C53.0562 5.68161 53.425 6.57185 53.425 7.50011V10.7551C53.4335 13.2845 52.9398 15.7904 51.9725 18.1276C51.0052 20.4647 49.5835 22.5866 47.79 24.3701L41.175 30.9676V44.2501C41.1738 44.513 41.1134 44.7722 40.9982 45.0085C40.8831 45.2448 40.7162 45.4521 40.51 45.6151L31.76 52.6151C31.4521 52.8621 31.0697 52.9978 30.675 53.0001Z" fill="#454545"/>
</svg>
