<svg width="17" height="16" viewBox="0 0 17 16" fill="none" xmlns="http://www.w3.org/2000/svg">
<path d="M15.4219 14.3L14.0219 12.9C14.2719 12.5 14.4219 12 14.4219 11.5C14.4219 10.1 13.3219 9 11.9219 9C10.5219 9 9.42188 10.1 9.42188 11.5C9.42188 12.9 10.5219 14 11.9219 14C12.4219 14 12.9219 13.85 13.3219 13.6L14.7219 15L15.4219 14.3ZM10.4219 11.5C10.4219 10.65 11.0719 10 11.9219 10C12.7719 10 13.4219 10.65 13.4219 11.5C13.4219 12.35 12.7719 13 11.9219 13C11.0719 13 10.4219 12.35 10.4219 11.5Z" fill="#454545"/>
<path d="M9.42188 8H4.42188V9H9.42188V8Z" fill="#454545"/>
<path d="M10.4219 5H4.42188V6H10.4219V5Z" fill="#454545"/>
<path d="M7.42188 13.85L4.82188 12.45C3.32188 11.7 2.42188 10.15 2.42188 8.5V2H12.4219V7.5H13.4219V2C13.4219 1.45 12.9719 1 12.4219 1H2.42188C1.87187 1 1.42188 1.45 1.42188 2V8.5C1.42188 10.55 2.52188 12.4 4.32188 13.35L7.42188 15V13.85Z" fill="#454545"/>
</svg>
