<svg width="56" height="56" viewBox="0 0 56 56" fill="none" xmlns="http://www.w3.org/2000/svg">
<path d="M31.045 52.4961L28 50.7461L35 38.4961H45.5C46.4283 38.4961 47.3185 38.1273 47.9749 37.471C48.6312 36.8146 49 35.9244 49 34.9961V13.9961C49 13.0678 48.6312 12.1776 47.9749 11.5212C47.3185 10.8648 46.4283 10.4961 45.5 10.4961H10.5C9.57174 10.4961 8.6815 10.8648 8.02513 11.5212C7.36875 12.1776 7 13.0678 7 13.9961V34.9961C7 35.9244 7.36875 36.8146 8.02513 37.471C8.6815 38.1273 9.57174 38.4961 10.5 38.4961H26.25V41.9961H10.5C8.64348 41.9961 6.86301 41.2586 5.55025 39.9458C4.2375 38.6331 3.5 36.8526 3.5 34.9961V13.9961C3.5 12.1396 4.2375 10.3591 5.55025 9.04635C6.86301 7.73359 8.64348 6.99609 10.5 6.99609H45.5C47.3565 6.99609 49.137 7.73359 50.4497 9.04635C51.7625 10.3591 52.5 12.1396 52.5 13.9961V34.9961C52.5 36.8526 51.7625 38.6331 50.4497 39.9458C49.137 41.2586 47.3565 41.9961 45.5 41.9961H37.03L31.045 52.4961Z" fill="#454545"/>
<path d="M42 17.4961H14V20.9961H42V17.4961Z" fill="#454545"/>
<path d="M31.5 27.9961H14V31.4961H31.5V27.9961Z" fill="#454545"/>
</svg>
