<svg width="56" height="56" viewBox="0 0 56 56" fill="none" xmlns="http://www.w3.org/2000/svg">
<path d="M43.75 17.5008H43.645C43.1997 13.6638 41.3599 10.1242 38.4754 7.55506C35.5908 4.98593 31.8628 3.56641 28 3.56641C24.1372 3.56641 20.4092 4.98593 17.5246 7.55506C14.6401 10.1242 12.8003 13.6638 12.355 17.5008H12.25C9.92936 17.5008 7.70376 18.4227 6.06282 20.0636C4.42187 21.7045 3.5 23.9301 3.5 26.2508C3.5 28.5714 4.42187 30.797 6.06282 32.438C7.70376 34.0789 9.92936 35.0008 12.25 35.0008H15.75V19.2508C15.75 16.0019 17.0406 12.886 19.3379 10.5887C21.6353 8.29141 24.7511 7.00079 28 7.00079C31.2489 7.00079 34.3647 8.29141 36.6621 10.5887C38.9594 12.886 40.25 16.0019 40.25 19.2508V36.7508C40.2488 38.3542 39.6972 39.9086 38.6875 41.154C37.6777 42.3995 36.271 43.2606 34.7025 43.5933C34.2353 41.9549 33.1867 40.5431 31.7531 39.6225C30.3195 38.702 28.5994 38.3358 26.9152 38.5927C25.231 38.8496 23.6983 39.712 22.6043 41.0181C21.5104 42.3242 20.9304 43.9845 20.973 45.6876C21.0156 47.3908 21.6778 49.02 22.8356 50.2698C23.9935 51.5196 25.5673 52.3043 27.2623 52.4767C28.9573 52.6492 30.6569 52.1975 32.0427 51.2065C33.4285 50.2154 34.4053 48.753 34.79 47.0933C37.2732 46.7251 39.5424 45.4795 41.1862 43.5821C42.8299 41.6847 43.7395 39.2612 43.75 36.7508V35.0008C46.0706 35.0008 48.2962 34.0789 49.9372 32.438C51.5781 30.797 52.5 28.5714 52.5 26.2508C52.5 23.9301 51.5781 21.7045 49.9372 20.0636C48.2962 18.4227 46.0706 17.5008 43.75 17.5008ZM7 26.2508C7 24.8584 7.55312 23.523 8.53769 22.5385C9.52226 21.5539 10.8576 21.0008 12.25 21.0008V31.5008C10.8576 31.5008 9.52226 30.9477 8.53769 29.9631C7.55312 28.9785 7 27.6432 7 26.2508ZM28 49.0008C27.3078 49.0008 26.6311 48.7955 26.0555 48.4109C25.4799 48.0263 25.0313 47.4797 24.7664 46.8402C24.5015 46.2006 24.4322 45.4969 24.5673 44.818C24.7023 44.139 25.0356 43.5154 25.5251 43.0259C26.0146 42.5364 26.6383 42.2031 27.3172 42.068C27.9961 41.933 28.6999 42.0023 29.3394 42.2672C29.9789 42.5321 30.5256 42.9807 30.9101 43.5563C31.2947 44.1319 31.5 44.8086 31.5 45.5008C31.5 46.429 31.1313 47.3193 30.4749 47.9757C29.8185 48.632 28.9283 49.0008 28 49.0008ZM43.75 31.5008V21.0008C45.1424 21.0008 46.4777 21.5539 47.4623 22.5385C48.4469 23.523 49 24.8584 49 26.2508C49 27.6432 48.4469 28.9785 47.4623 29.9631C46.4777 30.9477 45.1424 31.5008 43.75 31.5008Z" fill="#454545"/>
</svg>
