<svg width="56" height="56" viewBox="0 0 56 56" fill="none" xmlns="http://www.w3.org/2000/svg">
<g clip-path="url(#clip0_5214_13902)">
<path fill-rule="evenodd" clip-rule="evenodd" d="M56 28C56 43.464 43.464 56 28 56C12.536 56 0 43.464 0 28C0 12.536 12.536 0 28 0C43.464 0 56 12.536 56 28ZM29.0034 20.6708C26.28 21.8036 20.837 24.1481 12.6744 27.7044C11.3489 28.2315 10.6546 28.7472 10.5914 29.2514C10.4846 30.1035 11.5517 30.439 13.0048 30.8959C13.2024 30.9581 13.4072 31.0225 13.6172 31.0907C15.0468 31.5555 16.9699 32.0991 17.9697 32.1207C18.8765 32.1403 19.8887 31.7665 21.0062 30.9991C28.6327 25.851 32.5696 23.2489 32.8167 23.1928C32.9911 23.1532 33.2327 23.1035 33.3965 23.249C33.5602 23.3945 33.5441 23.6701 33.5267 23.744C33.421 24.1947 29.2323 28.0889 27.0646 30.1041C26.3888 30.7324 25.9095 31.178 25.8115 31.2798C25.592 31.5078 25.3683 31.7235 25.1533 31.9307C23.8251 33.2111 22.8291 34.1712 25.2084 35.7392C26.3518 36.4927 27.2668 37.1157 28.1796 37.7373C29.1764 38.4162 30.1707 39.0933 31.4571 39.9366C31.7848 40.1514 32.0979 40.3745 32.4027 40.5919C33.5628 41.4189 34.6051 42.162 35.8927 42.0435C36.6409 41.9746 37.4137 41.2711 37.8062 39.1728C38.7338 34.214 40.5571 23.4697 40.9785 19.0423C41.0154 18.6544 40.969 18.1579 40.9317 17.94C40.8944 17.7221 40.8165 17.4116 40.5332 17.1817C40.1977 16.9095 39.6798 16.8521 39.4482 16.8562C38.3951 16.8747 36.7793 17.4366 29.0034 20.6708Z" fill="#454545"/>
</g>
<defs>
<clipPath id="clip0_5214_13902">
<rect width="56" height="56" fill="white"/>
</clipPath>
</defs>
</svg>
