<svg width="24" height="24" viewBox="0 0 24 24" fill="none" xmlns="http://www.w3.org/2000/svg">
<path d="M20.1806 15.8627L14.2131 5.5271C13.7511 4.7274 12.9239 4.25 11.9999 4.25C11.0759 4.25 10.2487 4.7274 9.78666 5.5271L3.81916 15.8627C3.35716 16.6624 3.35716 17.6172 3.81916 18.4169C4.28116 19.2177 5.10836 19.6951 6.03236 19.6951H17.9674C18.8914 19.6951 19.7186 19.2177 20.1806 18.4169C20.6426 17.6172 20.6426 16.6624 20.1806 15.8627ZM11.1749 9.2451C11.1749 8.7897 11.5445 8.4201 11.9999 8.4201C12.4553 8.4201 12.8249 8.7897 12.8249 9.2451V13.0951C12.8249 13.5505 12.4553 13.9201 11.9999 13.9201C11.5445 13.9201 11.1749 13.5505 11.1749 13.0951V9.2451ZM11.9999 17.021C11.3927 17.021 10.8999 16.5271 10.8999 15.921C10.8999 15.3149 11.3927 14.821 11.9999 14.821C12.6071 14.821 13.0999 15.3149 13.0999 15.921C13.0999 16.5271 12.6071 17.021 11.9999 17.021Z" fill="#FFAE00"/>
</svg>
