<svg width="20" height="20" viewBox="0 0 20 20" fill="none" xmlns="http://www.w3.org/2000/svg">
<path d="M19.6589 3.29237C19.53 2.98126 19.2256 2.77792 18.8889 2.77792H17.2223V1.11126C17.2223 0.77459 17.0189 0.470145 16.7078 0.341256C16.3967 0.211256 16.0378 0.283478 15.8 0.522367L13.0223 3.30015C12.8656 3.45681 12.7778 3.66903 12.7778 3.88903V6.04348L9.41116 9.41014C9.0856 9.7357 9.0856 10.2635 9.41116 10.589C9.57338 10.7513 9.78671 10.8335 10 10.8335C10.2134 10.8335 10.4267 10.7524 10.5889 10.589L13.9556 7.22237H16.11C16.3312 7.22237 16.5434 7.13459 16.6989 6.97792L19.4767 4.20015C19.7156 3.96237 19.7856 3.60348 19.6578 3.29237H19.6589Z" fill="#A1A1A1"/>
<path d="M10.0002 18.8891C5.09911 18.8891 1.11133 14.9014 1.11133 10.0003C1.11133 4.55803 5.99688 0.196917 11.6658 1.27247C12.118 1.35803 12.4158 1.79469 12.3302 2.24581C12.2447 2.69914 11.8002 2.99469 11.3558 2.90914C10.8936 2.82136 10.438 2.77692 10.0002 2.77692C6.01799 2.77692 2.77799 6.01692 2.77799 9.99914C2.77799 13.9814 6.01799 17.2214 10.0002 17.2214C13.9824 17.2214 17.2224 13.9814 17.2224 9.99914C17.2224 9.55914 17.178 9.10247 17.0913 8.64358C17.0047 8.19136 17.3013 7.75581 17.7536 7.66914C18.2069 7.58247 18.6413 7.87914 18.728 8.33247C18.8358 8.89358 18.8902 9.45469 18.8902 9.99914C18.8902 14.9003 14.9024 18.888 10.0013 18.888L10.0002 18.8891Z" fill="#A1A1A1"/>
<path d="M10.0004 15.5559C6.93705 15.5559 4.44482 13.0637 4.44482 10.0004C4.44482 6.93705 6.93705 4.44482 10.0004 4.44482C10.2915 4.44482 10.5704 4.48482 10.8493 4.52705C11.3037 4.59705 11.6159 5.0226 11.5459 5.47705C11.477 5.9326 11.0593 6.24705 10.5959 6.17371C10.4004 6.14371 10.2048 6.11038 10.0015 6.11038C7.85705 6.11038 6.1126 7.85482 6.1126 9.99927C6.1126 12.1437 7.85705 13.8882 10.0015 13.8882C12.1459 13.8882 13.8904 12.1437 13.8904 9.99927C13.8904 9.79593 13.8582 9.60149 13.827 9.40594C13.757 8.95149 14.0682 8.52594 14.5226 8.45482C14.9848 8.39038 15.4037 8.69593 15.4737 9.15038C15.517 9.42927 15.5559 9.70927 15.5559 10.0004C15.5559 13.0637 13.0637 15.5559 10.0004 15.5559Z" fill="#FBFFF1"/>
</svg>
