<svg width="20" height="21" viewBox="0 0 20 21" fill="none" xmlns="http://www.w3.org/2000/svg">
<path d="M15.7299 7.52883C14.0366 6.85995 11.9643 7.19995 10.5855 8.43883C10.4277 8.58106 10.2299 8.65106 10.0321 8.65106C9.80434 8.65106 9.57767 8.55772 9.41323 8.37439C9.10767 8.03106 9.13545 7.50439 9.47767 7.19772C10.9743 5.85217 13.0699 5.30661 15.0254 5.61995C14.011 3.8855 12.1354 2.72217 10.0321 2.72217C6.82656 2.72217 4.21989 5.33883 4.21989 8.5555C4.21989 8.69439 4.22545 8.83328 4.23767 8.97439C2.40989 9.43883 1.07212 11.1233 1.11323 13.0933C1.13656 14.2044 1.58989 15.2388 2.38878 16.0088C3.16656 16.7577 4.18101 17.1666 5.23878 17.1666C5.26767 17.1666 5.29767 17.1666 5.32656 17.1666H13.9066C16.6543 17.1666 18.8888 14.9244 18.8888 12.1655C18.8855 10.0999 17.6321 8.28106 15.7299 7.52883Z" fill="#A1A1A1"/>
</svg>
