<svg width="32" height="32" viewBox="0 0 32 32" fill="none" xmlns="http://www.w3.org/2000/svg">
<path d="M25.1674 11.2463C22.4581 10.1761 19.1426 10.7201 16.9363 12.7023C16.6839 12.9299 16.3674 13.0419 16.051 13.0419C15.6866 13.0419 15.3239 12.8926 15.0608 12.5992C14.5719 12.0499 14.6163 11.2072 15.1639 10.7166C17.5585 8.56366 20.9114 7.69077 24.0403 8.19211C22.4172 5.417 19.4163 3.55566 16.051 3.55566C10.9221 3.55566 6.75144 7.74233 6.75144 12.889C6.75144 13.1112 6.76033 13.3334 6.77988 13.5592C3.85544 14.3023 1.71499 16.9974 1.78077 20.1494C1.81811 21.9272 2.54344 23.5823 3.82166 24.8143C5.06611 26.0126 6.68922 26.6668 8.38166 26.6668C8.42788 26.6668 8.47588 26.6668 8.52211 26.6668H22.2501C26.6465 26.6668 30.2217 23.0792 30.2217 18.665C30.2163 15.3601 28.211 12.4499 25.1674 11.2463Z" fill="#0070F3"/>
</svg>
