<svg width="24" height="24" viewBox="0 0 24 24" fill="none" xmlns="http://www.w3.org/2000/svg">
<path d="M12.858 5.64317L10.658 3.44317C10.5029 3.28807 10.2928 3.20117 10.075 3.20117H5.675C4.6135 3.20117 3.75 4.06467 3.75 5.12617V12.8262C3.75 13.8877 4.6135 14.7512 5.675 14.7512H8.975C9.4304 14.7512 9.8 14.3816 9.8 13.9262C9.8 13.4708 9.4304 13.1012 8.975 13.1012H5.675C5.5232 13.1012 5.4 12.978 5.4 12.8262V5.12617C5.4 4.97437 5.5232 4.85117 5.675 4.85117H9.25V6.22617C9.25 6.68157 9.6196 7.05117 10.075 7.05117H11.45V7.32617C11.45 7.78157 11.8196 8.15117 12.275 8.15117C12.7304 8.15117 13.1 7.78157 13.1 7.32617V6.22617C13.1 6.00727 13.0131 5.79717 12.858 5.64317Z" fill="#A1A1A1"/>
<path d="M20.0079 11.693L17.8079 9.49298C17.6528 9.33788 17.4427 9.25098 17.2249 9.25098H12.8249C11.7634 9.25098 10.8999 10.1145 10.8999 11.176V18.876C10.8999 19.9375 11.7634 20.801 12.8249 20.801H18.3249C19.3864 20.801 20.2499 19.9375 20.2499 18.876V12.276C20.2499 12.0571 20.163 11.847 20.0079 11.693ZM19.0828 13.101H16.9499C16.6463 13.101 16.3999 12.8546 16.3999 12.551V10.4181L19.0828 13.101Z" fill="#A1A1A1"/>
</svg>
