<svg width="40" height="41" viewBox="0 0 40 41" fill="none" xmlns="http://www.w3.org/2000/svg">
<path d="M36.1113 13.2778C35.1913 13.2778 34.4447 14.0245 34.4447 14.9445V26.9023C34.4447 27.0489 34.3869 27.1912 34.2824 27.2956L26.7958 34.7823C26.6913 34.8867 26.5513 34.9445 26.4024 34.9445H12.778C11.858 34.9445 11.1113 35.6912 11.1113 36.6112C11.1113 37.5312 11.858 38.2778 12.778 38.2778H26.4024C27.4424 38.2778 28.418 37.8734 29.1513 37.1378L36.638 29.6512C37.3736 28.9156 37.778 27.9401 37.778 26.9023V14.9445C37.778 14.0245 37.0313 13.2778 36.1113 13.2778Z" fill="#0070F3"/>
<path d="M15.0007 21.6111C14.0807 21.6111 13.334 22.3578 13.334 23.2778V28.4689C13.334 29.5067 13.7384 30.4844 14.474 31.2178L16.0451 32.7889C16.3695 33.1133 16.7962 33.2778 17.2229 33.2778C17.6495 33.2778 18.0762 33.1156 18.4007 32.7889C19.0518 32.1378 19.0518 31.0822 18.4007 30.4311L16.8295 28.86C16.7251 28.7556 16.6673 28.6133 16.6673 28.4667V23.2756C16.6673 22.3556 15.9207 21.6089 15.0007 21.6089V21.6111Z" fill="#A2B4C9"/>
<path d="M11.1115 21.471C11.1115 21.3177 11.1759 21.1666 11.2892 21.0621L14.1892 18.3777C14.7737 18.6599 15.4204 18.8332 16.1115 18.8332C18.5626 18.8332 20.5559 16.8399 20.5559 14.3888C20.5559 11.9377 18.5626 9.94434 16.1115 9.94434C13.6604 9.94434 11.667 11.9377 11.667 14.3888C11.667 14.9243 11.7781 15.431 11.9515 15.9066L9.0248 18.6177C8.23368 19.3532 7.77813 20.391 7.77813 21.471V28.5288C7.77813 28.651 7.73591 28.7732 7.66257 28.8688L5.90257 31.1466C5.34035 31.8754 5.47591 32.9221 6.2048 33.4843C6.50702 33.7177 6.8648 33.831 7.22035 33.831C7.72035 33.831 8.21368 33.6088 8.54257 33.1821L10.3048 30.8999C10.8248 30.2221 11.1115 29.3799 11.1115 28.5266V21.4688V21.471Z" fill="#FBFFF1"/>
<path d="M25.0009 19.3888C25.9209 19.3888 26.6676 18.6421 26.6676 17.7221V12.531C26.6676 11.4932 26.2631 10.5154 25.5276 9.7821L23.9565 8.21099C23.3054 7.55988 22.2498 7.55988 21.5987 8.21099C20.9476 8.8621 20.9476 9.91766 21.5987 10.5688L23.1698 12.1399C23.2742 12.2443 23.332 12.3865 23.332 12.5332V17.7243C23.332 18.6443 24.0787 19.391 24.9987 19.391L25.0009 19.3888Z" fill="#FBFFF1"/>
<path d="M28.8898 19.5288C28.8898 19.6821 28.8253 19.8332 28.712 19.9377L25.812 22.6221C25.2275 22.3399 24.5809 22.1666 23.8898 22.1666C21.4386 22.1666 19.4453 24.1599 19.4453 26.611C19.4453 29.0621 21.4386 31.0555 23.8898 31.0555C26.3409 31.0555 28.3342 29.0621 28.3342 26.611C28.3342 26.0755 28.2231 25.5688 28.0498 25.0932L30.9764 22.3821C31.7675 21.6466 32.2231 20.6088 32.2231 19.5288V12.471C32.2231 12.3488 32.2653 12.2266 32.3386 12.131L34.0986 9.85325C34.6609 9.12436 34.5253 8.07769 33.7964 7.51547C33.072 6.95325 32.0209 7.08658 31.4586 7.81547L29.6964 10.0977C29.1764 10.7755 28.8898 11.6177 28.8898 12.471V19.5288Z" fill="#FBFFF1"/>
<path d="M13.2049 6.21772C13.3093 6.11328 13.4493 6.0555 13.5982 6.0555H27.2227C28.1427 6.0555 28.8893 5.30883 28.8893 4.38883C28.8893 3.46883 28.1427 2.72217 27.2227 2.72217H13.5982C12.5582 2.72217 11.5827 3.12661 10.8493 3.86217L3.36266 11.3466C2.6271 12.0822 2.22266 13.0577 2.22266 14.0955V26.0533C2.22266 26.9733 2.96932 27.7199 3.88932 27.7199C4.80932 27.7199 5.55599 26.9733 5.55599 26.0533V14.0977C5.55599 13.9511 5.61377 13.8088 5.71821 13.7044L13.2049 6.21772Z" fill="#FBFFF1"/>
</svg>
