<svg width="40" height="41" viewBox="0 0 40 41" fill="none" xmlns="http://www.w3.org/2000/svg">
<path d="M26.7362 22.9001C27.5984 22.3957 28.1139 21.5001 28.1139 20.5001C28.1139 19.5001 27.5984 18.6046 26.7362 18.1001L18.6228 13.369C17.7628 12.8668 16.6984 12.8668 15.8406 13.3601C14.9806 13.8557 14.4473 14.7779 14.4473 15.769V25.2334C14.4473 26.2246 14.9806 27.1468 15.8406 27.6423C16.2673 27.8868 16.745 28.0112 17.225 28.0112C17.7095 28.0112 18.1939 27.8846 18.625 27.6357L26.7384 22.9023L26.7362 22.9001Z" fill="#FBFFF1"/>
<path d="M20.0007 2.72217C19.0807 2.72217 18.334 3.46883 18.334 4.38883C18.334 5.30883 19.0807 6.0555 20.0007 6.0555C27.9651 6.0555 34.4451 12.5355 34.4451 20.4999C34.4451 28.4644 27.9651 34.9444 20.0007 34.9444C19.0807 34.9444 18.334 35.6911 18.334 36.6111C18.334 37.5311 19.0807 38.2777 20.0007 38.2777C29.8029 38.2777 37.7784 30.3022 37.7784 20.4999C37.7784 10.6977 29.8029 2.72217 20.0007 2.72217Z" fill="#9341D5"/>
<path d="M7.42876 30.7132C6.77765 31.3643 6.77765 32.4199 7.42876 33.071C8.07987 33.7221 9.13543 33.7221 9.78654 33.071C10.4377 32.4199 10.4377 31.3643 9.78654 30.7132C9.13543 30.0621 8.07987 30.0621 7.42876 30.7132Z" fill="#FBFFF1"/>
<path d="M3.88932 22.1666C4.8098 22.1666 5.55599 21.4204 5.55599 20.4999C5.55599 19.5794 4.8098 18.8333 3.88932 18.8333C2.96885 18.8333 2.22266 19.5794 2.22266 20.4999C2.22266 21.4204 2.96885 22.1666 3.88932 22.1666Z" fill="#FBFFF1"/>
<path d="M7.42876 7.92901C6.77765 8.58012 6.77765 9.63567 7.42876 10.2868C8.07987 10.9379 9.13543 10.9379 9.78654 10.2868C10.4377 9.63567 10.4377 8.58012 9.78654 7.92901C9.13543 7.2779 8.07987 7.2779 7.42876 7.92901Z" fill="#FBFFF1"/>
<path d="M14.4745 33.8447C13.6234 33.4935 12.6501 33.8958 12.2968 34.7469C11.9434 35.598 12.3479 36.5713 13.199 36.9247C14.0501 37.2758 15.0234 36.8735 15.3768 36.0224C15.7301 35.1713 15.3257 34.1958 14.4745 33.8447Z" fill="#FBFFF1"/>
<path d="M4.47833 25.1266C3.62722 25.4778 3.225 26.4533 3.57611 27.3044C3.92944 28.1555 4.90277 28.5578 5.75388 28.2066C6.605 27.8555 7.00722 26.88 6.65611 26.0289C6.30277 25.1778 5.32944 24.7755 4.47833 25.1266Z" fill="#FBFFF1"/>
<path d="M5.75384 12.7958C4.90273 12.4425 3.92939 12.8469 3.57606 13.698C3.22273 14.5491 3.62717 15.5247 4.47828 15.8758C5.32939 16.2269 6.30273 15.8247 6.65606 14.9736C7.00939 14.1225 6.60495 13.1491 5.75384 12.7958Z" fill="#FBFFF1"/>
<path d="M14.4746 7.15586C15.3257 6.80475 15.7279 5.8292 15.3768 4.97808C15.0235 4.12697 14.0501 3.72475 13.199 4.07586C12.3479 4.4292 11.9457 5.40253 12.2968 6.25364C12.6479 7.10475 13.6235 7.50697 14.4746 7.15586Z" fill="#FBFFF1"/>
</svg>
