<svg width="40" height="41" viewBox="0 0 40 41" fill="none" xmlns="http://www.w3.org/2000/svg">
<path d="M33.8893 38.2777C33.2982 38.2777 32.7271 37.9622 32.4226 37.4066L28.4982 30.1844C28.0582 29.3755 28.3582 28.3644 29.1671 27.9244C29.9759 27.4911 30.9871 27.7844 31.4271 28.5933L35.3515 35.8155C35.7915 36.6244 35.4915 37.6355 34.6826 38.0755C34.4293 38.2133 34.1582 38.2777 33.8893 38.2777Z" fill="#FBFFF1"/>
<path d="M28.8938 23.9287L23.9893 14.9043C24.9538 13.9043 25.556 12.5509 25.556 11.0554C25.556 8.57762 23.9138 6.49539 21.6671 5.78428V3.83317C21.6671 2.91317 20.9204 2.1665 20.0004 2.1665C19.0804 2.1665 18.3338 2.91317 18.3338 3.83317V5.78428C16.0871 6.49762 14.4449 8.57762 14.4449 11.0554C14.4449 12.5509 15.0449 13.9065 16.0115 14.9065L4.64709 35.8154C4.20709 36.6243 4.50709 37.6354 5.31598 38.0754C5.56931 38.2132 5.84043 38.2776 6.10931 38.2776C6.70043 38.2776 7.27154 37.9621 7.57598 37.4065L18.936 16.5043C19.2804 16.5709 19.636 16.6109 20.0004 16.6109C20.3649 16.6109 20.7182 16.5709 21.0626 16.5043L25.9649 25.5221C26.2671 26.0776 26.8404 26.3932 27.4315 26.3932C27.7004 26.3932 27.9738 26.3287 28.2271 26.1909C29.036 25.7509 29.336 24.7398 28.896 23.9287H28.8938Z" fill="#0070F3"/>
<path d="M20.0006 28.2785C15.3339 28.2785 10.965 26.443 7.69837 23.1074C7.05393 22.4496 7.06504 21.3941 7.72281 20.7496C8.38281 20.1052 9.43615 20.1163 10.0806 20.7741C12.7161 23.463 16.2384 24.943 20.0028 24.943C23.7673 24.943 27.2895 23.4608 29.925 20.7741C30.5695 20.1163 31.625 20.1052 32.2828 20.7496C32.9406 21.3941 32.9517 22.4496 32.3073 23.1074C29.0406 26.4408 24.6717 28.2785 20.005 28.2785H20.0006Z" fill="#FBFFF1"/>
</svg>
