<svg width="32" height="32" viewBox="0 0 32 32" fill="none" xmlns="http://www.w3.org/2000/svg">
<path d="M28.9363 9.97354L27.8945 8.8642C27.3896 8.32554 26.5434 8.30243 26.0101 8.80554C25.4803 9.30332 25.4536 10.1282 25.9372 10.6651H22.0421L20.003 6.75398C20.2696 6.51043 20.4439 6.16732 20.4439 5.7762C20.4439 5.0402 19.8465 4.44287 19.1105 4.44287H9.61898C8.75675 4.44287 7.92475 4.80198 7.33453 5.42776L3.06253 9.97354C2.02964 11.0722 1.9372 12.7415 2.84387 13.9451L13.4981 28.0891C14.0936 28.8802 15.0056 29.3335 15.9994 29.3335C16.9932 29.3335 17.9052 28.8802 18.5008 28.0891L29.155 13.9451C30.0616 12.7415 29.9692 11.0704 28.9363 9.97354ZM12.5612 13.3335H19.4359L15.9976 24.7202L12.5612 13.3335ZM9.27587 7.25709C9.36298 7.16465 9.48742 7.11132 9.6172 7.11132H11.8092L9.95675 10.6669H6.07053L9.27587 7.25709Z" fill="#0070F3"/>
<path d="M27.9873 3.5412L26.3055 2.9812L25.7437 1.29765C25.5624 0.753648 24.6611 0.753648 24.4797 1.29765L23.918 2.9812L22.2362 3.5412C21.9642 3.63187 21.7793 3.88609 21.7793 4.17409C21.7793 4.46209 21.9642 4.71632 22.2362 4.80698L23.918 5.36698L24.4797 7.05054C24.5704 7.32254 24.8246 7.50565 25.1109 7.50565C25.3971 7.50565 25.6531 7.32076 25.742 7.05054L26.3037 5.36698L27.9855 4.80698C28.2575 4.71632 28.4424 4.46209 28.4424 4.17409C28.4424 3.88609 28.2575 3.63187 27.9855 3.5412H27.9873Z" fill="#A2B4C9"/>
<path d="M3.11117 5.33317C3.84755 5.33317 4.4445 4.73622 4.4445 3.99984C4.4445 3.26346 3.84755 2.6665 3.11117 2.6665C2.37479 2.6665 1.77783 3.26346 1.77783 3.99984C1.77783 4.73622 2.37479 5.33317 3.11117 5.33317Z" fill="#FBFFF1"/>
</svg>
