<svg width="20" height="20" viewBox="0 0 20 20" fill="none" xmlns="http://www.w3.org/2000/svg">
<g clip-path="url(#clip0_203_583)">
<path d="M6.74889 12.188L6.16556 10.9436C5.71444 9.97913 5.71111 8.87247 6.15444 7.9058C6.59667 6.94024 7.44222 6.22024 8.47111 5.93135C8.77556 5.8458 9.09 5.80247 9.40556 5.80247C10.6644 5.80247 11.8411 6.48358 12.5233 7.5658C13.0111 6.6558 13.3344 5.62024 13.3344 4.45358C13.3422 2.31691 11.6078 0.568021 9.45333 0.554688C8.52 0.56691 7.63444 0.910243 6.94556 1.5058C6.25556 0.910243 5.36667 0.565799 4.42222 0.554688C2.28333 0.568021 0.548889 2.31691 0.556667 4.45024C0.556667 8.75469 4.86556 11.3358 6.18556 12.0247C6.36333 12.1169 6.55556 12.1647 6.74889 12.188Z" fill="#A1A1A1"/>
<path d="M18.3935 11.7826C17.2946 10.9426 14.8135 10.7582 12.479 11.3126L11.2446 8.68704C10.8324 7.81038 9.85349 7.27482 8.92127 7.53704C7.7346 7.87038 7.1746 9.16704 7.6746 10.237L10.0602 15.3215L8.2046 14.9804C7.3946 14.8315 6.5246 15.1459 6.10682 15.8559C5.7746 16.4215 5.74571 17.0815 6.0146 17.6559C6.23127 18.1204 6.61794 18.4715 7.10349 18.647L9.44682 19.4726C10.4413 19.8226 11.4879 20.0015 12.5424 20.0015H15.4502C18.3779 20.0015 19.8079 17.3804 19.6624 15.2459C19.539 13.4259 19.1124 12.3337 18.3913 11.7837L18.3935 11.7826Z" fill="#A1A1A1"/>
</g>
<defs>
<clipPath id="clip0_203_583">
<rect width="20" height="20" fill="white"/>
</clipPath>
</defs>
</svg>
