<svg width="20" height="20" viewBox="0 0 20 20" fill="none" xmlns="http://www.w3.org/2000/svg">
<path d="M16.5799 8.50796C16.3376 8.05796 15.8688 7.77796 15.3576 7.77796H10.9476L11.7832 1.30018C11.851 0.784627 11.5565 0.29796 11.0688 0.116849C10.5821 -0.0653732 10.0399 0.112405 9.7532 0.546849L3.48209 10.0702C3.20098 10.4968 3.17765 11.0424 3.41987 11.4924C3.66209 11.9424 4.13098 12.2224 4.64209 12.2224H9.05209L8.21653 18.7002C8.14876 19.2157 8.4432 19.7024 8.93098 19.8835C9.05876 19.9313 9.19098 19.9546 9.32209 19.9546C9.68653 19.9546 10.0354 19.7746 10.2465 19.4546L16.5188 9.93018C16.7999 9.50352 16.8232 8.95796 16.581 8.50796H16.5799Z" fill="#A1A1A1"/>
</svg>
