<svg width="20" height="20" viewBox="0 0 20 20" fill="none" xmlns="http://www.w3.org/2000/svg">
<path d="M4.64209 12.2222H7.77765L12.2221 7.77772H10.9476L11.7832 1.29994C11.851 0.784383 11.5565 0.297716 11.0688 0.116605C10.5821 -0.0656173 10.0399 0.11216 9.7532 0.546605L3.48209 10.0699C3.20098 10.4966 3.17765 11.0422 3.41987 11.4922C3.66209 11.9422 4.13098 12.2222 4.64209 12.2222Z" fill="#A1A1A1"/>
<path d="M15.71 7.82544L8.7178 14.8177L8.21669 18.6999C8.14891 19.2154 8.44335 19.7021 8.93113 19.8832C9.05891 19.931 9.19113 19.9543 9.32224 19.9543C9.68669 19.9543 10.0356 19.7743 10.2467 19.4543L16.5189 9.92988C16.8 9.50322 16.8234 8.95766 16.5811 8.50766C16.3956 8.16322 16.0778 7.92211 15.71 7.82544Z" fill="#A1A1A1"/>
<path d="M2.22222 18.6111C2.00888 18.6111 1.79555 18.53 1.63333 18.3667C1.30777 18.0411 1.30777 17.5133 1.63333 17.1878L17.1889 1.63333C17.5144 1.30777 18.0422 1.30777 18.3678 1.63333C18.6933 1.95888 18.6933 2.48666 18.3678 2.81222L2.8111 18.3667C2.64888 18.5289 2.43555 18.6111 2.22222 18.6111Z" fill="#A1A1A1"/>
</svg>
