<svg width="40" height="41" viewBox="0 0 40 41" fill="none" xmlns="http://www.w3.org/2000/svg">
<path d="M29.4449 33.8333H27.7782V9.94436C27.7782 6.57325 25.0382 3.83325 21.6671 3.83325H11.6671C8.29599 3.83325 5.55599 6.57325 5.55599 9.94436V33.8333H3.88932C2.96932 33.8333 2.22266 34.5799 2.22266 35.4999C2.22266 36.4199 2.96932 37.1666 3.88932 37.1666H29.4449C30.3649 37.1666 31.1115 36.4199 31.1115 35.4999C31.1115 34.5799 30.3649 33.8333 29.4449 33.8333ZM11.6671 7.16659H21.6671C23.1982 7.16659 24.4449 8.41325 24.4449 9.94436V18.2777H8.88932V9.94436C8.88932 8.41325 10.136 7.16659 11.6671 7.16659Z" fill="#A2B4C9"/>
<path d="M38.8603 13.6711L33.9558 8.76665C33.3047 8.11554 32.2492 8.11554 31.598 8.76665C30.9469 9.41776 30.9469 10.4733 31.598 11.1244L33.8869 13.4133V16.6111C33.8869 18.3667 35.0647 19.8378 36.6647 20.3178V26.6111C36.6647 27.5311 35.918 28.2778 34.998 28.2778C34.078 28.2778 33.3314 27.5311 33.3314 26.6111V24.3889C33.3314 23.4689 32.5847 22.7222 31.6647 22.7222C30.7447 22.7222 29.998 23.4689 29.998 24.3889V26.6111C29.998 29.3689 32.2403 31.6111 34.998 31.6111C37.7558 31.6111 39.998 29.3689 39.998 26.6111V16.42C39.998 15.3822 39.5958 14.4044 38.8603 13.6711Z" fill="#0070F3"/>
</svg>
