<svg width="32" height="32" viewBox="0 0 32 32" fill="none" xmlns="http://www.w3.org/2000/svg">
<path d="M26.6672 3.55583C25.6858 3.55583 24.8894 4.35227 24.8894 5.3336V14.2225C24.8894 14.7132 24.4912 15.1114 24.0005 15.1114C23.5098 15.1114 23.1116 14.7132 23.1116 14.2225V4.00027C23.1116 3.01894 22.3152 2.22249 21.3338 2.22249C20.3525 2.22249 19.5561 3.01894 19.5561 4.00027V14.2225C19.5561 14.7132 19.1578 15.1114 18.6672 15.1114C18.1765 15.1114 17.7783 14.7132 17.7783 14.2225V2.66694C17.7783 1.6856 16.9818 0.88916 16.0005 0.88916C15.0192 0.88916 14.2227 1.6856 14.2227 2.66694V14.2225C14.2227 14.7132 13.8245 15.1114 13.3338 15.1114C12.8432 15.1114 12.445 14.7132 12.445 14.2225V4.00027C12.445 3.01894 11.6485 2.22249 10.6672 2.22249C9.68584 2.22249 8.8894 3.01894 8.8894 4.00027V20.3078L8.86451 20.2723L5.7214 16.2687C4.96407 15.3034 3.5614 15.1398 2.6014 15.8936C1.6414 16.6474 1.52762 17.9043 2.22629 19.0136L6.7614 25.9896C8.0734 28.0074 10.6885 30.2243 16.0005 30.2243H21.3338C25.261 30.2243 28.445 27.0403 28.445 23.1132V5.3336C28.445 4.35227 27.6485 3.55583 26.6672 3.55583Z" fill="#0070F3"/>
</svg>
