<svg width="24" height="24" viewBox="0 0 24 24" fill="none" xmlns="http://www.w3.org/2000/svg">
<path d="M10.8462 13.1014H12.7415L13.154 10.9014H11.2587L10.8462 13.1014Z" fill="#A1A1A1"/>
<path d="M12.0002 3.20117C7.1481 3.20117 3.2002 7.14907 3.2002 12.0012C3.2002 16.8533 7.1481 20.8012 12.0002 20.8012C16.8523 20.8012 20.8002 16.8533 20.8002 12.0012C20.8002 7.14907 16.8523 3.20117 12.0002 3.20117ZM16.4002 10.9012H14.8338L14.4213 13.1012H15.5752C16.0306 13.1012 16.4002 13.4708 16.4002 13.9262C16.4002 14.3816 16.0306 14.7512 15.5752 14.7512H14.1111L13.7734 16.553C13.6997 16.949 13.3521 17.2262 12.9638 17.2262C12.9132 17.2262 12.8615 17.2218 12.8098 17.2119C12.3632 17.1272 12.0673 16.6971 12.1509 16.2494L12.4314 14.7512H10.535L10.1973 16.553C10.1236 16.949 9.776 17.2262 9.3877 17.2262C9.3371 17.2262 9.2854 17.2218 9.2337 17.2119C8.7871 17.1272 8.4912 16.6971 8.5748 16.2494L8.8553 14.7512H7.598C7.1426 14.7512 6.773 14.3816 6.773 13.9262C6.773 13.4708 7.1426 13.1012 7.598 13.1012H9.1644L9.5769 10.9012H8.423C7.9676 10.9012 7.598 10.5316 7.598 10.0762C7.598 9.62077 7.9676 9.25117 8.423 9.25117H9.8871L10.2248 7.44937C10.3084 7.00167 10.7363 6.70247 11.1884 6.79047C11.635 6.87517 11.9309 7.30527 11.8473 7.75297L11.5668 9.25117H13.4632L13.8009 7.44937C13.8834 7.00167 14.3135 6.70247 14.7645 6.79047C15.2111 6.87517 15.507 7.30527 15.4234 7.75297L15.1429 9.25117H16.4002C16.8556 9.25117 17.2252 9.62077 17.2252 10.0762C17.2252 10.5316 16.8556 10.9012 16.4002 10.9012Z" fill="#A1A1A1"/>
</svg>
