<svg width="20" height="20" viewBox="0 0 20 20" fill="none" xmlns="http://www.w3.org/2000/svg">
<path d="M3.0555 10.8332C3.51574 10.8332 3.88883 10.4601 3.88883 9.99984C3.88883 9.5396 3.51574 9.1665 3.0555 9.1665C2.59526 9.1665 2.22217 9.5396 2.22217 9.99984C2.22217 10.4601 2.59526 10.8332 3.0555 10.8332Z" fill="currentColor"/>
<path d="M9.99984 3.88883C10.4601 3.88883 10.8332 3.51574 10.8332 3.0555C10.8332 2.59526 10.4601 2.22217 9.99984 2.22217C9.5396 2.22217 9.1665 2.59526 9.1665 3.0555C9.1665 3.51574 9.5396 3.88883 9.99984 3.88883Z" fill="currentColor"/>
<path d="M3.0555 3.88883C3.51574 3.88883 3.88883 3.51574 3.88883 3.0555C3.88883 2.59526 3.51574 2.22217 3.0555 2.22217C2.59526 2.22217 2.22217 2.59526 2.22217 3.0555C2.22217 3.51574 2.59526 3.88883 3.0555 3.88883Z" fill="currentColor"/>
<path d="M3.0555 7.361C3.51574 7.361 3.88883 6.98791 3.88883 6.52767C3.88883 6.06743 3.51574 5.69434 3.0555 5.69434C2.59526 5.69434 2.22217 6.06743 2.22217 6.52767C2.22217 6.98791 2.59526 7.361 3.0555 7.361Z" fill="currentColor"/>
<path d="M3.0555 14.3053C3.51574 14.3053 3.88883 13.9322 3.88883 13.472C3.88883 13.0118 3.51574 12.6387 3.0555 12.6387C2.59526 12.6387 2.22217 13.0118 2.22217 13.472C2.22217 13.9322 2.59526 14.3053 3.0555 14.3053Z" fill="currentColor"/>
<path d="M3.0555 17.7775C3.51574 17.7775 3.88883 17.4044 3.88883 16.9442C3.88883 16.4839 3.51574 16.1108 3.0555 16.1108C2.59526 16.1108 2.22217 16.4839 2.22217 16.9442C2.22217 17.4044 2.59526 17.7775 3.0555 17.7775Z" fill="currentColor"/>
<path d="M16.9442 3.88883C17.4044 3.88883 17.7775 3.51574 17.7775 3.0555C17.7775 2.59526 17.4044 2.22217 16.9442 2.22217C16.4839 2.22217 16.1108 2.59526 16.1108 3.0555C16.1108 3.51574 16.4839 3.88883 16.9442 3.88883Z" fill="currentColor"/>
<path d="M16.9442 7.361C17.4044 7.361 17.7775 6.98791 17.7775 6.52767C17.7775 6.06743 17.4044 5.69434 16.9442 5.69434C16.4839 5.69434 16.1108 6.06743 16.1108 6.52767C16.1108 6.98791 16.4839 7.361 16.9442 7.361Z" fill="currentColor"/>
<path d="M13.472 3.88883C13.9322 3.88883 14.3053 3.51574 14.3053 3.0555C14.3053 2.59526 13.9322 2.22217 13.472 2.22217C13.0118 2.22217 12.6387 2.59526 12.6387 3.0555C12.6387 3.51574 13.0118 3.88883 13.472 3.88883Z" fill="currentColor"/>
<path d="M6.52767 3.88883C6.98791 3.88883 7.361 3.51574 7.361 3.0555C7.361 2.59526 6.98791 2.22217 6.52767 2.22217C6.06743 2.22217 5.69434 2.59526 5.69434 3.0555C5.69434 3.51574 6.06743 3.88883 6.52767 3.88883Z" fill="currentColor"/>
<path d="M6.52767 17.7775C6.98791 17.7775 7.361 17.4044 7.361 16.9442C7.361 16.4839 6.98791 16.1108 6.52767 16.1108C6.06743 16.1108 5.69434 16.4839 5.69434 16.9442C5.69434 17.4044 6.06743 17.7775 6.52767 17.7775Z" fill="currentColor"/>
<path d="M17.7777 10.2777C17.7777 9.81767 17.4043 9.44434 16.9443 9.44434H10.2777C9.81767 9.44434 9.44434 9.81767 9.44434 10.2777V16.9443C9.44434 17.4043 9.81767 17.7777 10.2777 17.7777C10.7377 17.7777 11.111 17.4043 11.111 16.9443V12.2899L16.3554 17.5343C16.5177 17.6966 16.731 17.7788 16.9443 17.7788C17.1577 17.7788 17.371 17.6977 17.5332 17.5343C17.8588 17.2088 17.8588 16.681 17.5332 16.3554L12.2888 11.111H16.9432C17.4032 11.111 17.7766 10.7377 17.7766 10.2777H17.7777Z" fill="currentColor"/>
</svg>
