<svg width="96" height="33" viewBox="0 0 96 33" fill="none" xmlns="http://www.w3.org/2000/svg">
<g clip-path="url(#clip0_5620_12334)">
<path fill-rule="evenodd" clip-rule="evenodd" d="M14.4386 21.8017C14.4386 22.7791 13.6452 23.5721 12.6676 23.5721C10.7737 23.5721 9.24303 25.108 9.24303 26.9957C9.24303 27.9731 8.44979 28.7661 7.47204 28.7661C6.49441 28.7661 5.70117 27.9731 5.70117 26.9957C5.70117 26.0183 6.49441 25.2253 7.47204 25.2253C8.71785 25.2253 9.80728 24.5607 10.4051 23.5721C10.7178 23.0527 10.8967 22.4495 10.8967 21.8017C10.8967 21.1538 10.7178 20.5451 10.4051 20.0313C9.80728 19.0372 8.71785 18.3781 7.47204 18.3781C6.49441 18.3781 5.70117 17.5851 5.70117 16.6077C5.70117 15.6303 6.49441 14.8373 7.47204 14.8373C8.71785 14.8373 9.80728 14.1726 10.4051 13.1841C10.7178 12.6647 10.8967 12.0616 10.8967 11.4137C10.8967 10.7659 10.7178 10.157 10.4051 9.64325C9.80728 8.65466 8.71785 7.99004 7.47204 7.99004C6.49441 7.99004 5.70117 7.19703 5.70117 6.21963C5.70117 5.24223 6.49441 4.44922 7.47204 4.44922C8.44979 4.44922 9.24303 5.24223 9.24303 6.21963C9.24303 8.11301 10.7794 9.64325 12.6676 9.64325C13.6452 9.64325 14.4386 10.4363 14.4386 11.4137C14.4386 12.3911 13.6452 13.1841 12.6676 13.1841C10.7737 13.1841 9.24303 14.72 9.24303 16.6077C9.24303 18.4954 10.7737 20.0257 12.6676 20.0257C13.6452 20.0257 14.4386 20.8188 14.4386 21.8017ZM42.0337 16.326C43.5845 16.7895 44.4036 17.8094 44.4036 19.3114C44.4036 21.759 42.3474 23.1125 38.6356 23.1125C36.1264 23.1125 33.8784 22.445 32.4844 21.2954L33.3382 19.5153C34.7148 20.5908 36.562 21.147 38.6356 21.147C40.9882 21.147 42.295 20.4239 42.295 19.0888C42.295 17.9948 41.4412 17.4385 39.7684 17.4385H35.8127V15.5286H39.3326C41.0056 15.5286 41.8246 15.0095 41.8246 13.934C41.8246 12.6916 40.6919 12.0241 38.5659 12.0241C36.806 12.0241 35.2028 12.4876 33.8262 13.4148L33.0419 11.6347C34.5929 10.5778 36.44 10.0586 38.6182 10.0586C42.0511 10.0586 43.933 11.3381 43.933 13.6188C43.933 14.9539 43.3058 15.8624 42.0337 16.326ZM85.1504 21.2954C86.7013 22.4821 88.7053 23.1125 91.0055 23.1125C94.5603 23.1125 96.4945 21.7404 96.4945 19.1816C96.4945 16.7895 95.1005 15.8068 91.2842 15.4915C88.6529 15.2877 87.8165 14.8797 87.8165 13.8413C87.8165 12.6916 88.9666 12.0241 90.866 12.0241C92.4344 12.0241 93.8458 12.4506 94.996 13.3221L95.8324 11.5792C94.4906 10.5778 92.8351 10.0586 90.8834 10.0586C87.6074 10.0586 85.6731 11.5049 85.6731 13.934C85.6731 16.326 87.0673 17.3087 90.866 17.6239C93.4973 17.8279 94.3512 18.2359 94.3512 19.2742C94.3512 20.5166 93.1836 21.147 90.9881 21.147C89.1583 21.147 87.4506 20.5723 86.0566 19.5153L85.1504 21.2954ZM84.5853 19.4451C84.5853 17.869 83.8186 16.8492 82.3199 16.4227C83.5572 15.9592 84.2019 15.032 84.2019 13.6228C84.2019 11.4349 82.8079 10.2852 80.1417 10.2852H73.1191V22.8941H80.3856C83.139 22.8941 84.5853 21.7073 84.5853 19.4451ZM75.2277 15.5698V12.2136H80.1069C81.4313 12.2136 82.1109 12.7884 82.1109 13.901C82.1109 15.0135 81.4313 15.5698 80.0895 15.5698H75.2277ZM82.442 19.2227C82.442 20.3909 81.7274 20.9657 80.316 20.9657H75.2277V17.4982H80.2985C81.7274 17.4982 82.442 18.073 82.442 19.2227ZM69.9081 22.8941L68.636 19.8717H62.6764L61.4045 22.8941H59.1914L64.6281 10.2852H66.7716L72.2083 22.8941H69.9081ZM65.6562 12.603L63.4607 17.9804H67.8519L65.6562 12.603ZM59.1563 20.9657H51.2648V10.2852H49.1562V22.8941H58.3205L59.1563 20.9657ZM25.5694 16.4598L29.8735 22.8941H32.4351L27.1377 15.0135L32.2608 10.2852H29.3682L22.4328 16.775V10.2852H20.3242V22.8941H22.4328V19.371L25.5694 16.4598ZM2.27094 14.8307C1.29328 14.8307 0.5 15.6239 0.5 16.6012C0.5 17.5786 1.29329 18.3717 2.27652 18.3717C4.16483 18.3717 5.70106 19.9019 5.70106 21.7952C5.70106 22.7726 6.49441 23.5657 7.47204 23.5657C8.44968 23.5657 9.24292 22.7726 9.24292 21.7952C9.24292 20.8179 8.44968 20.0248 7.47204 20.0248C6.22623 20.0248 5.13681 19.3601 4.53903 18.3717C4.22625 17.8578 4.04751 17.2491 4.04751 16.6012C4.04751 15.9534 4.22625 15.3502 4.53903 14.8307C5.13681 13.8423 6.22623 13.1777 7.47204 13.1777C8.44968 13.1777 9.24292 12.3845 9.24292 11.4072C9.24292 10.871 9.00274 10.3908 8.62842 10.0668C8.61195 10.0531 8.59548 10.0408 8.57903 10.0284C8.56197 10.0156 8.54494 10.0028 8.52793 9.98856L8.46085 9.93832C8.44968 9.92996 8.43711 9.92299 8.42455 9.91602C8.41199 9.90904 8.39943 9.90207 8.38825 9.89372C8.12007 9.73168 7.80165 9.63672 7.4664 9.63672H7.44968C6.47758 9.64237 5.69552 10.4354 5.69552 11.4072C5.69552 13.2949 4.16483 14.8307 2.27094 14.8307Z" fill="#010101"/>
</g>
<defs>
<clipPath id="clip0_5620_12334">
<rect width="96" height="32" fill="white" transform="translate(0 0.449219)"/>
</clipPath>
</defs>
</svg>
