<svg width="20" height="20" viewBox="0 0 20 20" fill="none" xmlns="http://www.w3.org/2000/svg">
<path d="M1.94466 10.8333C2.40466 10.8333 2.77799 10.46 2.77799 9.99997C2.77799 6.01775 6.01799 2.77775 10.0002 2.77775C12.3824 2.77775 14.5902 3.97331 15.9258 5.89108L14.3013 5.66553C13.8524 5.60775 13.4247 5.92108 13.3613 6.37775C13.298 6.83331 13.6169 7.25442 14.0736 7.31775L17.3447 7.76997C17.3824 7.77442 17.4202 7.77775 17.4591 7.77775C17.6391 7.77775 17.8158 7.71886 17.9624 7.60886C18.138 7.47553 18.2547 7.27775 18.2847 7.05775L18.7369 3.78553C18.8002 3.32997 18.4813 2.90886 18.0247 2.84553C17.5758 2.79108 17.148 3.10108 17.0847 3.55775L16.9547 4.49886C15.2891 2.40219 12.7413 1.11108 10.0002 1.11108C5.09911 1.11108 1.11133 5.09886 1.11133 9.99997C1.11133 10.46 1.48466 10.8333 1.94466 10.8333Z" fill="#A1A1A1"/>
<path d="M18.056 9.16675C17.596 9.16675 17.2226 9.54008 17.2226 10.0001C17.2226 13.9823 13.9826 17.2223 10.0004 17.2223C7.61152 17.2223 5.41152 16.0279 4.07707 14.109L5.70041 14.3334C6.1493 14.389 6.57707 14.0779 6.64041 13.6212C6.70374 13.1645 6.38485 12.7445 5.92818 12.6812L2.65707 12.229C2.44152 12.2012 2.21707 12.2567 2.0393 12.3901C1.86374 12.5234 1.74707 12.7212 1.71707 12.9412L1.26485 16.2134C1.20152 16.669 1.52041 17.0901 1.97707 17.1534C2.01485 17.1579 2.05374 17.1612 2.09263 17.1612C2.50152 17.1612 2.8593 16.859 2.91707 16.4423L3.04707 15.5056C4.71041 17.6023 7.25374 18.8901 10.0015 18.8901C14.9026 18.8901 18.8904 14.9023 18.8904 10.0012C18.8904 9.54119 18.5171 9.16786 18.0571 9.16786L18.056 9.16675Z" fill="#FBFFF1"/>
<path d="M10.0426 12.7777C8.98374 12.7777 8.70707 12.3366 8.57596 11.9044C8.44152 11.4644 7.9804 11.2166 7.53485 11.3499C7.09485 11.4844 6.84707 11.9499 6.9804 12.3899C7.30374 13.451 8.07263 14.1233 9.17151 14.351C9.18485 14.7999 9.54818 15.161 10.0004 15.161C10.4526 15.161 10.8182 14.7977 10.8293 14.3477C11.4171 14.2133 11.9482 13.941 12.3393 13.5388C12.8182 13.0488 13.0715 12.4033 13.056 11.721C13.0215 10.3255 12.0393 9.44549 10.136 9.10549C8.85596 8.8766 8.80596 8.35994 8.78818 8.18994C8.75818 7.86438 8.85818 7.71105 8.93818 7.62327C9.1904 7.3466 9.73596 7.22216 10.0426 7.22216C10.9293 7.22216 11.1726 7.7966 11.2526 7.98438C11.4326 8.40882 11.9248 8.6066 12.3437 8.42771C12.7682 8.24771 12.9671 7.75882 12.786 7.33549C12.4126 6.45438 11.7182 5.87771 10.8326 5.66105V5.54549C10.8326 5.08549 10.4593 4.71216 9.99929 4.71216C9.53929 4.71216 9.16596 5.08549 9.16596 5.54549V5.68549C8.64485 5.81994 8.1004 6.06549 7.70374 6.50216C7.25929 6.99216 7.0604 7.63105 7.12929 8.34882C7.19818 9.07549 7.64485 10.3533 9.84152 10.7444C11.2515 10.9966 11.3793 11.401 11.3882 11.761C11.3948 11.9966 11.3126 12.2033 11.146 12.3733C10.8993 12.6255 10.486 12.7766 10.0415 12.7766L10.0426 12.7777Z" fill="#FBFFF1"/>
</svg>
