<svg width="40" height="41" viewBox="0 0 40 41" fill="none" xmlns="http://www.w3.org/2000/svg">
<path d="M20.0001 14.9444C22.4889 14.9444 24.6267 13.4444 25.5801 11.3044C28.7756 12.9533 31.1512 15.9622 31.9334 19.5177C32.1045 20.2955 32.7956 20.8244 33.5578 20.8244C33.6778 20.8244 33.7978 20.8133 33.92 20.7844C34.8178 20.5866 35.3845 19.6955 35.1867 18.7977C34.1 13.8822 30.6223 9.7955 26.0089 7.85328C25.5356 4.95106 23.0312 2.72217 19.9978 2.72217C16.6267 2.72217 13.8867 5.46217 13.8867 8.83328C13.8867 12.2044 16.6267 14.9444 19.9978 14.9444H20.0001Z" fill="#0070F3"/>
<path d="M13.7471 25.7777C12.5026 23.6244 10.1338 22.5199 7.80487 22.7666C7.63375 19.1733 9.05153 15.6133 11.736 13.1577C12.416 12.5377 12.4626 11.4822 11.8426 10.8022C11.2204 10.1244 10.1671 10.0755 9.48709 10.6977C5.77153 14.0955 3.97153 19.151 4.59598 24.1155C3.60709 24.9199 2.88709 25.9977 2.54931 27.2533C2.12931 28.8288 2.34486 30.4777 3.16042 31.8888C3.97598 33.3022 5.29375 34.3155 6.87153 34.7377C7.39598 34.8777 7.93153 34.9488 8.46264 34.9488C9.52264 34.9488 10.5649 34.671 11.5071 34.1266C14.4226 32.4444 15.4293 28.6999 13.7449 25.7799L13.7471 25.7777Z" fill="#A2B4C9"/>
<path d="M37.4513 27.2532C37.0291 25.6777 36.0158 24.3577 34.6047 23.5421C31.6891 21.8555 27.9402 22.8621 26.2558 25.7799C25.0113 27.9355 25.2424 30.5355 26.6202 32.4288C23.598 34.3732 19.8091 34.9244 16.3291 33.8266C15.4469 33.551 14.5158 34.0377 14.2402 34.9132C13.9624 35.791 14.4491 36.7266 15.3269 37.0044C16.8447 37.4844 18.4113 37.7177 19.9713 37.7177C23.3602 37.7177 26.7091 36.6044 29.4447 34.5177C30.1224 34.771 30.8224 34.9444 31.5402 34.9444C32.0713 34.9444 32.6047 34.8755 33.1313 34.7332C34.7091 34.311 36.0269 33.2977 36.8424 31.8866C37.658 30.4755 37.8758 28.8266 37.4536 27.251L37.4513 27.2532Z" fill="#FBFFF1"/>
</svg>
