<svg width="20" height="20" viewBox="0 0 20 20" fill="none" xmlns="http://www.w3.org/2000/svg">
<path d="M10.0004 9.16658C9.77265 9.16658 9.55709 9.21324 9.35376 9.28547L4.89376 4.82547C4.5682 4.49991 4.04043 4.49991 3.71487 4.82547C3.38931 5.15102 3.38931 5.6788 3.71487 6.00435L8.17487 10.4644C8.10265 10.6677 8.05598 10.8832 8.05598 11.111C8.05598 12.1832 8.9282 13.0555 10.0004 13.0555C11.0726 13.0555 11.9449 12.1832 11.9449 11.111C11.9449 10.0388 11.0726 9.16658 10.0004 9.16658Z" fill="#A1A1A1"/>
<path d="M16.2856 4.8255C16.2789 4.81883 16.27 4.81661 16.2633 4.81106C14.6556 3.21217 12.4411 2.22217 10 2.22217C8.71778 2.22217 7.48 2.48995 6.32111 3.01661C5.90223 3.20661 5.71778 3.70106 5.90778 4.11995C6.09778 4.53883 6.59334 4.72328 7.01111 4.53328C7.69889 4.22106 8.42111 4.02328 9.16556 3.93772V5.27661C9.16556 5.73661 9.53889 6.10995 9.99889 6.10995C10.4589 6.10995 10.8322 5.73661 10.8322 5.27661V3.93995C12.2 4.09772 13.45 4.63995 14.4767 5.45439L13.5344 6.39661C13.2089 6.72217 13.2089 7.24995 13.5344 7.5755C13.6967 7.73772 13.91 7.81995 14.1233 7.81995C14.3367 7.81995 14.55 7.73883 14.7122 7.5755L15.6544 6.63328C16.4689 7.65995 17.01 8.90995 17.1689 10.2777H15.8322C15.3722 10.2777 14.9989 10.6511 14.9989 11.1111C14.9989 11.5711 15.3722 11.9444 15.8322 11.9444H17.1511C16.9978 13.2822 16.4989 14.5411 15.6611 15.5955L14.7122 14.6466C14.3867 14.3211 13.8589 14.3211 13.5333 14.6466C13.2078 14.9722 13.2078 15.4999 13.5333 15.8255L15.1044 17.3966C15.2667 17.5588 15.48 17.6411 15.6933 17.6411C15.9067 17.6411 16.12 17.5599 16.2822 17.3966C17.9611 15.7177 18.8856 13.4855 18.8856 11.1111C18.8856 8.66995 17.8956 6.45661 16.2967 4.84772C16.29 4.84106 16.2889 4.83217 16.2822 4.8255H16.2856Z" fill="#A1A1A1"/>
<path d="M5.28577 14.6465L4.33688 15.5954C3.49911 14.5421 3.00022 13.2821 2.84688 11.9443H4.16577C4.62577 11.9443 4.99911 11.571 4.99911 11.111C4.99911 10.651 4.62577 10.2776 4.16577 10.2776H2.82688C2.91244 9.53207 3.10911 8.80985 3.42244 8.12319C3.61244 7.7043 3.42799 7.20985 3.00911 7.01985C2.59133 6.83096 2.09688 7.0143 1.90577 7.43319C1.37799 8.59207 1.11133 9.82985 1.11133 11.1121C1.11133 13.4865 2.03577 15.7187 3.71466 17.3976C3.87688 17.5599 4.09022 17.6421 4.30355 17.6421C4.51688 17.6421 4.73022 17.561 4.89244 17.3976L6.46355 15.8265C6.78911 15.501 6.78911 14.9732 6.46355 14.6476C6.13799 14.3221 5.61022 14.3221 5.28466 14.6476L5.28577 14.6465Z" fill="#A1A1A1"/>
</svg>
