<svg width="32" height="32" viewBox="0 0 32 32" fill="none" xmlns="http://www.w3.org/2000/svg">
<path d="M9.33339 20.4444H4.88894C3.17339 20.4444 1.77783 19.0488 1.77783 17.3333V9.33328C1.77783 7.61772 3.17339 6.22217 4.88894 6.22217H9.33339C10.0694 6.22217 10.6667 6.8195 10.6667 7.5555C10.6667 8.2915 10.0694 8.88883 9.33339 8.88883H4.88894C4.64361 8.88883 4.4445 9.08795 4.4445 9.33328V17.3333C4.4445 17.5786 4.64361 17.7777 4.88894 17.7777H9.33339C10.0694 17.7777 10.6667 18.3751 10.6667 19.1111C10.6667 19.8471 10.0694 20.4444 9.33339 20.4444Z" fill="#0070F3"/>
<path d="M4.89376 26.2168C4.49198 26.2168 4.09909 26.0391 3.83598 25.6977C3.38976 25.1182 3.49109 24.2897 4.06709 23.8399C4.15065 23.7724 6.16842 22.2222 9.33287 22.2222C10.0689 22.2222 10.6662 22.8195 10.6662 23.5555C10.6662 24.2915 10.0689 24.8888 9.33287 24.8888C7.12487 24.8888 5.71509 25.9342 5.70087 25.9448C5.45909 26.1279 5.17465 26.2168 4.89376 26.2168Z" fill="#FBFFF1"/>
<path d="M26.2221 3.55566H16.4443C14.2399 3.55566 12.4443 5.34944 12.4443 7.55566V24.4446C12.4443 26.6508 14.2399 28.4446 16.4443 28.4446H26.2221C28.4266 28.4446 30.2221 26.6508 30.2221 24.4446V7.55566C30.2221 5.34944 28.4266 3.55566 26.2221 3.55566ZM21.3332 23.1112C20.3519 23.1112 19.5554 22.3148 19.5554 21.3334C19.5554 20.3521 20.3519 19.5557 21.3332 19.5557C22.3146 19.5557 23.111 20.3521 23.111 21.3334C23.111 22.3148 22.3146 23.1112 21.3332 23.1112ZM23.5554 16.0001H19.111C18.375 16.0001 17.7777 15.4028 17.7777 14.6668C17.7777 13.9308 18.375 13.3334 19.111 13.3334H23.5554C24.2914 13.3334 24.8888 13.9308 24.8888 14.6668C24.8888 15.4028 24.2914 16.0001 23.5554 16.0001ZM23.5554 11.5557H19.111C18.375 11.5557 17.7777 10.9583 17.7777 10.2223C17.7777 9.48633 18.375 8.889 19.111 8.889H23.5554C24.2914 8.889 24.8888 9.48633 24.8888 10.2223C24.8888 10.9583 24.2914 11.5557 23.5554 11.5557Z" fill="#FBFFF1"/>
</svg>
