<svg width="32" height="33" viewBox="0 0 32 33" fill="none" xmlns="http://www.w3.org/2000/svg">
<path d="M26.281 5.50057L16.9477 2.5139C16.3272 2.31479 15.6712 2.31657 15.0526 2.5139L5.71744 5.50057C4.42322 5.91479 3.55566 7.1059 3.55566 8.46412V20.0552C3.55566 26.2917 12.3486 29.6179 15.0401 30.489C15.3548 30.5903 15.6766 30.6419 16.0001 30.6419C16.3237 30.6419 16.6437 30.5921 16.9566 30.4908C19.6517 29.6197 28.4446 26.2935 28.4446 20.057V8.46412C28.4446 7.1059 27.5752 5.91479 26.281 5.50057ZM21.5148 13.3032L15.4757 21.3032C15.2481 21.6037 14.9032 21.7939 14.5263 21.8277C14.489 21.8312 14.4499 21.833 14.4108 21.833C14.0748 21.833 13.7494 21.7068 13.5023 21.4757L10.6419 18.809C10.1032 18.3059 10.073 17.4632 10.5743 16.9246C11.0792 16.3859 11.9219 16.3575 12.4588 16.857L14.2383 18.5157L19.3868 11.6961C19.8312 11.1095 20.6668 10.9921 21.2552 11.4366C21.8437 11.881 21.9592 12.7148 21.5148 13.3032Z" fill="#0070F3"/>
</svg>
