<svg width="32" height="33" viewBox="0 0 32 33" fill="none" xmlns="http://www.w3.org/2000/svg">
<path d="M27.5166 6.46996L26.0321 4.98552C24.8588 3.80863 22.809 3.8104 21.6321 4.98552L4.46766 22.1482C3.87922 22.7366 3.55566 23.5171 3.55566 24.3473C3.55566 25.1775 3.87922 25.9597 4.46766 26.5464L5.95211 28.0309C6.54055 28.6193 7.321 28.9429 8.153 28.9429C8.985 28.9429 9.76544 28.6193 10.3521 28.0309L27.5166 10.87C28.105 10.2815 28.4286 9.50107 28.4286 8.67085C28.4286 7.84063 28.105 7.05663 27.5166 6.46996ZM25.6303 8.98374L22.4659 12.1482L20.3521 10.0344L23.5166 6.86996C23.6303 6.75796 23.7619 6.74018 23.8312 6.74018C23.9006 6.74018 24.0321 6.75618 24.1459 6.86996L25.6321 8.35618C25.7441 8.46818 25.7619 8.60152 25.7619 8.66907C25.7619 8.73663 25.7441 8.86996 25.6321 8.98374H25.6303Z" fill="#0070F3"/>
<path d="M12.8765 6.7082L11.1947 6.1482L10.6329 4.46464C10.4516 3.92064 9.55023 3.92064 9.3689 4.46464L8.80712 6.1482L7.12535 6.7082C6.85335 6.79886 6.66846 7.05309 6.66846 7.34109C6.66846 7.62909 6.85335 7.88331 7.12535 7.97397L8.80712 8.53397L9.3689 10.2175C9.45957 10.4895 9.71379 10.6726 10 10.6726C10.2862 10.6726 10.5422 10.4878 10.6311 10.2175L11.1929 8.53397L12.8747 7.97397C13.1467 7.88331 13.3316 7.62909 13.3316 7.34109C13.3316 7.05309 13.1485 6.79886 12.8765 6.7082Z" fill="#A2B4C9"/>
<path d="M29.6142 21.8156L27.3689 21.0672L26.6204 18.8218C26.3769 18.0965 25.1769 18.0965 24.9333 18.8218L24.1849 21.0672L21.9395 21.8156C21.5769 21.9365 21.3315 22.2761 21.3315 22.6583C21.3315 23.0405 21.5769 23.3801 21.9395 23.5009L24.1849 24.2494L24.9333 26.4947C25.0542 26.8574 25.3955 27.1027 25.7778 27.1027C26.16 27.1027 26.4995 26.8574 26.6222 26.4947L27.3707 24.2494L29.616 23.5009C29.9787 23.3801 30.224 23.0405 30.224 22.6583C30.224 22.2761 29.9769 21.9365 29.6142 21.8156Z" fill="#FBFFF1"/>
<path d="M16.4447 4.9445C17.181 4.9445 17.778 4.34755 17.778 3.61117C17.778 2.87479 17.181 2.27783 16.4447 2.27783C15.7083 2.27783 15.1113 2.87479 15.1113 3.61117C15.1113 4.34755 15.7083 4.9445 16.4447 4.9445Z" fill="#FBFFF1"/>
</svg>
