<svg width="40" height="41" viewBox="0 0 40 41" fill="none" xmlns="http://www.w3.org/2000/svg">
<g clip-path="url(#clip0_132_134)">
<path d="M4.99967 14.3888C4.07967 14.3888 3.33301 13.6421 3.33301 12.7221C3.33301 8.04435 6.67967 4.07768 11.2908 3.29101L25.873 0.802124C27.5863 0.513235 29.2352 1.35546 30.0063 2.89546L30.1263 3.13546C30.5375 3.9599 30.1997 4.9599 29.3752 5.36879C28.5486 5.78212 27.553 5.44212 27.1397 4.6199L27.0219 4.38435C26.9152 4.16657 26.6908 4.04435 26.4308 4.08879L11.8486 6.57768C8.84412 7.09101 6.66412 9.67546 6.66412 12.7243C6.66412 13.6443 5.91745 14.391 4.99745 14.391L4.99967 14.3888Z" fill="#0070F3"/>
<path d="M24.4441 21.6109C24.4441 17.9354 27.4352 14.9443 31.1108 14.9443H36.6663V13.2776C36.6663 9.9065 33.9263 7.1665 30.5552 7.1665H9.44412C6.07301 7.1665 3.33301 9.9065 3.33301 13.2776V29.9443C3.33301 33.3154 6.07301 36.0554 9.44412 36.0554H30.5552C33.9263 36.0554 36.6663 33.3154 36.6663 29.9443V28.2776H31.1108C27.4352 28.2776 24.4441 25.2865 24.4441 21.6109Z" fill="#A2B4C9"/>
<path d="M36.6662 24.9443H31.1107C29.2707 24.9443 27.7773 23.4509 27.7773 21.6109C27.7773 19.7709 29.2707 18.2776 31.1107 18.2776H36.6662C37.8929 18.2776 38.8885 19.2731 38.8885 20.4998V22.722C38.8885 23.9487 37.8929 24.9443 36.6662 24.9443Z" fill="#FBFFF1"/>
</g>
<defs>
<clipPath id="clip0_132_134">
<rect width="40" height="40" fill="white" transform="translate(0 0.5)"/>
</clipPath>
</defs>
</svg>
