<svg width="32" height="33" viewBox="0 0 32 33" fill="none" xmlns="http://www.w3.org/2000/svg">
<path d="M23.9998 18.2779C27.9271 18.2779 31.1109 15.0941 31.1109 11.1668C31.1109 7.23942 27.9271 4.05566 23.9998 4.05566C20.0724 4.05566 16.8887 7.23942 16.8887 11.1668C16.8887 15.0941 20.0724 18.2779 23.9998 18.2779Z" fill="#0070F3"/>
<path d="M16.4437 18.2783H10.2215C8.50324 18.2783 7.11035 19.6712 7.11035 21.3894V27.6117C7.11035 29.3299 8.50324 30.7228 10.2215 30.7228H16.4437C18.1619 30.7228 19.5548 29.3299 19.5548 27.6117V21.3894C19.5548 19.6712 18.1619 18.2783 16.4437 18.2783Z" fill="#A2B4C9"/>
<path d="M14.1554 13.6079C14.5501 12.9199 14.5483 12.0666 14.1483 11.3822L9.47452 3.36439C8.66741 1.98661 6.44341 1.98661 5.6363 3.36439L0.960745 11.3822C0.560745 12.0666 0.558967 12.9199 0.953633 13.6079C1.35008 14.2959 2.08786 14.7226 2.88074 14.7226H12.2283C13.0212 14.7226 13.759 14.2959 14.1554 13.6079Z" fill="#FBFFF1"/>
</svg>
