<svg width="32" height="32" viewBox="0 0 32 32" fill="none" xmlns="http://www.w3.org/2000/svg">
<path d="M0.5 16C0.5 7.43959 7.43959 0.5 16 0.5C24.5604 0.5 31.5 7.43959 31.5 16C31.5 24.5604 24.5604 31.5 16 31.5C7.43959 31.5 0.5 24.5604 0.5 16Z" stroke="#434343"/>
<path d="M11.5556 21.1112C11.3849 21.1112 11.2143 21.0463 11.0845 20.9156C10.824 20.6552 10.824 20.2329 11.0845 19.9725L19.9734 11.0845C20.2338 10.824 20.656 10.824 20.9165 11.0845C21.1769 11.3449 21.1769 11.7672 20.9165 12.0276L12.0267 20.9156C11.8969 21.0454 11.7263 21.1112 11.5556 21.1112Z" fill="#FBFFF1"/>
<path d="M20.4445 21.1111C20.2738 21.1111 20.1032 21.0462 19.9734 20.9155L11.0845 12.0266C10.824 11.7662 10.824 11.344 11.0845 11.0835C11.3449 10.8231 11.7672 10.8231 12.0276 11.0835L20.9156 19.9733C21.176 20.2337 21.176 20.656 20.9156 20.9164C20.7858 21.0462 20.6152 21.112 20.4445 21.112V21.1111Z" fill="#FBFFF1"/>
</svg>
