<svg width="332" height="182" viewBox="0 0 332 182" fill="none" xmlns="http://www.w3.org/2000/svg">
<rect x="0.985672" y="0.552566" width="162.831" height="180.258" rx="8.44108" fill="#010101"/>
<rect x="0.985672" y="0.552566" width="162.831" height="180.258" rx="8.44108" stroke="#1A1A1A" stroke-width="0.544586"/>
<path d="M29.6373 22.1462V20.9549H37.9546V22.1462H34.4674V32.0447H33.1245V22.1462H29.6373ZM39.7014 32.0447V23.7274H40.9793V32.0447H39.7014ZM40.3512 22.3411C40.1021 22.3411 39.8873 22.2563 39.7068 22.0866C39.5299 21.917 39.4415 21.713 39.4415 21.4748C39.4415 21.2365 39.5299 21.0325 39.7068 20.8629C39.8873 20.6932 40.1021 20.6084 40.3512 20.6084C40.6003 20.6084 40.8133 20.6932 40.9902 20.8629C41.1707 21.0325 41.2609 21.2365 41.2609 21.4748C41.2609 21.713 41.1707 21.917 40.9902 22.0866C40.8133 22.2563 40.6003 22.3411 40.3512 22.3411ZM43.1675 32.0447V23.7274H44.4021V25.0269H44.5104C44.6836 24.5829 44.9634 24.2382 45.3497 23.9927C45.7359 23.7436 46.1998 23.6191 46.7413 23.6191C47.29 23.6191 47.7467 23.7436 48.1113 23.9927C48.4795 24.2382 48.7665 24.5829 48.9722 25.0269H49.0589C49.2719 24.5974 49.5914 24.2562 50.0173 24.0035C50.4433 23.7472 50.9541 23.6191 51.5497 23.6191C52.2934 23.6191 52.9017 23.8519 53.3746 24.3176C53.8475 24.7797 54.0839 25.4998 54.0839 26.4781V32.0447H52.806V26.4781C52.806 25.8645 52.6381 25.4258 52.3024 25.1623C51.9667 24.8988 51.5714 24.767 51.1166 24.767C50.5317 24.767 50.0787 24.9439 49.7574 25.2977C49.4361 25.6479 49.2755 26.0919 49.2755 26.6298V32.0447H47.9759V26.3482C47.9759 25.8753 47.8225 25.4944 47.5156 25.2056C47.2088 24.9132 46.8135 24.767 46.3298 24.767C45.9977 24.767 45.6872 24.8555 45.3984 25.0324C45.1132 25.2092 44.8822 25.4547 44.7053 25.7688C44.532 26.0792 44.4454 26.4384 44.4454 26.8464V32.0447H43.1675ZM59.7552 32.218C58.9538 32.218 58.2625 32.0411 57.6813 31.6873C57.1037 31.3299 56.6579 30.8317 56.3438 30.1928C56.0333 29.5502 55.8781 28.8029 55.8781 27.951C55.8781 27.0991 56.0333 26.3482 56.3438 25.6984C56.6579 25.045 57.0947 24.536 57.6542 24.1714C58.2174 23.8032 58.8744 23.6191 59.6252 23.6191C60.0584 23.6191 60.4862 23.6913 60.9086 23.8357C61.3309 23.9801 61.7154 24.2147 62.0619 24.5396C62.4085 24.8609 62.6847 25.2869 62.8904 25.8175C63.0962 26.3482 63.1991 27.0016 63.1991 27.7777V28.3192H56.7878V27.2146H61.8995C61.8995 26.7453 61.8056 26.3265 61.6179 25.9583C61.4338 25.5901 61.1703 25.2995 60.8273 25.0865C60.488 24.8735 60.0873 24.767 59.6252 24.767C59.1162 24.767 58.6758 24.8934 58.304 25.1461C57.9358 25.3952 57.6524 25.7201 57.4538 26.1208C57.2553 26.5215 57.156 26.951 57.156 27.4095V28.1459C57.156 28.7741 57.2643 29.3065 57.4809 29.7433C57.7011 30.1765 58.0062 30.5068 58.396 30.7343C58.7859 30.9581 59.239 31.07 59.7552 31.07C60.0909 31.07 60.3941 31.0231 60.6649 30.9292C60.9392 30.8317 61.1757 30.6873 61.3742 30.496C61.5728 30.3011 61.7262 30.0592 61.8345 29.7704L63.0691 30.117C62.9392 30.5357 62.7208 30.9039 62.4139 31.2216C62.1071 31.5357 61.728 31.7812 61.2768 31.958C60.8255 32.1313 60.3183 32.218 59.7552 32.218ZM72.7438 23.7274V24.8103H68.4336V23.7274H72.7438ZM69.6898 21.7347H70.9677V29.6621C70.9677 30.0231 71.0201 30.2939 71.1248 30.4744C71.2331 30.6512 71.3703 30.7704 71.5363 30.8317C71.706 30.8895 71.8847 30.9184 72.0724 30.9184C72.2132 30.9184 72.3287 30.9112 72.4189 30.8967C72.5092 30.8787 72.5814 30.8642 72.6355 30.8534L72.8955 32.0014C72.8088 32.0338 72.6879 32.0663 72.5327 32.0988C72.3774 32.1349 72.1807 32.153 71.9424 32.153C71.5814 32.153 71.2277 32.0754 70.8811 31.9201C70.5382 31.7649 70.253 31.5285 70.0256 31.2108C69.8017 30.8931 69.6898 30.4924 69.6898 30.0087V21.7347ZM77.8032 32.218C77.0524 32.218 76.3935 32.0393 75.8268 31.6819C75.2636 31.3245 74.8232 30.8245 74.5055 30.1819C74.1915 29.5394 74.0344 28.7885 74.0344 27.9293C74.0344 27.063 74.1915 26.3067 74.5055 25.6605C74.8232 25.0143 75.2636 24.5125 75.8268 24.1551C76.3935 23.7978 77.0524 23.6191 77.8032 23.6191C78.5541 23.6191 79.2111 23.7978 79.7742 24.1551C80.341 24.5125 80.7814 25.0143 81.0955 25.6605C81.4132 26.3067 81.572 27.063 81.572 27.9293C81.572 28.7885 81.4132 29.5394 81.0955 30.1819C80.7814 30.8245 80.341 31.3245 79.7742 31.6819C79.2111 32.0393 78.5541 32.218 77.8032 32.218ZM77.8032 31.07C78.3736 31.07 78.8429 30.9238 79.2111 30.6314C79.5793 30.339 79.8519 29.9545 80.0288 29.478C80.2056 29.0015 80.2941 28.4853 80.2941 27.9293C80.2941 27.3734 80.2056 26.8554 80.0288 26.3753C79.8519 25.8951 79.5793 25.5071 79.2111 25.2111C78.8429 24.915 78.3736 24.767 77.8032 24.767C77.2328 24.767 76.7636 24.915 76.3953 25.2111C76.0271 25.5071 75.7546 25.8951 75.5777 26.3753C75.4008 26.8554 75.3124 27.3734 75.3124 27.9293C75.3124 28.4853 75.4008 29.0015 75.5777 29.478C75.7546 29.9545 76.0271 30.339 76.3953 30.6314C76.7636 30.9238 77.2328 31.07 77.8032 31.07ZM87.5064 32.0447V23.7274H88.741V25.0269H88.8493C89.0225 24.5829 89.3023 24.2382 89.6886 23.9927C90.0748 23.7436 90.5387 23.6191 91.0802 23.6191C91.6289 23.6191 92.0856 23.7436 92.4502 23.9927C92.8184 24.2382 93.1054 24.5829 93.3112 25.0269H93.3978C93.6108 24.5974 93.9303 24.2562 94.3562 24.0035C94.7822 23.7472 95.293 23.6191 95.8887 23.6191C96.6323 23.6191 97.2406 23.8519 97.7135 24.3176C98.1864 24.7797 98.4228 25.4998 98.4228 26.4781V32.0447H97.1449V26.4781C97.1449 25.8645 96.9771 25.4258 96.6413 25.1623C96.3056 24.8988 95.9103 24.767 95.4555 24.767C94.8707 24.767 94.4176 24.9439 94.0963 25.2977C93.775 25.6479 93.6144 26.0919 93.6144 26.6298V32.0447H92.3148V26.3482C92.3148 25.8753 92.1614 25.4944 91.8546 25.2056C91.5477 24.9132 91.1524 24.767 90.6687 24.767C90.3366 24.767 90.0261 24.8555 89.7373 25.0324C89.4521 25.2092 89.2211 25.4547 89.0442 25.7688C88.8709 26.0792 88.7843 26.4384 88.7843 26.8464V32.0447H87.5064ZM103.054 32.2396C102.527 32.2396 102.049 32.1403 101.619 31.9418C101.19 31.7396 100.849 31.449 100.596 31.07C100.343 30.6873 100.217 30.2253 100.217 29.6838C100.217 29.2073 100.311 28.821 100.499 28.525C100.686 28.2254 100.937 27.9907 101.251 27.821C101.565 27.6514 101.912 27.525 102.291 27.442C102.674 27.3554 103.058 27.2868 103.444 27.2362C103.95 27.1713 104.359 27.1225 104.674 27.09C104.991 27.0539 105.222 26.9944 105.367 26.9113C105.515 26.8283 105.589 26.6839 105.589 26.4781V26.4348C105.589 25.9006 105.442 25.4854 105.15 25.1894C104.861 24.8934 104.423 24.7454 103.834 24.7454C103.224 24.7454 102.746 24.8789 102.399 25.1461C102.053 25.4132 101.809 25.6984 101.668 26.0016L100.455 25.5684C100.672 25.063 100.961 24.6696 101.322 24.388C101.686 24.1028 102.083 23.9043 102.513 23.7923C102.946 23.6768 103.372 23.6191 103.791 23.6191C104.058 23.6191 104.365 23.6516 104.711 23.7165C105.062 23.7779 105.399 23.9061 105.724 24.101C106.053 24.2959 106.325 24.5901 106.542 24.9836C106.758 25.3771 106.867 25.9042 106.867 26.5648V32.0447H105.589V30.9184H105.524C105.437 31.0989 105.293 31.292 105.09 31.4978C104.888 31.7035 104.619 31.8786 104.284 32.023C103.948 32.1674 103.538 32.2396 103.054 32.2396ZM103.249 31.0917C103.755 31.0917 104.181 30.9924 104.527 30.7938C104.877 30.5953 105.141 30.339 105.318 30.0249C105.498 29.7108 105.589 29.3805 105.589 29.034V27.8644C105.534 27.9293 105.415 27.9889 105.231 28.0431C105.051 28.0936 104.841 28.1387 104.603 28.1784C104.368 28.2145 104.139 28.247 103.915 28.2759C103.695 28.3012 103.517 28.3228 103.379 28.3409C103.047 28.3842 102.737 28.4546 102.448 28.5521C102.163 28.6459 101.932 28.7885 101.755 28.9798C101.582 29.1676 101.495 29.4239 101.495 29.7488C101.495 30.1928 101.659 30.5285 101.988 30.7559C102.32 30.9797 102.74 31.0917 103.249 31.0917ZM109.047 32.0447V23.7274H110.281V24.9836H110.368C110.519 24.5721 110.794 24.2382 111.191 23.9819C111.588 23.7256 112.036 23.5974 112.534 23.5974C112.628 23.5974 112.745 23.5992 112.886 23.6028C113.027 23.6064 113.133 23.6118 113.205 23.6191V24.9186C113.162 24.9078 113.063 24.8916 112.907 24.8699C112.756 24.8446 112.595 24.832 112.425 24.832C112.021 24.832 111.66 24.9168 111.342 25.0865C111.028 25.2526 110.779 25.4836 110.595 25.7796C110.415 26.072 110.324 26.4059 110.324 26.7814V32.0447H109.047ZM115.759 29.0123L115.737 27.4312H115.997L119.636 23.7274H121.217L117.34 27.6478H117.232L115.759 29.0123ZM114.568 32.0447V20.9549H115.845V32.0447H114.568ZM119.852 32.0447L116.604 27.9293L117.513 27.0413L121.477 32.0447H119.852ZM125.854 32.218C125.053 32.218 124.361 32.0411 123.78 31.6873C123.203 31.3299 122.757 30.8317 122.443 30.1928C122.132 29.5502 121.977 28.8029 121.977 27.951C121.977 27.0991 122.132 26.3482 122.443 25.6984C122.757 25.045 123.194 24.536 123.753 24.1714C124.316 23.8032 124.973 23.6191 125.724 23.6191C126.157 23.6191 126.585 23.6913 127.007 23.8357C127.43 23.9801 127.814 24.2147 128.161 24.5396C128.507 24.8609 128.784 25.2869 128.989 25.8175C129.195 26.3482 129.298 27.0016 129.298 27.7777V28.3192H122.887V27.2146H127.998C127.998 26.7453 127.905 26.3265 127.717 25.9583C127.533 25.5901 127.269 25.2995 126.926 25.0865C126.587 24.8735 126.186 24.767 125.724 24.767C125.215 24.767 124.775 24.8934 124.403 25.1461C124.035 25.3952 123.751 25.7201 123.553 26.1208C123.354 26.5215 123.255 26.951 123.255 27.4095V28.1459C123.255 28.7741 123.363 29.3065 123.58 29.7433C123.8 30.1765 124.105 30.5068 124.495 30.7343C124.885 30.9581 125.338 31.07 125.854 31.07C126.19 31.07 126.493 31.0231 126.764 30.9292C127.038 30.8317 127.275 30.6873 127.473 30.496C127.672 30.3011 127.825 30.0592 127.933 29.7704L129.168 30.117C129.038 30.5357 128.82 30.9039 128.513 31.2216C128.206 31.5357 127.827 31.7812 127.376 31.958C126.924 32.1313 126.417 32.218 125.854 32.218ZM134.707 23.7274V24.8103H130.396V23.7274H134.707ZM131.653 21.7347H132.93V29.6621C132.93 30.0231 132.983 30.2939 133.088 30.4744C133.196 30.6512 133.333 30.7704 133.499 30.8317C133.669 30.8895 133.847 30.9184 134.035 30.9184C134.176 30.9184 134.291 30.9112 134.382 30.8967C134.472 30.8787 134.544 30.8642 134.598 30.8534L134.858 32.0014C134.772 32.0338 134.651 32.0663 134.495 32.0988C134.34 32.1349 134.143 32.153 133.905 32.153C133.544 32.153 133.19 32.0754 132.844 31.9201C132.501 31.7649 132.216 31.5285 131.988 31.2108C131.764 30.8931 131.653 30.4924 131.653 30.0087V21.7347Z" fill="#FBFFF1"/>
<rect x="34.2612" y="70.5415" width="26.1401" height="78.4204" rx="4.35669" fill="#1A1A1A"/>
<rect x="34.2612" y="88.5125" width="26.1401" height="60.9936" rx="4.35669" fill="url(#paint0_linear_208_14589)"/>
<path d="M27.7495 156.397V164.319H26.7903V156.397H27.7495ZM30.3529 160.745V164.319H29.4401V158.378H30.3219V159.306H30.3993C30.5385 159.004 30.75 158.762 31.0336 158.579C31.3172 158.393 31.6834 158.3 32.132 158.3C32.5343 158.3 32.8863 158.383 33.188 158.548C33.4896 158.71 33.7243 158.958 33.8919 159.29C34.0595 159.621 34.1433 160.038 34.1433 160.544V164.319H33.2305V160.606C33.2305 160.139 33.1093 159.775 32.8669 159.515C32.6245 159.252 32.2919 159.12 31.869 159.12C31.5777 159.12 31.3172 159.183 31.0877 159.31C30.8608 159.436 30.6816 159.621 30.5501 159.863C30.4186 160.105 30.3529 160.399 30.3529 160.745ZM39.5696 160.745V164.319H38.6568V156.397H39.5696V159.306H39.6469C39.7861 158.999 39.995 158.755 40.2735 158.575C40.5546 158.392 40.9284 158.3 41.3952 158.3C41.8 158.3 42.1545 158.382 42.4588 158.544C42.7631 158.704 42.999 158.95 43.1666 159.283C43.3368 159.613 43.4219 160.033 43.4219 160.544V164.319H42.5091V160.606C42.5091 160.134 42.3866 159.769 42.1416 159.511C41.8993 159.25 41.5628 159.12 41.1321 159.12C40.833 159.12 40.5649 159.183 40.3276 159.31C40.093 159.436 39.9073 159.621 39.7707 159.863C39.6366 160.105 39.5696 160.399 39.5696 160.745ZM47.3964 164.442C46.8601 164.442 46.3895 164.315 45.9846 164.059C45.5824 163.804 45.2678 163.447 45.0409 162.988C44.8166 162.529 44.7044 161.993 44.7044 161.379C44.7044 160.76 44.8166 160.22 45.0409 159.758C45.2678 159.297 45.5824 158.938 45.9846 158.683C46.3895 158.428 46.8601 158.3 47.3964 158.3C47.9327 158.3 48.402 158.428 48.8043 158.683C49.2091 158.938 49.5237 159.297 49.748 159.758C49.9749 160.22 50.0884 160.76 50.0884 161.379C50.0884 161.993 49.9749 162.529 49.748 162.988C49.5237 163.447 49.2091 163.804 48.8043 164.059C48.402 164.315 47.9327 164.442 47.3964 164.442ZM47.3964 163.622C47.8038 163.622 48.139 163.518 48.402 163.309C48.665 163.1 48.8597 162.826 48.9861 162.485C49.1124 162.145 49.1756 161.776 49.1756 161.379C49.1756 160.982 49.1124 160.612 48.9861 160.269C48.8597 159.926 48.665 159.649 48.402 159.437C48.139 159.226 47.8038 159.12 47.3964 159.12C46.989 159.12 46.6538 159.226 46.3908 159.437C46.1278 159.649 45.9331 159.926 45.8067 160.269C45.6804 160.612 45.6172 160.982 45.6172 161.379C45.6172 161.776 45.6804 162.145 45.8067 162.485C45.9331 162.826 46.1278 163.1 46.3908 163.309C46.6538 163.518 46.989 163.622 47.3964 163.622ZM55.1169 161.89V158.378H56.0297V164.319H55.1169V163.313H55.055C54.9157 163.615 54.6991 163.871 54.4052 164.083C54.1112 164.292 53.7399 164.396 53.2913 164.396C52.92 164.396 52.5899 164.315 52.3011 164.152C52.0123 163.987 51.7854 163.74 51.6204 163.41C51.4553 163.077 51.3728 162.658 51.3728 162.153V158.378H52.2856V162.091C52.2856 162.524 52.4068 162.869 52.6492 163.127C52.8942 163.385 53.2062 163.514 53.5852 163.514C53.8121 163.514 54.0429 163.456 54.2776 163.34C54.5148 163.224 54.7133 163.046 54.8732 162.806C55.0356 162.566 55.1169 162.261 55.1169 161.89ZM61.8008 159.708L60.9808 159.94C60.9292 159.804 60.8532 159.671 60.7526 159.542C60.6546 159.41 60.5205 159.302 60.3503 159.217C60.1802 159.132 59.9623 159.089 59.6967 159.089C59.3331 159.089 59.0301 159.173 58.7878 159.341C58.548 159.506 58.428 159.716 58.428 159.971C58.428 160.198 58.5106 160.377 58.6756 160.509C58.8406 160.64 59.0985 160.75 59.4491 160.838L60.331 161.054C60.8622 161.183 61.258 161.38 61.5184 161.646C61.7789 161.909 61.9091 162.248 61.9091 162.663C61.9091 163.004 61.8111 163.308 61.6151 163.576C61.4217 163.844 61.151 164.056 60.8029 164.21C60.4548 164.365 60.0499 164.442 59.5884 164.442C58.9824 164.442 58.4809 164.311 58.0838 164.048C57.6867 163.785 57.4353 163.401 57.3296 162.895L58.196 162.679C58.2785 162.998 58.4345 163.238 58.664 163.398C58.8961 163.558 59.199 163.638 59.5729 163.638C59.9984 163.638 60.3362 163.548 60.5863 163.367C60.839 163.184 60.9653 162.965 60.9653 162.71C60.9653 162.503 60.8931 162.331 60.7487 162.191C60.6043 162.049 60.3826 161.944 60.0835 161.874L59.0933 161.642C58.5492 161.513 58.1496 161.313 57.8943 161.043C57.6416 160.769 57.5152 160.428 57.5152 160.018C57.5152 159.682 57.6094 159.386 57.7976 159.128C57.9884 158.87 58.2476 158.668 58.575 158.521C58.9051 158.374 59.279 158.3 59.6967 158.3C60.2846 158.3 60.7461 158.429 61.0814 158.687C61.4191 158.945 61.659 159.285 61.8008 159.708ZM65.665 164.442C65.0926 164.442 64.5988 164.316 64.1837 164.063C63.7711 163.808 63.4527 163.452 63.2283 162.996C63.0066 162.537 62.8957 162.003 62.8957 161.395C62.8957 160.786 63.0066 160.25 63.2283 159.786C63.4527 159.319 63.7647 158.955 64.1643 158.695C64.5666 158.432 65.0359 158.3 65.5722 158.3C65.8816 158.3 66.1872 158.352 66.4889 158.455C66.7906 158.558 67.0652 158.726 67.3127 158.958C67.5603 159.187 67.7575 159.492 67.9045 159.871C68.0515 160.25 68.125 160.716 68.125 161.271V161.658H63.5455V160.869H67.1967C67.1967 160.533 67.1297 160.234 66.9956 159.971C66.8641 159.708 66.6758 159.501 66.4309 159.348C66.1885 159.196 65.9023 159.12 65.5722 159.12C65.2086 159.12 64.8941 159.211 64.6285 159.391C64.3655 159.569 64.1631 159.801 64.0212 160.087C63.8794 160.373 63.8085 160.68 63.8085 161.008V161.534C63.8085 161.982 63.8859 162.363 64.0406 162.675C64.1979 162.984 64.4157 163.22 64.6942 163.383C64.9727 163.542 65.2963 163.622 65.665 163.622C65.9049 163.622 66.1214 163.589 66.3148 163.522C66.5108 163.452 66.6797 163.349 66.8215 163.212C66.9633 163.073 67.0729 162.9 67.1503 162.694L68.0321 162.942C67.9393 163.241 67.7833 163.504 67.5641 163.731C67.345 163.955 67.0742 164.13 66.7519 164.257C66.4296 164.38 66.0673 164.442 65.665 164.442Z" fill="#FBFFF1"/>
<path d="M28.1769 59.7182H28.8359L30.1541 61.9368H30.2098L31.5279 59.7182H32.187L30.4697 62.5123V64.4709H29.8942V62.5123L28.1769 59.7182ZM33.7821 64.5452C33.4386 64.5452 33.1423 64.4694 32.8933 64.3178C32.6457 64.1646 32.4547 63.9511 32.3201 63.6773C32.187 63.4019 32.1205 63.0816 32.1205 62.7165C32.1205 62.3514 32.187 62.0296 32.3201 61.7511C32.4547 61.4711 32.6419 61.2529 32.8817 61.0967C33.123 60.9389 33.4046 60.86 33.7264 60.86C33.912 60.86 34.0954 60.8909 34.2764 60.9528C34.4574 61.0147 34.6222 61.1152 34.7707 61.2545C34.9192 61.3922 35.0376 61.5747 35.1258 61.8022C35.2139 62.0296 35.258 62.3096 35.258 62.6423V62.8743H32.5104V62.4009H34.7011C34.7011 62.1998 34.6608 62.0203 34.5804 61.8625C34.5015 61.7047 34.3886 61.5802 34.2416 61.4889C34.0961 61.3976 33.9244 61.352 33.7264 61.352C33.5082 61.352 33.3195 61.4061 33.1601 61.5144C33.0023 61.6212 32.8809 61.7604 32.7958 61.9321C32.7107 62.1039 32.6682 62.288 32.6682 62.4844V62.8001C32.6682 63.0693 32.7146 63.2975 32.8074 63.4847C32.9018 63.6703 33.0325 63.8119 33.1996 63.9093C33.3667 64.0053 33.5608 64.0532 33.7821 64.0532C33.926 64.0532 34.0559 64.0331 34.172 63.9929C34.2895 63.9511 34.3909 63.8892 34.476 63.8072C34.5611 63.7237 34.6268 63.62 34.6732 63.4963L35.2023 63.6448C35.1466 63.8243 35.053 63.9821 34.9215 64.1182C34.79 64.2528 34.6276 64.358 34.4342 64.4338C34.2408 64.5081 34.0234 64.5452 33.7821 64.5452ZM37.0748 64.5545C36.8489 64.5545 36.6439 64.5119 36.4598 64.4269C36.2757 64.3402 36.1295 64.2157 36.0212 64.0532C35.9129 63.8892 35.8587 63.6912 35.8587 63.4591C35.8587 63.2549 35.8989 63.0894 35.9794 62.9625C36.0598 62.8341 36.1674 62.7335 36.302 62.6608C36.4366 62.5881 36.5851 62.534 36.7475 62.4984C36.9115 62.4612 37.0763 62.4318 37.2418 62.4102C37.4584 62.3823 37.634 62.3614 37.7686 62.3475C37.9048 62.3321 38.0038 62.3065 38.0657 62.2709C38.1291 62.2354 38.1608 62.1735 38.1608 62.0853V62.0667C38.1608 61.8377 38.0982 61.6598 37.9729 61.533C37.8491 61.4061 37.6611 61.3427 37.4089 61.3427C37.1475 61.3427 36.9425 61.3999 36.794 61.5144C36.6454 61.6289 36.541 61.7511 36.4807 61.8811L35.9608 61.6954C36.0537 61.4788 36.1774 61.3102 36.3321 61.1895C36.4884 61.0673 36.6586 60.9822 36.8427 60.9342C37.0283 60.8847 37.2109 60.86 37.3904 60.86C37.5049 60.86 37.6364 60.8739 37.7849 60.9017C37.935 60.928 38.0796 60.983 38.2189 61.0665C38.3596 61.1501 38.4764 61.2761 38.5693 61.4448C38.6621 61.6134 38.7085 61.8393 38.7085 62.1224V64.4709H38.1608V63.9882H38.133C38.0959 64.0656 38.034 64.1484 37.9473 64.2366C37.8607 64.3247 37.7454 64.3998 37.6015 64.4617C37.4577 64.5235 37.2821 64.5545 37.0748 64.5545ZM37.1583 64.0625C37.3749 64.0625 37.5575 64.02 37.706 63.9349C37.8561 63.8498 37.969 63.7399 38.0448 63.6053C38.1222 63.4707 38.1608 63.3292 38.1608 63.1806V62.6794C38.1376 62.7072 38.0866 62.7328 38.0077 62.756C37.9303 62.7776 37.8406 62.797 37.7385 62.814C37.6379 62.8295 37.5397 62.8434 37.4437 62.8558C37.3494 62.8666 37.2728 62.8759 37.214 62.8836C37.0717 62.9022 36.9386 62.9323 36.8148 62.9741C36.6926 63.0143 36.5936 63.0754 36.5178 63.1574C36.4435 63.2379 36.4064 63.3477 36.4064 63.487C36.4064 63.6773 36.4768 63.8212 36.6176 63.9186C36.7599 64.0145 36.9402 64.0625 37.1583 64.0625ZM39.6428 64.4709V60.9064H40.1719V61.4448H40.209C40.274 61.2684 40.3916 61.1253 40.5618 61.0155C40.732 60.9056 40.9238 60.8507 41.1373 60.8507C41.1775 60.8507 41.2278 60.8515 41.2882 60.853C41.3485 60.8546 41.3941 60.8569 41.4251 60.86V61.4169C41.4065 61.4123 41.364 61.4053 41.2974 61.396C41.2325 61.3852 41.1636 61.3798 41.0909 61.3798C40.9176 61.3798 40.7629 61.4162 40.6268 61.4889C40.4922 61.56 40.3854 61.6591 40.3065 61.7859C40.2292 61.9112 40.1905 62.0543 40.1905 62.2152V64.4709H39.6428ZM43.4657 59.4954L41.9341 65.1857H41.4328L42.9645 59.4954H43.4657ZM44.1239 59.7182H44.8108L46.426 63.6634H46.4817L48.0969 59.7182H48.7838V64.4709H48.2454V60.86H48.199L46.7137 64.4709H46.1939L44.7087 60.86H44.6623V64.4709H44.1239V59.7182ZM51.2462 64.5452C50.9244 64.5452 50.6421 64.4686 50.3992 64.3155C50.1578 64.1623 49.9691 63.948 49.8329 63.6726C49.6983 63.3972 49.631 63.0754 49.631 62.7072C49.631 62.3359 49.6983 62.0118 49.8329 61.7349C49.9691 61.4579 50.1578 61.2429 50.3992 61.0897C50.6421 60.9366 50.9244 60.86 51.2462 60.86C51.568 60.86 51.8496 60.9366 52.091 61.0897C52.3339 61.2429 52.5226 61.4579 52.6572 61.7349C52.7934 62.0118 52.8614 62.3359 52.8614 62.7072C52.8614 63.0754 52.7934 63.3972 52.6572 63.6726C52.5226 63.948 52.3339 64.1623 52.091 64.3155C51.8496 64.4686 51.568 64.5452 51.2462 64.5452ZM51.2462 64.0532C51.4907 64.0532 51.6918 63.9906 51.8496 63.8652C52.0074 63.7399 52.1242 63.5752 52.2 63.3709C52.2758 63.1667 52.3138 62.9455 52.3138 62.7072C52.3138 62.469 52.2758 62.247 52.2 62.0412C52.1242 61.8354 52.0074 61.6691 51.8496 61.5423C51.6918 61.4154 51.4907 61.352 51.2462 61.352C51.0018 61.352 50.8007 61.4154 50.6429 61.5423C50.4851 61.6691 50.3682 61.8354 50.2924 62.0412C50.2166 62.247 50.1787 62.469 50.1787 62.7072C50.1787 62.9455 50.2166 63.1667 50.2924 63.3709C50.3682 63.5752 50.4851 63.7399 50.6429 63.8652C50.8007 63.9906 51.0018 64.0532 51.2462 64.0532ZM54.1798 62.3266V64.4709H53.6321V60.9064H54.1612V61.4633H54.2076C54.2912 61.2823 54.418 61.1369 54.5882 61.0271C54.7584 60.9157 54.9781 60.86 55.2473 60.86C55.4886 60.86 55.6998 60.9095 55.8808 61.0085C56.0619 61.106 56.2026 61.2545 56.3032 61.4541C56.4038 61.6521 56.4541 61.9027 56.4541 62.206V64.4709H55.9064V62.2431C55.9064 61.9631 55.8337 61.7449 55.6882 61.5887C55.5428 61.4309 55.3432 61.352 55.0895 61.352C54.9147 61.352 54.7584 61.3899 54.6207 61.4657C54.4846 61.5415 54.377 61.6521 54.2981 61.7975C54.2192 61.943 54.1798 62.1193 54.1798 62.3266ZM58.9397 60.9064V61.3705H57.0924V60.9064H58.9397ZM57.6308 60.0524H58.1785V63.4498C58.1785 63.6046 58.201 63.7206 58.2458 63.798C58.2922 63.8738 58.351 63.9248 58.4222 63.9511C58.4949 63.9759 58.5715 63.9882 58.6519 63.9882C58.7123 63.9882 58.7618 63.9852 58.8005 63.979C58.8391 63.9712 58.8701 63.965 58.8933 63.9604L59.0047 64.4524C58.9676 64.4663 58.9157 64.4802 58.8492 64.4942C58.7827 64.5096 58.6984 64.5174 58.5962 64.5174C58.4415 64.5174 58.2899 64.4841 58.1414 64.4176C57.9944 64.351 57.8722 64.2497 57.7747 64.1136C57.6788 63.9774 57.6308 63.8057 57.6308 63.5984V60.0524ZM60.3225 62.3266V64.4709H59.7748V59.7182H60.3225V61.4633H60.3689C60.4524 61.2792 60.5777 61.133 60.7448 61.0247C60.9135 60.9149 61.1378 60.86 61.4178 60.86C61.6607 60.86 61.8734 60.9087 62.056 61.0062C62.2386 61.1021 62.3801 61.2498 62.4807 61.4494C62.5828 61.6475 62.6339 61.8996 62.6339 62.206V64.4709H62.0862V62.2431C62.0862 61.96 62.0127 61.7411 61.8657 61.5863C61.7203 61.4301 61.5184 61.352 61.26 61.352C61.0805 61.352 60.9196 61.3899 60.7773 61.4657C60.6365 61.5415 60.5251 61.6521 60.4431 61.7975C60.3627 61.943 60.3225 62.1193 60.3225 62.3266ZM66.0954 61.7047L65.6034 61.8439C65.5724 61.7619 65.5268 61.6823 65.4665 61.6049C65.4077 61.526 65.3272 61.461 65.2251 61.41C65.123 61.3589 64.9923 61.3334 64.8329 61.3334C64.6148 61.3334 64.433 61.3837 64.2875 61.4842C64.1437 61.5832 64.0717 61.7093 64.0717 61.8625C64.0717 61.9987 64.1212 62.1062 64.2202 62.1851C64.3193 62.264 64.474 62.3297 64.6844 62.3823L65.2135 62.5123C65.5322 62.5897 65.7697 62.708 65.9259 62.8674C66.0822 63.0252 66.1603 63.2286 66.1603 63.4777C66.1603 63.6819 66.1015 63.8645 65.984 64.0254C65.8679 64.1863 65.7055 64.3131 65.4966 64.406C65.2878 64.4988 65.0449 64.5452 64.7679 64.5452C64.4044 64.5452 64.1034 64.4663 63.8652 64.3085C63.6269 64.1507 63.4761 63.9202 63.4127 63.6169L63.9325 63.487C63.982 63.6788 64.0756 63.8227 64.2133 63.9186C64.3525 64.0145 64.5343 64.0625 64.7586 64.0625C65.0139 64.0625 65.2166 64.0084 65.3667 63.9001C65.5183 63.7902 65.5941 63.6587 65.5941 63.5055C65.5941 63.3818 65.5508 63.2781 65.4641 63.1946C65.3775 63.1095 65.2444 63.0461 65.065 63.0043L64.4709 62.865C64.1444 62.7877 63.9046 62.6678 63.7515 62.5053C63.5999 62.3413 63.524 62.1363 63.524 61.8904C63.524 61.6892 63.5805 61.5113 63.6935 61.3566C63.8079 61.2019 63.9634 61.0804 64.1599 60.9922C64.3579 60.9041 64.5823 60.86 64.8329 60.86C65.1857 60.86 65.4626 60.9373 65.6637 61.092C65.8664 61.2468 66.0103 61.451 66.0954 61.7047Z" fill="#FBFFF1"/>
<rect x="103.901" y="70.5415" width="26.1401" height="78.4204" rx="4.35669" fill="#1A1A1A"/>
<rect x="103.901" y="127.723" width="26.1401" height="21.7834" rx="4.35669" fill="url(#paint1_linear_208_14589)"/>
<path d="M95.9304 164.319V156.397H96.8896V160.327H96.9824L100.541 156.397H101.794L98.4677 159.971L101.794 164.319H100.634L97.8798 160.636L96.8896 161.75V164.319H95.9304ZM105.464 164.427C104.953 164.427 104.498 164.339 104.099 164.164C103.701 163.989 103.386 163.745 103.151 163.433C102.919 163.118 102.793 162.753 102.772 162.338H103.747C103.767 162.594 103.855 162.814 104.01 163C104.164 163.183 104.367 163.325 104.617 163.425C104.867 163.526 105.144 163.576 105.448 163.576C105.789 163.576 106.09 163.517 106.354 163.398C106.617 163.279 106.823 163.114 106.972 162.903C107.122 162.692 107.197 162.447 107.197 162.168C107.197 161.877 107.124 161.62 106.98 161.398C106.836 161.174 106.624 160.999 106.346 160.872C106.067 160.746 105.727 160.683 105.325 160.683H104.69V159.832H105.325C105.639 159.832 105.915 159.775 106.152 159.662C106.392 159.548 106.579 159.388 106.713 159.182C106.85 158.976 106.918 158.734 106.918 158.455C106.918 158.187 106.859 157.953 106.74 157.755C106.622 157.556 106.454 157.402 106.237 157.291C106.023 157.18 105.771 157.124 105.479 157.124C105.206 157.124 104.948 157.175 104.706 157.275C104.466 157.373 104.27 157.516 104.118 157.705C103.966 157.89 103.883 158.115 103.87 158.378H102.942C102.958 157.963 103.083 157.599 103.317 157.287C103.552 156.972 103.859 156.727 104.238 156.552C104.619 156.377 105.038 156.289 105.495 156.289C105.985 156.289 106.405 156.388 106.756 156.587C107.106 156.783 107.376 157.042 107.564 157.364C107.752 157.687 107.846 158.035 107.846 158.409C107.846 158.855 107.729 159.235 107.495 159.55C107.262 159.864 106.947 160.082 106.547 160.203V160.265C107.047 160.348 107.438 160.56 107.719 160.903C108 161.244 108.14 161.665 108.14 162.168C108.14 162.599 108.023 162.986 107.788 163.328C107.556 163.669 107.239 163.937 106.837 164.133C106.435 164.329 105.977 164.427 105.464 164.427ZM113.033 159.933V160.783H109.567V159.933H113.033ZM114.654 164.319V156.397H115.613V163.468H119.295V164.319H114.654ZM122.296 164.458C121.919 164.458 121.578 164.387 121.271 164.245C120.964 164.101 120.72 163.893 120.54 163.622C120.359 163.349 120.269 163.019 120.269 162.632C120.269 162.292 120.336 162.016 120.47 161.805C120.604 161.591 120.783 161.423 121.008 161.302C121.232 161.181 121.48 161.09 121.75 161.031C122.024 160.969 122.298 160.92 122.574 160.884C122.935 160.838 123.228 160.803 123.452 160.78C123.679 160.754 123.844 160.711 123.947 160.652C124.053 160.593 124.106 160.489 124.106 160.343V160.312C124.106 159.93 124.001 159.633 123.793 159.422C123.586 159.211 123.273 159.105 122.853 159.105C122.417 159.105 122.075 159.2 121.828 159.391C121.58 159.582 121.406 159.786 121.306 160.002L120.439 159.693C120.594 159.332 120.8 159.051 121.058 158.85C121.318 158.646 121.602 158.504 121.909 158.424C122.218 158.342 122.523 158.3 122.822 158.3C123.013 158.3 123.232 158.324 123.479 158.37C123.729 158.414 123.97 158.505 124.203 158.645C124.437 158.784 124.632 158.994 124.787 159.275C124.941 159.556 125.019 159.933 125.019 160.404V164.319H124.106V163.514H124.059C123.998 163.643 123.894 163.781 123.75 163.928C123.606 164.075 123.413 164.2 123.174 164.303C122.934 164.406 122.641 164.458 122.296 164.458ZM122.435 163.638C122.796 163.638 123.1 163.567 123.348 163.425C123.598 163.283 123.786 163.1 123.912 162.876C124.041 162.652 124.106 162.416 124.106 162.168V161.333C124.067 161.379 123.982 161.422 123.851 161.46C123.722 161.496 123.572 161.529 123.402 161.557C123.234 161.583 123.071 161.606 122.911 161.627C122.753 161.645 122.626 161.66 122.528 161.673C122.291 161.704 122.069 161.754 121.862 161.824C121.659 161.891 121.494 161.993 121.367 162.129C121.244 162.264 121.182 162.447 121.182 162.679C121.182 162.996 121.299 163.236 121.534 163.398C121.771 163.558 122.071 163.638 122.435 163.638ZM126.7 164.319V156.397H127.612V159.321H127.69C127.757 159.218 127.85 159.087 127.968 158.927C128.089 158.764 128.262 158.62 128.486 158.494C128.713 158.365 129.02 158.3 129.407 158.3C129.907 158.3 130.348 158.425 130.73 158.675C131.111 158.926 131.409 159.28 131.623 159.739C131.837 160.198 131.944 160.74 131.944 161.364C131.944 161.993 131.837 162.538 131.623 163C131.409 163.459 131.113 163.815 130.734 164.067C130.355 164.317 129.918 164.442 129.422 164.442C129.041 164.442 128.735 164.379 128.506 164.253C128.276 164.124 128.1 163.978 127.976 163.816C127.852 163.651 127.757 163.514 127.69 163.406H127.581V164.319H126.7ZM127.597 161.348C127.597 161.797 127.663 162.193 127.794 162.536C127.926 162.876 128.118 163.143 128.37 163.336C128.623 163.527 128.933 163.622 129.299 163.622C129.68 163.622 129.999 163.522 130.254 163.321C130.512 163.117 130.705 162.844 130.834 162.501C130.966 162.155 131.031 161.771 131.031 161.348C131.031 160.93 130.967 160.554 130.838 160.219C130.712 159.881 130.52 159.614 130.262 159.418C130.006 159.22 129.685 159.12 129.299 159.12C128.927 159.12 128.615 159.214 128.363 159.403C128.11 159.588 127.919 159.849 127.79 160.184C127.661 160.517 127.597 160.905 127.597 161.348ZM137.44 159.708L136.62 159.94C136.568 159.804 136.492 159.671 136.392 159.542C136.294 159.41 136.16 159.302 135.989 159.217C135.819 159.132 135.601 159.089 135.336 159.089C134.972 159.089 134.669 159.173 134.427 159.341C134.187 159.506 134.067 159.716 134.067 159.971C134.067 160.198 134.15 160.377 134.315 160.509C134.48 160.64 134.737 160.75 135.088 160.838L135.97 161.054C136.501 161.183 136.897 161.38 137.157 161.646C137.418 161.909 137.548 162.248 137.548 162.663C137.548 163.004 137.45 163.308 137.254 163.576C137.061 163.844 136.79 164.056 136.442 164.21C136.094 164.365 135.689 164.442 135.227 164.442C134.621 164.442 134.12 164.311 133.723 164.048C133.326 163.785 133.074 163.401 132.969 162.895L133.835 162.679C133.917 162.998 134.073 163.238 134.303 163.398C134.535 163.558 134.838 163.638 135.212 163.638C135.637 163.638 135.975 163.548 136.225 163.367C136.478 163.184 136.604 162.965 136.604 162.71C136.604 162.503 136.532 162.331 136.388 162.191C136.243 162.049 136.022 161.944 135.722 161.874L134.732 161.642C134.188 161.513 133.789 161.313 133.533 161.043C133.281 160.769 133.154 160.428 133.154 160.018C133.154 159.682 133.248 159.386 133.437 159.128C133.627 158.87 133.887 158.668 134.214 158.521C134.544 158.374 134.918 158.3 135.336 158.3C135.924 158.3 136.385 158.429 136.72 158.687C137.058 158.945 137.298 159.285 137.44 159.708Z" fill="#FBFFF1"/>
<path d="M99.736 64.4712H98.2694V59.7184H99.801C100.262 59.7184 100.657 59.8136 100.985 60.0039C101.313 60.1926 101.564 60.4642 101.739 60.8184C101.914 61.1712 102.001 61.5935 102.001 62.0855C102.001 62.5806 101.913 63.0068 101.736 63.3642C101.56 63.7201 101.303 63.9939 100.966 64.1857C100.629 64.376 100.219 64.4712 99.736 64.4712ZM98.8449 63.9606H99.6989C100.092 63.9606 100.418 63.8848 100.676 63.7332C100.934 63.5816 101.127 63.3658 101.254 63.0857C101.381 62.8057 101.444 62.4723 101.444 62.0855C101.444 61.7018 101.381 61.3715 101.256 61.0946C101.131 60.8161 100.944 60.6026 100.694 60.4541C100.445 60.304 100.135 60.229 99.7639 60.229H98.8449V63.9606ZM103.876 64.5547C103.65 64.5547 103.445 64.5122 103.261 64.4271C103.077 64.3405 102.93 64.2159 102.822 64.0535C102.714 63.8895 102.66 63.6914 102.66 63.4594C102.66 63.2552 102.7 63.0896 102.78 62.9627C102.861 62.8343 102.968 62.7338 103.103 62.6611C103.238 62.5883 103.386 62.5342 103.549 62.4986C103.713 62.4615 103.877 62.4321 104.043 62.4104C104.259 62.3826 104.435 62.3617 104.57 62.3478C104.706 62.3323 104.805 62.3068 104.867 62.2712C104.93 62.2356 104.962 62.1737 104.962 62.0855V62.067C104.962 61.838 104.899 61.6601 104.774 61.5332C104.65 61.4063 104.462 61.3429 104.21 61.3429C103.948 61.3429 103.743 61.4002 103.595 61.5146C103.446 61.6291 103.342 61.7514 103.282 61.8813L102.762 61.6957C102.855 61.4791 102.978 61.3104 103.133 61.1898C103.289 61.0675 103.46 60.9824 103.644 60.9345C103.829 60.885 104.012 60.8602 104.191 60.8602C104.306 60.8602 104.437 60.8741 104.586 60.902C104.736 60.9283 104.881 60.9832 105.02 61.0668C105.161 61.1503 105.277 61.2764 105.37 61.445C105.463 61.6137 105.51 61.8395 105.51 62.1227V64.4712H104.962V63.9885H104.934C104.897 64.0658 104.835 64.1486 104.748 64.2368C104.662 64.325 104.546 64.4 104.403 64.4619C104.259 64.5238 104.083 64.5547 103.876 64.5547ZM103.959 64.0628C104.176 64.0628 104.358 64.0202 104.507 63.9351C104.657 63.85 104.77 63.7402 104.846 63.6056C104.923 63.471 104.962 63.3294 104.962 63.1809V62.6796C104.939 62.7075 104.888 62.733 104.809 62.7562C104.731 62.7779 104.642 62.7972 104.539 62.8142C104.439 62.8297 104.341 62.8436 104.245 62.856C104.15 62.8668 104.074 62.8761 104.015 62.8838C103.873 62.9024 103.74 62.9326 103.616 62.9744C103.494 63.0146 103.395 63.0757 103.319 63.1577C103.245 63.2381 103.207 63.348 103.207 63.4872C103.207 63.6775 103.278 63.8214 103.419 63.9189C103.561 64.0148 103.741 64.0628 103.959 64.0628ZM106.669 65.8079C106.576 65.8079 106.493 65.8002 106.421 65.7847C106.348 65.7708 106.298 65.7568 106.27 65.7429L106.409 65.2602C106.542 65.2943 106.66 65.3066 106.762 65.2974C106.864 65.2881 106.954 65.2424 107.033 65.1604C107.114 65.08 107.187 64.9493 107.254 64.7682L107.356 64.4898L106.038 60.9066H106.632L107.616 63.7471H107.653L108.637 60.9066H109.231L107.718 64.991C107.65 65.1751 107.565 65.3275 107.465 65.4482C107.364 65.5704 107.248 65.6609 107.114 65.7197C106.983 65.7785 106.834 65.8079 106.669 65.8079ZM112.413 61.7049L111.921 61.8442C111.89 61.7622 111.845 61.6825 111.784 61.6052C111.726 61.5262 111.645 61.4613 111.543 61.4102C111.441 61.3592 111.31 61.3336 111.151 61.3336C110.933 61.3336 110.751 61.3839 110.606 61.4845C110.462 61.5835 110.39 61.7096 110.39 61.8627C110.39 61.9989 110.439 62.1064 110.538 62.1853C110.637 62.2642 110.792 62.33 111.002 62.3826L111.532 62.5125C111.85 62.5899 112.088 62.7082 112.244 62.8676C112.4 63.0254 112.478 63.2289 112.478 63.4779C112.478 63.6822 112.42 63.8647 112.302 64.0256C112.186 64.1865 112.024 64.3134 111.815 64.4062C111.606 64.499 111.363 64.5455 111.086 64.5455C110.722 64.5455 110.421 64.4666 110.183 64.3087C109.945 64.1509 109.794 63.9204 109.731 63.6172L110.251 63.4872C110.3 63.6791 110.394 63.8229 110.531 63.9189C110.671 64.0148 110.852 64.0628 111.077 64.0628C111.332 64.0628 111.535 64.0086 111.685 63.9003C111.836 63.7905 111.912 63.659 111.912 63.5058C111.912 63.382 111.869 63.2784 111.782 63.1948C111.696 63.1097 111.562 63.0463 111.383 63.0045L110.789 62.8653C110.462 62.7879 110.223 62.668 110.069 62.5056C109.918 62.3416 109.842 62.1366 109.842 61.8906C109.842 61.6895 109.899 61.5116 110.011 61.3568C110.126 61.2021 110.281 61.0807 110.478 60.9925C110.676 60.9043 110.9 60.8602 111.151 60.8602C111.504 60.8602 111.781 60.9376 111.982 61.0923C112.184 61.247 112.328 61.4512 112.413 61.7049ZM114.918 59.4957L113.386 65.186H112.885L114.416 59.4957H114.918ZM116.439 64.4712L115.139 59.7184H115.724L116.717 63.5893H116.764L117.776 59.7184H118.426L119.437 63.5893H119.484L120.477 59.7184H121.062L119.762 64.4712H119.168L118.119 60.6838H118.082L117.033 64.4712H116.439ZM122.802 64.5455C122.458 64.5455 122.162 64.4696 121.913 64.318C121.666 64.1649 121.475 63.9514 121.34 63.6775C121.207 63.4021 121.14 63.0819 121.14 62.7168C121.14 62.3516 121.207 62.0298 121.34 61.7514C121.475 61.4713 121.662 61.2532 121.902 61.0969C122.143 60.9391 122.424 60.8602 122.746 60.8602C122.932 60.8602 123.115 60.8912 123.296 60.953C123.477 61.0149 123.642 61.1155 123.791 61.2547C123.939 61.3924 124.057 61.575 124.146 61.8024C124.234 62.0298 124.278 62.3099 124.278 62.6425V62.8746H121.53V62.4011H123.721C123.721 62.2 123.681 62.0206 123.6 61.8627C123.521 61.7049 123.408 61.5804 123.261 61.4891C123.116 61.3978 122.944 61.3522 122.746 61.3522C122.528 61.3522 122.339 61.4063 122.18 61.5146C122.022 61.6214 121.901 61.7606 121.816 61.9324C121.731 62.1041 121.688 62.2882 121.688 62.4847V62.8003C121.688 63.0695 121.734 63.2977 121.827 63.4849C121.922 63.6706 122.052 63.8121 122.219 63.9096C122.387 64.0055 122.581 64.0535 122.802 64.0535C122.946 64.0535 123.076 64.0334 123.192 63.9931C123.309 63.9514 123.411 63.8895 123.496 63.8075C123.581 63.7239 123.647 63.6203 123.693 63.4965L124.222 63.645C124.167 63.8245 124.073 63.9823 123.941 64.1184C123.81 64.253 123.647 64.3583 123.454 64.4341C123.261 64.5083 123.043 64.5455 122.802 64.5455ZM126.54 64.5455C126.197 64.5455 125.9 64.4696 125.651 64.318C125.404 64.1649 125.213 63.9514 125.078 63.6775C124.945 63.4021 124.879 63.0819 124.879 62.7168C124.879 62.3516 124.945 62.0298 125.078 61.7514C125.213 61.4713 125.4 61.2532 125.64 61.0969C125.881 60.9391 126.163 60.8602 126.484 60.8602C126.67 60.8602 126.853 60.8912 127.034 60.953C127.216 61.0149 127.38 61.1155 127.529 61.2547C127.677 61.3924 127.796 61.575 127.884 61.8024C127.972 62.0298 128.016 62.3099 128.016 62.6425V62.8746H125.268V62.4011H127.459C127.459 62.2 127.419 62.0206 127.339 61.8627C127.26 61.7049 127.147 61.5804 127 61.4891C126.854 61.3978 126.683 61.3522 126.484 61.3522C126.266 61.3522 126.078 61.4063 125.918 61.5146C125.76 61.6214 125.639 61.7606 125.554 61.9324C125.469 62.1041 125.426 62.2882 125.426 62.4847V62.8003C125.426 63.0695 125.473 63.2977 125.566 63.4849C125.66 63.6706 125.791 63.8121 125.958 63.9096C126.125 64.0055 126.319 64.0535 126.54 64.0535C126.684 64.0535 126.814 64.0334 126.93 63.9931C127.048 63.9514 127.149 63.8895 127.234 63.8075C127.319 63.7239 127.385 63.6203 127.431 63.4965L127.96 63.645C127.905 63.8245 127.811 63.9823 127.68 64.1184C127.548 64.253 127.386 64.3583 127.192 64.4341C126.999 64.5083 126.782 64.5455 126.54 64.5455ZM129.294 63.1716L129.285 62.494H129.397L130.956 60.9066H131.634L129.972 62.5868H129.926L129.294 63.1716ZM128.784 64.4712V59.7184H129.332V64.4712H128.784ZM131.049 64.4712L129.656 62.7075L130.046 62.3269L131.745 64.4712H131.049ZM134.798 61.7049L134.306 61.8442C134.275 61.7622 134.23 61.6825 134.169 61.6052C134.11 61.5262 134.03 61.4613 133.928 61.4102C133.826 61.3592 133.695 61.3336 133.536 61.3336C133.318 61.3336 133.136 61.3839 132.99 61.4845C132.846 61.5835 132.775 61.7096 132.775 61.8627C132.775 61.9989 132.824 62.1064 132.923 62.1853C133.022 62.2642 133.177 62.33 133.387 62.3826L133.916 62.5125C134.235 62.5899 134.472 62.7082 134.629 62.8676C134.785 63.0254 134.863 63.2289 134.863 63.4779C134.863 63.6822 134.804 63.8647 134.687 64.0256C134.571 64.1865 134.408 64.3134 134.199 64.4062C133.991 64.499 133.748 64.5455 133.471 64.5455C133.107 64.5455 132.806 64.4666 132.568 64.3087C132.33 64.1509 132.179 63.9204 132.115 63.6172L132.635 63.4872C132.685 63.6791 132.778 63.8229 132.916 63.9189C133.055 64.0148 133.237 64.0628 133.461 64.0628C133.717 64.0628 133.919 64.0086 134.069 63.9003C134.221 63.7905 134.297 63.659 134.297 63.5058C134.297 63.382 134.254 63.2784 134.167 63.1948C134.08 63.1097 133.947 63.0463 133.768 63.0045L133.174 62.8653C132.847 62.7879 132.607 62.668 132.454 62.5056C132.303 62.3416 132.227 62.1366 132.227 61.8906C132.227 61.6895 132.283 61.5116 132.396 61.3568C132.511 61.2021 132.666 61.0807 132.863 60.9925C133.061 60.9043 133.285 60.8602 133.536 60.8602C133.888 60.8602 134.165 60.9376 134.367 61.0923C134.569 61.247 134.713 61.4512 134.798 61.7049Z" fill="#FBFFF1"/>
<rect x="168.718" y="0.552566" width="162.831" height="180.258" rx="8.44108" fill="#010101"/>
<rect x="168.718" y="0.552566" width="162.831" height="180.258" rx="8.44108" stroke="#1A1A1A" stroke-width="0.544586"/>
<path d="M234.87 22.1462V20.9549H243.187V22.1462H239.7V32.0447H238.357V22.1462H234.87ZM253.569 24.4205H252.226C252.147 24.0342 252.008 23.6949 251.809 23.4025C251.614 23.1101 251.376 22.8646 251.095 22.666C250.817 22.4639 250.508 22.3123 250.169 22.2112C249.829 22.1101 249.476 22.0596 249.107 22.0596C248.436 22.0596 247.828 22.2292 247.283 22.5686C246.741 22.9079 246.31 23.4079 245.988 24.0685C245.671 24.7291 245.512 25.5396 245.512 26.4998C245.512 27.46 245.671 28.2705 245.988 28.9311C246.31 29.5917 246.741 30.0917 247.283 30.431C247.828 30.7704 248.436 30.94 249.107 30.94C249.476 30.94 249.829 30.8895 250.169 30.7884C250.508 30.6873 250.817 30.5375 251.095 30.339C251.376 30.1368 251.614 29.8895 251.809 29.5971C252.008 29.3011 252.147 28.9618 252.226 28.5791H253.569C253.468 29.1459 253.284 29.6531 253.017 30.1007C252.75 30.5484 252.418 30.9292 252.021 31.2433C251.624 31.5537 251.178 31.7902 250.683 31.9526C250.192 32.1151 249.667 32.1963 249.107 32.1963C248.162 32.1963 247.32 31.9653 246.584 31.5032C245.848 31.0411 245.268 30.3841 244.846 29.5322C244.423 28.6802 244.212 27.6694 244.212 26.4998C244.212 25.3302 244.423 24.3194 244.846 23.4674C245.268 22.6155 245.848 21.9585 246.584 21.4964C247.32 21.0343 248.162 20.8033 249.107 20.8033C249.667 20.8033 250.192 20.8845 250.683 21.047C251.178 21.2094 251.624 21.4477 252.021 21.7617C252.418 22.0722 252.75 22.4512 253.017 22.8989C253.284 23.3429 253.468 23.8501 253.569 24.4205ZM264.944 26.4998C264.944 27.6694 264.733 28.6802 264.31 29.5322C263.888 30.3841 263.308 31.0411 262.572 31.5032C261.836 31.9653 260.995 32.1963 260.049 32.1963C259.103 32.1963 258.262 31.9653 257.525 31.5032C256.789 31.0411 256.21 30.3841 255.787 29.5322C255.365 28.6802 255.154 27.6694 255.154 26.4998C255.154 25.3302 255.365 24.3194 255.787 23.4674C256.21 22.6155 256.789 21.9585 257.525 21.4964C258.262 21.0343 259.103 20.8033 260.049 20.8033C260.995 20.8033 261.836 21.0343 262.572 21.4964C263.308 21.9585 263.888 22.6155 264.31 23.4674C264.733 24.3194 264.944 25.3302 264.944 26.4998ZM263.644 26.4998C263.644 25.5396 263.484 24.7291 263.162 24.0685C262.845 23.4079 262.413 22.9079 261.868 22.5686C261.327 22.2292 260.72 22.0596 260.049 22.0596C259.377 22.0596 258.769 22.2292 258.224 22.5686C257.682 22.9079 257.251 23.4079 256.93 24.0685C256.612 24.7291 256.453 25.5396 256.453 26.4998C256.453 27.46 256.612 28.2705 256.93 28.9311C257.251 29.5917 257.682 30.0917 258.224 30.431C258.769 30.7704 259.377 30.94 260.049 30.94C260.72 30.94 261.327 30.7704 261.868 30.431C262.413 30.0917 262.845 29.5917 263.162 28.9311C263.484 28.2705 263.644 27.46 263.644 26.4998Z" fill="#FBFFF1"/>
<rect x="201.994" y="70.5415" width="26.1401" height="78.4204" rx="4.35669" fill="#1A1A1A"/>
<rect x="201.994" y="81.4329" width="26.1401" height="67.5287" rx="4.35669" fill="url(#paint2_linear_208_14589)"/>
<path d="M195.482 156.397V164.319H194.523V156.397H195.482ZM198.085 160.745V164.319H197.172V158.378H198.054V159.306H198.132C198.271 159.004 198.482 158.762 198.766 158.579C199.05 158.393 199.416 158.3 199.864 158.3C200.267 158.3 200.619 158.383 200.92 158.548C201.222 158.71 201.457 158.958 201.624 159.29C201.792 159.621 201.876 160.038 201.876 160.544V164.319H200.963V160.606C200.963 160.139 200.842 159.775 200.599 159.515C200.357 159.252 200.024 159.12 199.601 159.12C199.31 159.12 199.05 159.183 198.82 159.31C198.593 159.436 198.414 159.621 198.283 159.863C198.151 160.105 198.085 160.399 198.085 160.745ZM207.302 160.745V164.319H206.389V156.397H207.302V159.306H207.379C207.519 158.999 207.727 158.755 208.006 158.575C208.287 158.392 208.661 158.3 209.128 158.3C209.532 158.3 209.887 158.382 210.191 158.544C210.495 158.704 210.731 158.95 210.899 159.283C211.069 159.613 211.154 160.033 211.154 160.544V164.319H210.242V160.606C210.242 160.134 210.119 159.769 209.874 159.511C209.632 159.25 209.295 159.12 208.865 159.12C208.565 159.12 208.297 159.183 208.06 159.31C207.825 159.436 207.64 159.621 207.503 159.863C207.369 160.105 207.302 160.399 207.302 160.745ZM215.129 164.442C214.592 164.442 214.122 164.315 213.717 164.059C213.315 163.804 213 163.447 212.773 162.988C212.549 162.529 212.437 161.993 212.437 161.379C212.437 160.76 212.549 160.22 212.773 159.758C213 159.297 213.315 158.938 213.717 158.683C214.122 158.428 214.592 158.3 215.129 158.3C215.665 158.3 216.134 158.428 216.537 158.683C216.942 158.938 217.256 159.297 217.48 159.758C217.707 160.22 217.821 160.76 217.821 161.379C217.821 161.993 217.707 162.529 217.48 162.988C217.256 163.447 216.942 163.804 216.537 164.059C216.134 164.315 215.665 164.442 215.129 164.442ZM215.129 163.622C215.536 163.622 215.871 163.518 216.134 163.309C216.397 163.1 216.592 162.826 216.718 162.485C216.845 162.145 216.908 161.776 216.908 161.379C216.908 160.982 216.845 160.612 216.718 160.269C216.592 159.926 216.397 159.649 216.134 159.437C215.871 159.226 215.536 159.12 215.129 159.12C214.721 159.12 214.386 159.226 214.123 159.437C213.86 159.649 213.665 159.926 213.539 160.269C213.413 160.612 213.35 160.982 213.35 161.379C213.35 161.776 213.413 162.145 213.539 162.485C213.665 162.826 213.86 163.1 214.123 163.309C214.386 163.518 214.721 163.622 215.129 163.622ZM222.849 161.89V158.378H223.762V164.319H222.849V163.313H222.787C222.648 163.615 222.432 163.871 222.138 164.083C221.844 164.292 221.472 164.396 221.024 164.396C220.652 164.396 220.322 164.315 220.034 164.152C219.745 163.987 219.518 163.74 219.353 163.41C219.188 163.077 219.105 162.658 219.105 162.153V158.378H220.018V162.091C220.018 162.524 220.139 162.869 220.382 163.127C220.627 163.385 220.939 163.514 221.318 163.514C221.545 163.514 221.775 163.456 222.01 163.34C222.247 163.224 222.446 163.046 222.606 162.806C222.768 162.566 222.849 162.261 222.849 161.89ZM229.533 159.708L228.713 159.94C228.662 159.804 228.586 159.671 228.485 159.542C228.387 159.41 228.253 159.302 228.083 159.217C227.913 159.132 227.695 159.089 227.429 159.089C227.066 159.089 226.763 159.173 226.52 159.341C226.28 159.506 226.16 159.716 226.16 159.971C226.16 160.198 226.243 160.377 226.408 160.509C226.573 160.64 226.831 160.75 227.182 160.838L228.063 161.054C228.595 161.183 228.99 161.38 229.251 161.646C229.511 161.909 229.641 162.248 229.641 162.663C229.641 163.004 229.544 163.308 229.348 163.576C229.154 163.844 228.883 164.056 228.535 164.21C228.187 164.365 227.782 164.442 227.321 164.442C226.715 164.442 226.213 164.311 225.816 164.048C225.419 163.785 225.168 163.401 225.062 162.895L225.928 162.679C226.011 162.998 226.167 163.238 226.396 163.398C226.628 163.558 226.931 163.638 227.305 163.638C227.731 163.638 228.069 163.548 228.319 163.367C228.571 163.184 228.698 162.965 228.698 162.71C228.698 162.503 228.626 162.331 228.481 162.191C228.337 162.049 228.115 161.944 227.816 161.874L226.826 161.642C226.282 161.513 225.882 161.313 225.627 161.043C225.374 160.769 225.248 160.428 225.248 160.018C225.248 159.682 225.342 159.386 225.53 159.128C225.721 158.87 225.98 158.668 226.307 158.521C226.637 158.374 227.011 158.3 227.429 158.3C228.017 158.3 228.479 158.429 228.814 158.687C229.152 158.945 229.391 159.285 229.533 159.708ZM233.397 164.442C232.825 164.442 232.331 164.316 231.916 164.063C231.504 163.808 231.185 163.452 230.961 162.996C230.739 162.537 230.628 162.003 230.628 161.395C230.628 160.786 230.739 160.25 230.961 159.786C231.185 159.319 231.497 158.955 231.897 158.695C232.299 158.432 232.768 158.3 233.305 158.3C233.614 158.3 233.92 158.352 234.221 158.455C234.523 158.558 234.798 158.726 235.045 158.958C235.293 159.187 235.49 159.492 235.637 159.871C235.784 160.25 235.857 160.716 235.857 161.271V161.658H231.278V160.869H234.929C234.929 160.533 234.862 160.234 234.728 159.971C234.596 159.708 234.408 159.501 234.163 159.348C233.921 159.196 233.635 159.12 233.305 159.12C232.941 159.12 232.626 159.211 232.361 159.391C232.098 159.569 231.895 159.801 231.754 160.087C231.612 160.373 231.541 160.68 231.541 161.008V161.534C231.541 161.982 231.618 162.363 231.773 162.675C231.93 162.984 232.148 163.22 232.427 163.383C232.705 163.542 233.029 163.622 233.397 163.622C233.637 163.622 233.854 163.589 234.047 163.522C234.243 163.452 234.412 163.349 234.554 163.212C234.696 163.073 234.805 162.9 234.883 162.694L235.765 162.942C235.672 163.241 235.516 163.504 235.297 163.731C235.077 163.955 234.807 164.13 234.484 164.257C234.162 164.38 233.8 164.442 233.397 164.442Z" fill="#FBFFF1"/>
<rect x="271.634" y="70.5415" width="26.1401" height="78.4204" rx="4.35669" fill="#1A1A1A"/>
<rect x="272" y="126" width="26" height="23" rx="4.35669" fill="url(#paint3_linear_208_14589)"/>
<path d="M263.663 164.319V156.397H264.622V160.327H264.715L268.273 156.397H269.526L266.2 159.971L269.526 164.319H268.366L265.612 160.636L264.622 161.75V164.319H263.663ZM273.196 164.427C272.686 164.427 272.231 164.339 271.831 164.164C271.434 163.989 271.118 163.745 270.883 163.433C270.651 163.118 270.525 162.753 270.504 162.338H271.479C271.5 162.594 271.587 162.814 271.742 163C271.897 163.183 272.099 163.325 272.349 163.425C272.599 163.526 272.877 163.576 273.181 163.576C273.521 163.576 273.823 163.517 274.086 163.398C274.349 163.279 274.555 163.114 274.705 162.903C274.854 162.692 274.929 162.447 274.929 162.168C274.929 161.877 274.857 161.62 274.713 161.398C274.568 161.174 274.357 160.999 274.078 160.872C273.8 160.746 273.459 160.683 273.057 160.683H272.423V159.832H273.057C273.372 159.832 273.648 159.775 273.885 159.662C274.125 159.548 274.312 159.388 274.446 159.182C274.582 158.976 274.651 158.734 274.651 158.455C274.651 158.187 274.591 157.953 274.473 157.755C274.354 157.556 274.186 157.402 273.97 157.291C273.756 157.18 273.503 157.124 273.212 157.124C272.938 157.124 272.681 157.175 272.438 157.275C272.198 157.373 272.002 157.516 271.85 157.705C271.698 157.89 271.616 158.115 271.603 158.378H270.675C270.69 157.963 270.815 157.599 271.05 157.287C271.284 156.972 271.591 156.727 271.97 156.552C272.352 156.377 272.771 156.289 273.227 156.289C273.717 156.289 274.137 156.388 274.488 156.587C274.839 156.783 275.108 157.042 275.297 157.364C275.485 157.687 275.579 158.035 275.579 158.409C275.579 158.855 275.462 159.235 275.227 159.55C274.995 159.864 274.679 160.082 274.279 160.203V160.265C274.78 160.348 275.17 160.56 275.451 160.903C275.732 161.244 275.873 161.665 275.873 162.168C275.873 162.599 275.756 162.986 275.521 163.328C275.289 163.669 274.972 163.937 274.569 164.133C274.167 164.329 273.709 164.427 273.196 164.427ZM280.765 159.933V160.783H277.299V159.933H280.765ZM282.386 164.319V156.397H283.345V163.468H287.027V164.319H282.386ZM290.028 164.458C289.652 164.458 289.31 164.387 289.003 164.245C288.696 164.101 288.453 163.893 288.272 163.622C288.092 163.349 288.001 163.019 288.001 162.632C288.001 162.292 288.068 162.016 288.203 161.805C288.337 161.591 288.516 161.423 288.74 161.302C288.964 161.181 289.212 161.09 289.483 161.031C289.756 160.969 290.031 160.92 290.307 160.884C290.668 160.838 290.96 160.803 291.185 160.78C291.411 160.754 291.577 160.711 291.68 160.652C291.785 160.593 291.838 160.489 291.838 160.343V160.312C291.838 159.93 291.734 159.633 291.525 159.422C291.319 159.211 291.005 159.105 290.585 159.105C290.149 159.105 289.808 159.2 289.56 159.391C289.313 159.582 289.139 159.786 289.038 160.002L288.172 159.693C288.326 159.332 288.533 159.051 288.79 158.85C289.051 158.646 289.334 158.504 289.641 158.424C289.951 158.342 290.255 158.3 290.554 158.3C290.745 158.3 290.964 158.324 291.212 158.37C291.462 158.414 291.703 158.505 291.935 158.645C292.17 158.784 292.364 158.994 292.519 159.275C292.674 159.556 292.751 159.933 292.751 160.404V164.319H291.838V163.514H291.792C291.73 163.643 291.627 163.781 291.482 163.928C291.338 164.075 291.146 164.2 290.906 164.303C290.666 164.406 290.374 164.458 290.028 164.458ZM290.167 163.638C290.528 163.638 290.833 163.567 291.08 163.425C291.33 163.283 291.518 163.1 291.645 162.876C291.774 162.652 291.838 162.416 291.838 162.168V161.333C291.8 161.379 291.714 161.422 291.583 161.46C291.454 161.496 291.304 161.529 291.134 161.557C290.967 161.583 290.803 161.606 290.643 161.627C290.486 161.645 290.358 161.66 290.26 161.673C290.023 161.704 289.801 161.754 289.595 161.824C289.391 161.891 289.226 161.993 289.1 162.129C288.976 162.264 288.914 162.447 288.914 162.679C288.914 162.996 289.031 163.236 289.266 163.398C289.503 163.558 289.804 163.638 290.167 163.638ZM294.432 164.319V156.397H295.345V159.321H295.422C295.489 159.218 295.582 159.087 295.701 158.927C295.822 158.764 295.995 158.62 296.219 158.494C296.446 158.365 296.753 158.3 297.139 158.3C297.64 158.3 298.081 158.425 298.462 158.675C298.844 158.926 299.142 159.28 299.356 159.739C299.57 160.198 299.677 160.74 299.677 161.364C299.677 161.993 299.57 162.538 299.356 163C299.142 163.459 298.845 163.815 298.466 164.067C298.087 164.317 297.65 164.442 297.155 164.442C296.773 164.442 296.468 164.379 296.238 164.253C296.009 164.124 295.832 163.978 295.708 163.816C295.585 163.651 295.489 163.514 295.422 163.406H295.314V164.319H294.432ZM295.329 161.348C295.329 161.797 295.395 162.193 295.527 162.536C295.658 162.876 295.85 163.143 296.103 163.336C296.356 163.527 296.665 163.622 297.031 163.622C297.413 163.622 297.731 163.522 297.986 163.321C298.244 163.117 298.438 162.844 298.567 162.501C298.698 162.155 298.764 161.771 298.764 161.348C298.764 160.93 298.699 160.554 298.57 160.219C298.444 159.881 298.252 159.614 297.994 159.418C297.739 159.22 297.418 159.12 297.031 159.12C296.66 159.12 296.348 159.214 296.095 159.403C295.842 159.588 295.652 159.849 295.523 160.184C295.394 160.517 295.329 160.905 295.329 161.348ZM305.172 159.708L304.352 159.94C304.301 159.804 304.225 159.671 304.124 159.542C304.026 159.41 303.892 159.302 303.722 159.217C303.552 159.132 303.334 159.089 303.068 159.089C302.705 159.089 302.402 159.173 302.159 159.341C301.919 159.506 301.799 159.716 301.799 159.971C301.799 160.198 301.882 160.377 302.047 160.509C302.212 160.64 302.47 160.75 302.821 160.838L303.702 161.054C304.234 161.183 304.629 161.38 304.89 161.646C305.15 161.909 305.28 162.248 305.28 162.663C305.28 163.004 305.183 163.308 304.987 163.576C304.793 163.844 304.522 164.056 304.174 164.21C303.826 164.365 303.421 164.442 302.96 164.442C302.354 164.442 301.852 164.311 301.455 164.048C301.058 163.785 300.807 163.401 300.701 162.895L301.567 162.679C301.65 162.998 301.806 163.238 302.035 163.398C302.267 163.558 302.57 163.638 302.944 163.638C303.37 163.638 303.708 163.548 303.958 163.367C304.21 163.184 304.337 162.965 304.337 162.71C304.337 162.503 304.265 162.331 304.12 162.191C303.976 162.049 303.754 161.944 303.455 161.874L302.465 161.642C301.921 161.513 301.521 161.313 301.266 161.043C301.013 160.769 300.887 160.428 300.887 160.018C300.887 159.682 300.981 159.386 301.169 159.128C301.36 158.87 301.619 158.668 301.946 158.521C302.277 158.374 302.65 158.3 303.068 158.3C303.656 158.3 304.118 158.429 304.453 158.687C304.791 158.945 305.03 159.285 305.172 159.708Z" fill="#FBFFF1"/>
<path d="M215.01 80.9241L283.921 80.9238C284.522 80.9238 285.01 81.4115 285.01 82.013V123.924" stroke="url(#paint4_linear_208_14589)" stroke-width="1.08917"/>
<path d="M235.624 90.9888C235.318 90.9888 235.045 90.9362 234.805 90.831C234.567 90.7258 234.377 90.5796 234.236 90.3924C234.097 90.2036 234.021 89.9847 234.009 89.7356H234.594C234.606 89.8888 234.659 90.0211 234.752 90.1325C234.844 90.2423 234.966 90.3274 235.116 90.3878C235.266 90.4481 235.432 90.4783 235.615 90.4783C235.819 90.4783 236 90.4427 236.158 90.3715C236.316 90.3003 236.439 90.2013 236.529 90.0745C236.619 89.9476 236.664 89.8006 236.664 89.6335C236.664 89.4587 236.62 89.3048 236.534 89.1717C236.447 89.0371 236.32 88.9319 236.153 88.8561C235.986 88.7803 235.782 88.7424 235.541 88.7424H235.16V88.2318H235.541C235.729 88.2318 235.895 88.1978 236.037 88.1297C236.181 88.0617 236.293 87.9657 236.374 87.842C236.456 87.7182 236.497 87.5728 236.497 87.4057C236.497 87.2448 236.461 87.1048 236.39 86.9856C236.319 86.8665 236.218 86.7737 236.088 86.7072C235.96 86.6406 235.808 86.6074 235.633 86.6074C235.469 86.6074 235.315 86.6375 235.169 86.6979C235.025 86.7567 234.908 86.8425 234.817 86.9555C234.725 87.0669 234.676 87.2015 234.668 87.3593H234.111C234.12 87.1102 234.195 86.892 234.336 86.7048C234.477 86.5161 234.661 86.3691 234.888 86.2639C235.117 86.1587 235.369 86.1061 235.643 86.1061C235.937 86.1061 236.189 86.1657 236.399 86.2848C236.61 86.4024 236.771 86.5579 236.884 86.7512C236.997 86.9446 237.054 87.1535 237.054 87.3778C237.054 87.6455 236.983 87.8737 236.842 88.0624C236.703 88.2512 236.514 88.3819 236.274 88.4546V88.4918C236.574 88.5413 236.808 88.6689 236.977 88.8747C237.146 89.0789 237.23 89.3318 237.23 89.6335C237.23 89.8919 237.16 90.124 237.019 90.3297C236.88 90.534 236.689 90.6949 236.448 90.8124C236.207 90.93 235.932 90.9888 235.624 90.9888ZM240.165 88.2922V88.8027H238.086V88.2922H240.165ZM242.725 86.1711V90.9238H242.15V86.7745H242.122L240.962 87.5449V86.9601L242.15 86.1711H242.725ZM245.577 90.9888C245.227 90.9888 244.929 90.8937 244.684 90.7034C244.438 90.5115 244.25 90.2338 244.12 89.8702C243.99 89.5051 243.925 89.0642 243.925 88.5475C243.925 88.0338 243.99 87.5952 244.12 87.2316C244.251 86.8665 244.44 86.588 244.686 86.3962C244.933 86.2028 245.23 86.1061 245.577 86.1061C245.924 86.1061 246.22 86.2028 246.466 86.3962C246.713 86.588 246.902 86.8665 247.032 87.2316C247.164 87.5952 247.229 88.0338 247.229 88.5475C247.229 89.0642 247.164 89.5051 247.034 89.8702C246.904 90.2338 246.716 90.5115 246.47 90.7034C246.224 90.8937 245.927 90.9888 245.577 90.9888ZM245.577 90.4783C245.924 90.4783 246.193 90.3112 246.385 89.977C246.576 89.6428 246.672 89.1663 246.672 88.5475C246.672 88.1359 246.628 87.7855 246.54 87.4962C246.453 87.2069 246.328 86.9864 246.164 86.8348C246.002 86.6832 245.806 86.6074 245.577 86.6074C245.234 86.6074 244.965 86.7768 244.772 87.1156C244.578 87.4529 244.482 87.9302 244.482 88.5475C244.482 88.959 244.525 89.3086 244.612 89.5964C244.698 89.8842 244.823 90.1031 244.985 90.2532C245.149 90.4032 245.346 90.4783 245.577 90.4783ZM248.464 87.3593L249.318 88.8167L250.172 87.3593H250.803L249.652 89.1415L250.803 90.9238H250.172L249.318 89.5407L248.464 90.9238H247.832L248.965 89.1415L247.832 87.3593H248.464ZM257.19 87.6563H256.615C256.581 87.4908 256.521 87.3453 256.436 87.22C256.353 87.0947 256.25 86.9895 256.13 86.9044C256.011 86.8178 255.878 86.7528 255.733 86.7095C255.587 86.6662 255.436 86.6445 255.278 86.6445C254.99 86.6445 254.73 86.7172 254.496 86.8626C254.264 87.0081 254.079 87.2223 253.941 87.5055C253.805 87.7886 253.737 88.1359 253.737 88.5475C253.737 88.959 253.805 89.3063 253.941 89.5894C254.079 89.8726 254.264 90.0868 254.496 90.2323C254.73 90.3777 254.99 90.4504 255.278 90.4504C255.436 90.4504 255.587 90.4287 255.733 90.3854C255.878 90.3421 256.011 90.2779 256.13 90.1928C256.25 90.1062 256.353 90.0002 256.436 89.8749C256.521 89.748 256.581 89.6026 256.615 89.4386H257.19C257.147 89.6815 257.068 89.8989 256.954 90.0907C256.839 90.2825 256.697 90.4458 256.527 90.5804C256.356 90.7134 256.165 90.8148 255.953 90.8844C255.743 90.954 255.518 90.9888 255.278 90.9888C254.873 90.9888 254.512 90.8898 254.197 90.6918C253.881 90.4937 253.633 90.2122 253.452 89.847C253.271 89.4819 253.18 89.0487 253.18 88.5475C253.18 88.0462 253.271 87.613 253.452 87.2479C253.633 86.8828 253.881 86.6012 254.197 86.4031C254.512 86.2051 254.873 86.1061 255.278 86.1061C255.518 86.1061 255.743 86.1409 255.953 86.2105C256.165 86.2801 256.356 86.3823 256.527 86.5169C256.697 86.6499 256.839 86.8124 256.954 87.0042C257.068 87.1945 257.147 87.4119 257.19 87.6563ZM259.429 90.9981C259.107 90.9981 258.825 90.9215 258.582 90.7683C258.34 90.6152 258.152 90.4009 258.015 90.1255C257.881 89.8501 257.814 89.5283 257.814 89.1601C257.814 88.7888 257.881 88.4647 258.015 88.1877C258.152 87.9108 258.34 87.6958 258.582 87.5426C258.825 87.3894 259.107 87.3129 259.429 87.3129C259.751 87.3129 260.032 87.3894 260.274 87.5426C260.516 87.6958 260.705 87.9108 260.84 88.1877C260.976 88.4647 261.044 88.7888 261.044 89.1601C261.044 89.5283 260.976 89.8501 260.84 90.1255C260.705 90.4009 260.516 90.6152 260.274 90.7683C260.032 90.9215 259.751 90.9981 259.429 90.9981ZM259.429 90.5061C259.673 90.5061 259.874 90.4434 260.032 90.3181C260.19 90.1928 260.307 90.028 260.383 89.8238C260.458 89.6196 260.496 89.3984 260.496 89.1601C260.496 88.9219 260.458 88.6998 260.383 88.4941C260.307 88.2883 260.19 88.122 260.032 87.9951C259.874 87.8683 259.673 87.8048 259.429 87.8048C259.184 87.8048 258.983 87.8683 258.825 87.9951C258.668 88.122 258.551 88.2883 258.475 88.4941C258.399 88.6998 258.361 88.9219 258.361 89.1601C258.361 89.3984 258.399 89.6196 258.475 89.8238C258.551 90.028 258.668 90.1928 258.825 90.3181C258.983 90.4434 259.184 90.5061 259.429 90.5061ZM264.34 88.1576L263.848 88.2968C263.817 88.2148 263.771 88.1351 263.711 88.0578C263.652 87.9789 263.571 87.9139 263.469 87.8629C263.367 87.8118 263.236 87.7863 263.077 87.7863C262.859 87.7863 262.677 87.8366 262.532 87.9371C262.388 88.0361 262.316 88.1622 262.316 88.3154C262.316 88.4515 262.365 88.5591 262.464 88.638C262.563 88.7169 262.718 88.7826 262.929 88.8352L263.458 88.9652C263.776 89.0425 264.014 89.1609 264.17 89.3202C264.326 89.478 264.405 89.6815 264.405 89.9306C264.405 90.1348 264.346 90.3174 264.228 90.4783C264.112 90.6392 263.95 90.766 263.741 90.8588C263.532 90.9517 263.289 90.9981 263.012 90.9981C262.649 90.9981 262.348 90.9192 262.109 90.7614C261.871 90.6036 261.72 90.3731 261.657 90.0698L262.177 89.9399C262.226 90.1317 262.32 90.2756 262.457 90.3715C262.597 90.4674 262.778 90.5154 263.003 90.5154C263.258 90.5154 263.461 90.4612 263.611 90.3529C263.762 90.2431 263.838 90.1116 263.838 89.9584C263.838 89.8347 263.795 89.731 263.708 89.6475C263.622 89.5624 263.489 89.4989 263.309 89.4572L262.715 89.3179C262.389 89.2406 262.149 89.1207 261.996 88.9582C261.844 88.7942 261.768 88.5892 261.768 88.3432C261.768 88.1421 261.825 87.9642 261.938 87.8095C262.052 87.6548 262.208 87.5333 262.404 87.4451C262.602 87.3569 262.826 87.3129 263.077 87.3129C263.43 87.3129 263.707 87.3902 263.908 87.5449C264.111 87.6996 264.254 87.9039 264.34 88.1576ZM266.714 87.3593V87.8234H264.867V87.3593H266.714ZM265.405 86.5053H265.953V89.9027C265.953 90.0574 265.975 90.1735 266.02 90.2508C266.066 90.3266 266.125 90.3777 266.196 90.404C266.269 90.4287 266.346 90.4411 266.426 90.4411C266.486 90.4411 266.536 90.438 266.575 90.4318C266.613 90.4241 266.644 90.4179 266.667 90.4133L266.779 90.9053C266.742 90.9192 266.69 90.9331 266.623 90.947C266.557 90.9625 266.472 90.9702 266.37 90.9702C266.216 90.9702 266.064 90.937 265.915 90.8705C265.769 90.8039 265.646 90.7026 265.549 90.5664C265.453 90.4303 265.405 90.2586 265.405 90.0513V86.5053ZM241.782 95.1576L241.29 95.2968C241.26 95.2148 241.214 95.1351 241.154 95.0578C241.095 94.9789 241.014 94.9139 240.912 94.8629C240.81 94.8118 240.679 94.7863 240.52 94.7863C240.302 94.7863 240.12 94.8366 239.975 94.9371C239.831 95.0361 239.759 95.1622 239.759 95.3154C239.759 95.4515 239.808 95.5591 239.907 95.638C240.006 95.7169 240.161 95.7826 240.371 95.8352L240.901 95.9652C241.219 96.0425 241.457 96.1609 241.613 96.3202C241.769 96.478 241.847 96.6815 241.847 96.9306C241.847 97.1348 241.789 97.3174 241.671 97.4783C241.555 97.6392 241.393 97.766 241.184 97.8588C240.975 97.9517 240.732 97.9981 240.455 97.9981C240.091 97.9981 239.791 97.9192 239.552 97.7614C239.314 97.6036 239.163 97.3731 239.1 97.0698L239.62 96.9399C239.669 97.1317 239.763 97.2756 239.9 97.3715C240.04 97.4674 240.221 97.5154 240.446 97.5154C240.701 97.5154 240.904 97.4612 241.054 97.3529C241.205 97.2431 241.281 97.1116 241.281 96.9584C241.281 96.8347 241.238 96.731 241.151 96.6475C241.065 96.5624 240.932 96.4989 240.752 96.4572L240.158 96.3179C239.832 96.2406 239.592 96.1207 239.439 95.9582C239.287 95.7942 239.211 95.5892 239.211 95.3432C239.211 95.1421 239.268 94.9642 239.381 94.8095C239.495 94.6548 239.651 94.5333 239.847 94.4451C240.045 94.3569 240.269 94.3129 240.52 94.3129C240.873 94.3129 241.15 94.3902 241.351 94.5449C241.553 94.6996 241.697 94.9039 241.782 95.1576ZM243.655 98.0074C243.43 98.0074 243.225 97.9648 243.04 97.8797C242.856 97.7931 242.71 97.6686 242.602 97.5061C242.494 97.3421 242.439 97.1441 242.439 96.912C242.439 96.7078 242.48 96.5423 242.56 96.4154C242.641 96.287 242.748 96.1864 242.883 96.1137C243.017 96.041 243.166 95.9868 243.328 95.9513C243.492 95.9141 243.657 95.8847 243.823 95.8631C244.039 95.8352 244.215 95.8143 244.349 95.8004C244.485 95.7849 244.584 95.7594 244.646 95.7238C244.71 95.6882 244.742 95.6264 244.742 95.5382V95.5196C244.742 95.2906 244.679 95.1127 244.554 94.9858C244.43 94.859 244.242 94.7956 243.99 94.7956C243.728 94.7956 243.523 94.8528 243.375 94.9673C243.226 95.0818 243.122 95.204 243.061 95.334L242.542 95.1483C242.634 94.9317 242.758 94.7631 242.913 94.6424C243.069 94.5202 243.239 94.4351 243.423 94.3871C243.609 94.3376 243.792 94.3129 243.971 94.3129C244.086 94.3129 244.217 94.3268 244.366 94.3546C244.516 94.3809 244.66 94.4358 244.8 94.5194C244.94 94.6029 245.057 94.729 245.15 94.8977C245.243 95.0663 245.289 95.2922 245.289 95.5753V97.9238H244.742V97.4411H244.714C244.677 97.5185 244.615 97.6013 244.528 97.6894C244.441 97.7776 244.326 97.8527 244.182 97.9145C244.038 97.9764 243.863 98.0074 243.655 98.0074ZM243.739 97.5154C243.956 97.5154 244.138 97.4728 244.287 97.3878C244.437 97.3027 244.55 97.1928 244.625 97.0582C244.703 96.9236 244.742 96.7821 244.742 96.6335V96.1323C244.718 96.1601 244.667 96.1856 244.588 96.2088C244.511 96.2305 244.421 96.2498 244.319 96.2669C244.219 96.2823 244.12 96.2963 244.024 96.3086C243.93 96.3195 243.853 96.3287 243.795 96.3365C243.652 96.355 243.519 96.3852 243.396 96.427C243.273 96.4672 243.174 96.5283 243.098 96.6103C243.024 96.6908 242.987 96.8006 242.987 96.9399C242.987 97.1302 243.057 97.274 243.198 97.3715C243.341 97.4674 243.521 97.5154 243.739 97.5154ZM249.011 94.3593L247.692 97.9238H247.136L245.817 94.3593H246.411L247.395 97.1998H247.433L248.417 94.3593H249.011ZM249.668 97.9238V94.3593H250.216V97.9238H249.668ZM249.947 93.7652C249.84 93.7652 249.748 93.7288 249.67 93.6561C249.595 93.5834 249.557 93.496 249.557 93.3939C249.557 93.2918 249.595 93.2043 249.67 93.1316C249.748 93.0589 249.84 93.0226 249.947 93.0226C250.053 93.0226 250.145 93.0589 250.22 93.1316C250.298 93.2043 250.337 93.2918 250.337 93.3939C250.337 93.496 250.298 93.5834 250.22 93.6561C250.145 93.7288 250.053 93.7652 249.947 93.7652ZM251.701 95.7795V97.9238H251.154V94.3593H251.683V94.9162H251.729C251.813 94.7352 251.94 94.5898 252.11 94.4799C252.28 94.3685 252.5 94.3129 252.769 94.3129C253.01 94.3129 253.221 94.3624 253.402 94.4614C253.583 94.5588 253.724 94.7074 253.825 94.9069C253.925 95.105 253.976 95.3556 253.976 95.6588V97.9238H253.428V95.696C253.428 95.4159 253.355 95.1978 253.21 95.0415C253.064 94.8837 252.865 94.8048 252.611 94.8048C252.436 94.8048 252.28 94.8427 252.142 94.9185C252.006 94.9944 251.899 95.105 251.82 95.2504C251.741 95.3958 251.701 95.5722 251.701 95.7795ZM256.35 99.3348C256.085 99.3348 255.858 99.3008 255.668 99.2327C255.477 99.1662 255.319 99.078 255.192 98.9681C255.066 98.8598 254.967 98.7438 254.892 98.62L255.329 98.3137C255.378 98.3787 255.441 98.4529 255.517 98.5365C255.592 98.6216 255.696 98.6951 255.828 98.757C255.961 98.8204 256.135 98.8521 256.35 98.8521C256.638 98.8521 256.875 98.7825 257.062 98.6432C257.249 98.504 257.343 98.2859 257.343 97.9888V97.2648H257.297C257.256 97.3297 257.199 97.4102 257.125 97.5061C257.052 97.6005 256.947 97.6848 256.809 97.7591C256.673 97.8318 256.489 97.8681 256.257 97.8681C255.969 97.8681 255.711 97.8001 255.482 97.6639C255.254 97.5278 255.074 97.3297 254.941 97.0698C254.81 96.8099 254.744 96.4943 254.744 96.123C254.744 95.7579 254.808 95.4399 254.937 95.1692C255.065 94.8969 255.244 94.6865 255.473 94.538C255.702 94.3879 255.966 94.3129 256.266 94.3129C256.498 94.3129 256.682 94.3515 256.819 94.4289C256.956 94.5047 257.061 94.5913 257.134 94.6888C257.208 94.7847 257.266 94.8636 257.306 94.9255H257.362V94.3593H257.891V98.0259C257.891 98.3323 257.821 98.5814 257.682 98.7732C257.544 98.9666 257.359 99.1081 257.125 99.1979C256.893 99.2892 256.634 99.3348 256.35 99.3348ZM256.331 97.3761C256.551 97.3761 256.737 97.3259 256.888 97.2253C257.04 97.1247 257.155 96.9801 257.234 96.7913C257.313 96.6026 257.352 96.3767 257.352 96.1137C257.352 95.8569 257.314 95.6302 257.236 95.4337C257.159 95.2373 257.044 95.0833 256.893 94.9719C256.741 94.8605 256.554 94.8048 256.331 94.8048C256.099 94.8048 255.906 94.8636 255.751 94.9812C255.598 95.0988 255.483 95.2566 255.405 95.4546C255.329 95.6527 255.292 95.8723 255.292 96.1137C255.292 96.3612 255.33 96.5802 255.408 96.7705C255.487 96.9592 255.603 97.1077 255.756 97.216C255.91 97.3228 256.102 97.3761 256.331 97.3761ZM261.353 95.1576L260.861 95.2968C260.83 95.2148 260.784 95.1351 260.724 95.0578C260.665 94.9789 260.585 94.9139 260.483 94.8629C260.38 94.8118 260.25 94.7863 260.09 94.7863C259.872 94.7863 259.69 94.8366 259.545 94.9371C259.401 95.0361 259.329 95.1622 259.329 95.3154C259.329 95.4515 259.379 95.5591 259.478 95.638C259.577 95.7169 259.731 95.7826 259.942 95.8352L260.471 95.9652C260.79 96.0425 261.027 96.1609 261.183 96.3202C261.34 96.478 261.418 96.6815 261.418 96.9306C261.418 97.1348 261.359 97.3174 261.241 97.4783C261.125 97.6392 260.963 97.766 260.754 97.8588C260.545 97.9517 260.302 97.9981 260.025 97.9981C259.662 97.9981 259.361 97.9192 259.123 97.7614C258.884 97.6036 258.734 97.3731 258.67 97.0698L259.19 96.9399C259.239 97.1317 259.333 97.2756 259.471 97.3715C259.61 97.4674 259.792 97.5154 260.016 97.5154C260.271 97.5154 260.474 97.4612 260.624 97.3529C260.776 97.2431 260.852 97.1116 260.852 96.9584C260.852 96.8347 260.808 96.731 260.722 96.6475C260.635 96.5624 260.502 96.4989 260.322 96.4572L259.728 96.3179C259.402 96.2406 259.162 96.1207 259.009 95.9582C258.857 95.7942 258.782 95.5892 258.782 95.3432C258.782 95.1421 258.838 94.9642 258.951 94.8095C259.065 94.6548 259.221 94.5333 259.417 94.4451C259.615 94.3569 259.84 94.3129 260.09 94.3129C260.443 94.3129 260.72 94.3902 260.921 94.5449C261.124 94.6996 261.268 94.9039 261.353 95.1576Z" fill="#FE9402"/>
<circle opacity="0.25" cx="215.357" cy="81.3567" r="4.35669" fill="#FE9402"/>
<circle cx="215.357" cy="81.3566" r="2.17834" fill="#FE9402"/>
<circle opacity="0.25" cx="285.357" cy="125.357" r="4.35669" fill="#FE9402"/>
<circle cx="285.357" cy="125.357" r="2.17834" fill="#FE9402"/>
<defs>
<linearGradient id="paint0_linear_208_14589" x1="47.3313" y1="88.5125" x2="47.3313" y2="160.596" gradientUnits="userSpaceOnUse">
<stop stop-color="#008375"/>
<stop offset="1" stop-color="#008375" stop-opacity="0"/>
</linearGradient>
<linearGradient id="paint1_linear_208_14589" x1="116.971" y1="127.723" x2="116.971" y2="153.467" gradientUnits="userSpaceOnUse">
<stop stop-color="#008375"/>
<stop offset="1" stop-color="#008375" stop-opacity="0"/>
</linearGradient>
<linearGradient id="paint2_linear_208_14589" x1="221.926" y1="76.0399" x2="211.383" y2="142.28" gradientUnits="userSpaceOnUse">
<stop stop-color="#0070F3"/>
<stop offset="1" stop-color="#00A3FF" stop-opacity="0.32"/>
</linearGradient>
<linearGradient id="paint3_linear_208_14589" x1="291.825" y1="124.163" x2="290.568" y2="147.227" gradientUnits="userSpaceOnUse">
<stop stop-color="#0070F3"/>
<stop offset="1" stop-color="#00A3FF" stop-opacity="0.32"/>
</linearGradient>
<linearGradient id="paint4_linear_208_14589" x1="250.557" y1="80.9238" x2="250.557" y2="140.64" gradientUnits="userSpaceOnUse">
<stop stop-color="#FE9402"/>
<stop offset="1" stop-color="#985901"/>
</linearGradient>
</defs>
</svg>
