<svg width="16" height="16" viewBox="0 0 16 16" fill="none" xmlns="http://www.w3.org/2000/svg">
<g clip-path="url(#clip0_298_8514)">
<path fill-rule="evenodd" clip-rule="evenodd" d="M16 8C16 12.4183 12.4183 16 8 16C3.58172 16 0 12.4183 0 8C0 3.58172 3.58172 0 8 0C12.4183 0 16 3.58172 16 8ZM8.28677 5.90603C7.50865 6.22968 5.95351 6.89955 3.62134 7.91563C3.24264 8.06623 3.04425 8.21356 3.02619 8.35762C2.99567 8.60108 3.30056 8.69695 3.71573 8.8275C3.77221 8.84525 3.83072 8.86365 3.89071 8.88315C4.29917 9.01593 4.84863 9.17126 5.13427 9.17744C5.39338 9.18303 5.68257 9.07621 6.00184 8.85698C8.18085 7.38608 9.30567 6.64262 9.37629 6.62659C9.42611 6.61529 9.49515 6.60107 9.54193 6.64265C9.5887 6.68422 9.5841 6.76296 9.57915 6.78408C9.54895 6.91284 8.35217 8.02547 7.73283 8.60126C7.53976 8.78077 7.4028 8.90809 7.3748 8.93717C7.31208 9.00231 7.24817 9.06393 7.18673 9.12315C6.80726 9.48897 6.52269 9.7633 7.20249 10.2113C7.52917 10.4265 7.79058 10.6046 8.05137 10.7822C8.33619 10.9761 8.62027 11.1696 8.98782 11.4105C9.08147 11.4719 9.1709 11.5357 9.25801 11.5978C9.58946 11.8341 9.88725 12.0464 10.2551 12.0125C10.4689 11.9928 10.6897 11.7918 10.8019 11.1923C11.0669 9.77551 11.5878 6.70572 11.7082 5.44073C11.7188 5.3299 11.7055 5.18806 11.6949 5.1258C11.6842 5.06353 11.6619 4.97482 11.581 4.90915C11.4851 4.83137 11.3372 4.81497 11.271 4.81614C10.9701 4.82144 10.5085 4.98196 8.28677 5.90603Z" fill="#FBFFF1"/>
</g>
<defs>
<clipPath id="clip0_298_8514">
<rect width="16" height="16" fill="white"/>
</clipPath>
</defs>
</svg>
